<?xml version="1.0" encoding="UTF-8"?>
<svg width="3129px" height="117px" viewBox="0 0 3129 117" version="1.1" xmlns="http://www.w3.org/2000/svg" xmlns:xlink="http://www.w3.org/1999/xlink">
    <!-- Generator: Sketch 48.2 (47327) - http://www.bohemiancoding.com/sketch -->
    <title>Electronic</title>
    <desc>Created with Sketch.</desc>
    <defs></defs>
    <g id="DT_01_Home" stroke="none" stroke-width="1" fill="none" fill-rule="evenodd" transform="translate(-855.000000, -3673.000000)">
        <g id="Entdeckungen" transform="translate(855.000000, 2577.000000)" fill="#5E35B1">
            <g id="Audio" transform="translate(0.000000, 266.000000)">
                <g id="Electronic" transform="translate(0.000000, 830.000000)">
                    <path d="M2995.64741,32.0250451 C2996.02589,31.9391156 2996.42027,31.8961611 2996.83055,31.8961611 L3123.46544,31.8961611 C3124.89311,31.8961611 3126.13134,32.4179649 3127.17611,33.4624388 C3128.21971,34.506624 3128.74267,35.7422624 3128.74267,37.1722417 L3128.74267,47.7258467 C3128.74267,49.1543821 3128.21971,50.3920419 3127.17611,51.435072 C3126.13134,52.479546 3124.89311,53.0027936 3123.46544,53.0027936 L2996.83055,53.0027936 C2996.42023,53.0027936 2996.02592,52.9597125 2995.64751,52.8735981 C2995.26915,52.9597125 2994.87509,53.0027936 2994.46544,53.0027936 L2867.83055,53.0027936 C2867.04439,53.0027936 2866.31697,52.8446438 2865.64767,52.5286802 C2864.97796,52.8446438 2864.25033,53.0027936 2863.46544,53.0027936 L2736.83055,53.0027936 C2736.42023,53.0027936 2736.02592,52.9597125 2735.64751,52.8735981 C2735.26915,52.9597125 2734.87509,53.0027936 2734.46544,53.0027936 L2607.83055,53.0027936 C2607.23605,53.0027936 2606.67514,52.9123549 2606.14755,52.7316229 C2605.61978,52.9123549 2605.05898,53.0027936 2604.46544,53.0027936 L2477.83055,53.0027936 C2477.42023,53.0027936 2477.02592,52.9597125 2476.64751,52.8735981 C2476.26915,52.9597125 2475.87509,53.0027936 2475.46544,53.0027936 L2348.83055,53.0027936 C2348.04439,53.0027936 2347.31697,52.8446438 2346.64767,52.5286802 C2345.97796,52.8446438 2345.25033,53.0027936 2344.46544,53.0027936 L2217.83055,53.0027936 C2217.42023,53.0027936 2217.02592,52.9597125 2216.64751,52.8735981 C2216.26915,52.9597125 2215.87509,53.0027936 2215.46544,53.0027936 L2088.83055,53.0027936 C2088.23605,53.0027936 2087.67514,52.9123549 2087.14755,52.7316229 C2086.61978,52.9123549 2086.05898,53.0027936 2085.46544,53.0027936 L1958.83055,53.0027936 C1958.42023,53.0027936 1958.02592,52.9597125 1957.64751,52.8735981 C1957.26915,52.9597125 1956.87509,53.0027936 1956.46544,53.0027936 L1829.83055,53.0027936 C1829.04439,53.0027936 1828.31697,52.8446438 1827.64767,52.5286802 C1826.97796,52.8446438 1826.25033,53.0027936 1825.46544,53.0027936 L1698.83055,53.0027936 C1698.42023,53.0027936 1698.02592,52.9597125 1697.64751,52.8735981 C1697.26915,52.9597125 1696.87509,53.0027936 1696.46544,53.0027936 L1569.83055,53.0027936 C1568.40057,53.0027936 1567.16493,52.479546 1566.11988,51.435072 C1565.07541,50.3920419 1564.55361,49.1543821 1564.55361,47.7258467 L1564.55361,37.1722417 C1564.55361,35.7431287 1565.07541,34.5063353 1566.11988,33.4624388 C1567.16378,32.4179649 1568.40057,31.8961611 1569.83055,31.8961611 L1696.46544,31.8961611 C1696.87506,31.8961611 1697.26908,31.9391156 1697.64741,32.0250451 C1698.02589,31.9391156 1698.42027,31.8961611 1698.83055,31.8961611 L1825.46544,31.8961611 C1826.25023,31.8961611 1826.97779,32.0538374 1827.64743,32.369334 C1828.31679,32.0538374 1829.04449,31.8961611 1829.83055,31.8961611 L1956.46544,31.8961611 C1956.87506,31.8961611 1957.26908,31.9391156 1957.64741,32.0250451 C1958.02589,31.9391156 1958.42027,31.8961611 1958.83055,31.8961611 L2085.46544,31.8961611 C2086.05891,31.8961611 2086.61966,31.9863303 2087.14737,32.1667308 C2087.67506,31.9863303 2088.23612,31.8961611 2088.83055,31.8961611 L2215.46544,31.8961611 C2215.87506,31.8961611 2216.26908,31.9391156 2216.64741,32.0250451 C2217.02589,31.9391156 2217.42027,31.8961611 2217.83055,31.8961611 L2344.46544,31.8961611 C2345.25023,31.8961611 2345.97779,32.0538374 2346.64743,32.369334 C2347.31679,32.0538374 2348.04449,31.8961611 2348.83055,31.8961611 L2475.46544,31.8961611 C2475.87506,31.8961611 2476.26908,31.9391156 2476.64741,32.0250451 C2477.02589,31.9391156 2477.42027,31.8961611 2477.83055,31.8961611 L2604.46544,31.8961611 C2605.05891,31.8961611 2605.61966,31.9863303 2606.14737,32.1667308 C2606.67506,31.9863303 2607.23612,31.8961611 2607.83055,31.8961611 L2734.46544,31.8961611 C2734.87506,31.8961611 2735.26908,31.9391156 2735.64741,32.0250451 C2736.02589,31.9391156 2736.42027,31.8961611 2736.83055,31.8961611 L2863.46544,31.8961611 C2864.25023,31.8961611 2864.97779,32.0538374 2865.64743,32.369334 C2866.31679,32.0538374 2867.04449,31.8961611 2867.83055,31.8961611 L2994.46544,31.8961611 C2994.87506,31.8961611 2995.26908,31.9391156 2995.64741,32.0250451 Z M2994.46573,116.320092 L2863.46573,116.320092 L2734.46573,116.320092 L2604.46573,116.320092 L2475.46573,116.320092 L2344.46573,116.320092 L2215.46573,116.320092 L2085.46573,116.320092 L1956.46573,116.320092 L1825.46573,116.320092 L1696.46573,116.320092 L1559.27724,116.320092 C1557.8487,116.320092 1556.61191,115.797133 1555.56628,114.754681 C1554.52238,113.708763 1554,112.471681 1554,111.042857 L1554,100.48954 C1554,99.0607162 1554.52238,97.823634 1555.56599,96.7800263 C1556.61075,95.7355524 1557.84697,95.2128823 1559.27695,95.2128823 L1696.46544,95.2128823 L1825.46544,95.2128823 L1956.46544,95.2128823 L2085.46544,95.2128823 L2215.46544,95.2128823 L2344.46544,95.2128823 L2475.46544,95.2128823 L2604.46544,95.2128823 L2734.46544,95.2128823 L2863.46544,95.2128823 L2994.46544,95.2128823 L3123.46544,95.2128823 C3124.89311,95.2128823 3126.13134,95.7352636 3127.1764,96.7797376 C3128.22,97.823634 3128.74296,99.0607162 3128.74296,100.48954 L3128.74296,111.042857 C3128.74296,112.47197 3128.22,113.709052 3127.1764,114.754681 C3126.13163,115.797133 3124.8934,116.320092 3123.46573,116.320092 L2994.46573,116.320092 Z M1696.46544,63.5543773 C1697.89311,63.5543773 1699.13134,64.0761811 1700.17611,65.1218101 C1701.21971,66.1654178 1701.74267,67.4036551 1701.74267,68.831613 L1701.74267,79.3846405 C1701.74267,80.8137534 1701.21971,82.0519907 1700.17611,83.0944433 C1699.13134,84.139206 1697.89311,84.6630312 1696.46544,84.6630312 L1590.93632,84.6630312 C1589.50721,84.6630312 1588.27099,84.1389172 1587.22565,83.0944433 C1586.18118,82.0517019 1585.65937,80.8134647 1585.65937,79.3846405 L1585.65937,68.831613 C1585.65937,67.4033663 1586.18089,66.165129 1587.22565,65.1218101 C1588.27012,64.0773362 1589.50634,63.5543773 1590.93632,63.5543773 L1696.46544,63.5543773 Z M1700.17611,1.80220125 C1701.21971,2.8475415 1701.74239,4.08404619 1701.74267,5.51287038 L1701.74267,16.0664754 C1701.74267,17.4955884 1701.21971,18.7318043 1700.17611,19.7762783 C1699.13134,20.8201747 1697.89311,21.342556 1696.46544,21.342556 L1601.48992,21.342556 C1600.06081,21.342556 1598.82431,20.8204634 1597.77925,19.7762783 C1596.73478,18.7315155 1596.2124,17.4952996 1596.2124,16.0664754 L1596.2124,5.51287038 C1596.2124,4.08404619 1596.73478,2.8466752 1597.77925,1.80220125 C1598.82315,0.75917114 1600.05994,0.235923477 1601.48992,0.235923477 L1696.46544,0.235923477 C1697.8934,0.235923477 1699.13163,0.75917114 1700.17611,1.80220125 Z M1825.46544,63.5543773 C1826.89311,63.5543773 1828.13134,64.0761811 1829.17611,65.1218101 C1830.21971,66.1654178 1830.74267,67.4036551 1830.74267,68.831613 L1830.74267,79.3846405 C1830.74267,80.8137534 1830.21971,82.0519907 1829.17611,83.0944433 C1828.13134,84.139206 1826.89311,84.6630312 1825.46544,84.6630312 L1719.93632,84.6630312 C1718.50721,84.6630312 1717.27099,84.1389172 1716.22565,83.0944433 C1715.18118,82.0517019 1714.65937,80.8134647 1714.65937,79.3846405 L1714.65937,68.831613 C1714.65937,67.4033663 1715.18089,66.165129 1716.22565,65.1218101 C1717.27012,64.0773362 1718.50634,63.5543773 1719.93632,63.5543773 L1825.46544,63.5543773 Z M1829.17611,1.80220125 C1830.21971,2.8475415 1830.74239,4.08404619 1830.74267,5.51287038 L1830.74267,16.0664754 C1830.74267,17.4955884 1830.21971,18.7318043 1829.17611,19.7762783 C1828.13134,20.8201747 1826.89311,21.342556 1825.46544,21.342556 L1730.48992,21.342556 C1729.06081,21.342556 1727.82431,20.8204634 1726.77925,19.7762783 C1725.73478,18.7315155 1725.2124,17.4952996 1725.2124,16.0664754 L1725.2124,5.51287038 C1725.2124,4.08404619 1725.73478,2.8466752 1726.77925,1.80220125 C1727.82315,0.75917114 1729.05994,0.235923477 1730.48992,0.235923477 L1825.46544,0.235923477 C1826.8934,0.235923477 1828.13163,0.75917114 1829.17611,1.80220125 Z M1956.46544,63.5543773 C1957.89311,63.5543773 1959.13134,64.0761811 1960.17611,65.1218101 C1961.21971,66.1654178 1961.74267,67.4036551 1961.74267,68.831613 L1961.74267,79.3846405 C1961.74267,80.8137534 1961.21971,82.0519907 1960.17611,83.0944433 C1959.13134,84.139206 1957.89311,84.6630312 1956.46544,84.6630312 L1850.93632,84.6630312 C1849.50721,84.6630312 1848.27099,84.1389172 1847.22565,83.0944433 C1846.18118,82.0517019 1845.65937,80.8134647 1845.65937,79.3846405 L1845.65937,68.831613 C1845.65937,67.4033663 1846.18089,66.165129 1847.22565,65.1218101 C1848.27012,64.0773362 1849.50634,63.5543773 1850.93632,63.5543773 L1956.46544,63.5543773 Z M1960.17611,1.80220125 C1961.21971,2.8475415 1961.74239,4.08404619 1961.74267,5.51287038 L1961.74267,16.0664754 C1961.74267,17.4955884 1961.21971,18.7318043 1960.17611,19.7762783 C1959.13134,20.8201747 1957.89311,21.342556 1956.46544,21.342556 L1861.48992,21.342556 C1860.06081,21.342556 1858.82431,20.8204634 1857.77925,19.7762783 C1856.73478,18.7315155 1856.2124,17.4952996 1856.2124,16.0664754 L1856.2124,5.51287038 C1856.2124,4.08404619 1856.73478,2.8466752 1857.77925,1.80220125 C1858.82315,0.75917114 1860.05994,0.235923477 1861.48992,0.235923477 L1956.46544,0.235923477 C1957.8934,0.235923477 1959.13163,0.75917114 1960.17611,1.80220125 Z M2085.46544,63.5543773 C2086.89311,63.5543773 2088.13134,64.0761811 2089.17611,65.1218101 C2090.21971,66.1654178 2090.74267,67.4036551 2090.74267,68.831613 L2090.74267,79.3846405 C2090.74267,80.8137534 2090.21971,82.0519907 2089.17611,83.0944433 C2088.13134,84.139206 2086.89311,84.6630312 2085.46544,84.6630312 L1979.93632,84.6630312 C1978.50721,84.6630312 1977.27099,84.1389172 1976.22565,83.0944433 C1975.18118,82.0517019 1974.65937,80.8134647 1974.65937,79.3846405 L1974.65937,68.831613 C1974.65937,67.4033663 1975.18089,66.165129 1976.22565,65.1218101 C1977.27012,64.0773362 1978.50634,63.5543773 1979.93632,63.5543773 L2085.46544,63.5543773 Z M2089.17611,1.80220125 C2090.21971,2.8475415 2090.74239,4.08404619 2090.74267,5.51287038 L2090.74267,16.0664754 C2090.74267,17.4955884 2090.21971,18.7318043 2089.17611,19.7762783 C2088.13134,20.8201747 2086.89311,21.342556 2085.46544,21.342556 L1990.48992,21.342556 C1989.06081,21.342556 1987.82431,20.8204634 1986.77925,19.7762783 C1985.73478,18.7315155 1985.2124,17.4952996 1985.2124,16.0664754 L1985.2124,5.51287038 C1985.2124,4.08404619 1985.73478,2.8466752 1986.77925,1.80220125 C1987.82315,0.75917114 1989.05994,0.235923477 1990.48992,0.235923477 L2085.46544,0.235923477 C2086.8934,0.235923477 2088.13163,0.75917114 2089.17611,1.80220125 Z M2215.46544,63.5543773 C2216.89311,63.5543773 2218.13134,64.0761811 2219.17611,65.1218101 C2220.21971,66.1654178 2220.74267,67.4036551 2220.74267,68.831613 L2220.74267,79.3846405 C2220.74267,80.8137534 2220.21971,82.0519907 2219.17611,83.0944433 C2218.13134,84.139206 2216.89311,84.6630312 2215.46544,84.6630312 L2109.93632,84.6630312 C2108.50721,84.6630312 2107.27099,84.1389172 2106.22565,83.0944433 C2105.18118,82.0517019 2104.65937,80.8134647 2104.65937,79.3846405 L2104.65937,68.831613 C2104.65937,67.4033663 2105.18089,66.165129 2106.22565,65.1218101 C2107.27012,64.0773362 2108.50634,63.5543773 2109.93632,63.5543773 L2215.46544,63.5543773 Z M2219.17611,1.80220125 C2220.21971,2.8475415 2220.74239,4.08404619 2220.74267,5.51287038 L2220.74267,16.0664754 C2220.74267,17.4955884 2220.21971,18.7318043 2219.17611,19.7762783 C2218.13134,20.8201747 2216.89311,21.342556 2215.46544,21.342556 L2120.48992,21.342556 C2119.06081,21.342556 2117.82431,20.8204634 2116.77925,19.7762783 C2115.73478,18.7315155 2115.2124,17.4952996 2115.2124,16.0664754 L2115.2124,5.51287038 C2115.2124,4.08404619 2115.73478,2.8466752 2116.77925,1.80220125 C2117.82315,0.75917114 2119.05994,0.235923477 2120.48992,0.235923477 L2215.46544,0.235923477 C2216.8934,0.235923477 2218.13163,0.75917114 2219.17611,1.80220125 Z M2344.46544,63.5543773 C2345.89311,63.5543773 2347.13134,64.0761811 2348.17611,65.1218101 C2349.21971,66.1654178 2349.74267,67.4036551 2349.74267,68.831613 L2349.74267,79.3846405 C2349.74267,80.8137534 2349.21971,82.0519907 2348.17611,83.0944433 C2347.13134,84.139206 2345.89311,84.6630312 2344.46544,84.6630312 L2238.93632,84.6630312 C2237.50721,84.6630312 2236.27099,84.1389172 2235.22565,83.0944433 C2234.18118,82.0517019 2233.65937,80.8134647 2233.65937,79.3846405 L2233.65937,68.831613 C2233.65937,67.4033663 2234.18089,66.165129 2235.22565,65.1218101 C2236.27012,64.0773362 2237.50634,63.5543773 2238.93632,63.5543773 L2344.46544,63.5543773 Z M2348.17611,1.80220125 C2349.21971,2.8475415 2349.74239,4.08404619 2349.74267,5.51287038 L2349.74267,16.0664754 C2349.74267,17.4955884 2349.21971,18.7318043 2348.17611,19.7762783 C2347.13134,20.8201747 2345.89311,21.342556 2344.46544,21.342556 L2249.48992,21.342556 C2248.06081,21.342556 2246.82431,20.8204634 2245.77925,19.7762783 C2244.73478,18.7315155 2244.2124,17.4952996 2244.2124,16.0664754 L2244.2124,5.51287038 C2244.2124,4.08404619 2244.73478,2.8466752 2245.77925,1.80220125 C2246.82315,0.75917114 2248.05994,0.235923477 2249.48992,0.235923477 L2344.46544,0.235923477 C2345.8934,0.235923477 2347.13163,0.75917114 2348.17611,1.80220125 Z M2475.46544,63.5543773 C2476.89311,63.5543773 2478.13134,64.0761811 2479.17611,65.1218101 C2480.21971,66.1654178 2480.74267,67.4036551 2480.74267,68.831613 L2480.74267,79.3846405 C2480.74267,80.8137534 2480.21971,82.0519907 2479.17611,83.0944433 C2478.13134,84.139206 2476.89311,84.6630312 2475.46544,84.6630312 L2369.93632,84.6630312 C2368.50721,84.6630312 2367.27099,84.1389172 2366.22565,83.0944433 C2365.18118,82.0517019 2364.65937,80.8134647 2364.65937,79.3846405 L2364.65937,68.831613 C2364.65937,67.4033663 2365.18089,66.165129 2366.22565,65.1218101 C2367.27012,64.0773362 2368.50634,63.5543773 2369.93632,63.5543773 L2475.46544,63.5543773 Z M2479.17611,1.80220125 C2480.21971,2.8475415 2480.74239,4.08404619 2480.74267,5.51287038 L2480.74267,16.0664754 C2480.74267,17.4955884 2480.21971,18.7318043 2479.17611,19.7762783 C2478.13134,20.8201747 2476.89311,21.342556 2475.46544,21.342556 L2380.48992,21.342556 C2379.06081,21.342556 2377.82431,20.8204634 2376.77925,19.7762783 C2375.73478,18.7315155 2375.2124,17.4952996 2375.2124,16.0664754 L2375.2124,5.51287038 C2375.2124,4.08404619 2375.73478,2.8466752 2376.77925,1.80220125 C2377.82315,0.75917114 2379.05994,0.235923477 2380.48992,0.235923477 L2475.46544,0.235923477 C2476.8934,0.235923477 2478.13163,0.75917114 2479.17611,1.80220125 Z M2604.46544,63.5543773 C2605.89311,63.5543773 2607.13134,64.0761811 2608.17611,65.1218101 C2609.21971,66.1654178 2609.74267,67.4036551 2609.74267,68.831613 L2609.74267,79.3846405 C2609.74267,80.8137534 2609.21971,82.0519907 2608.17611,83.0944433 C2607.13134,84.139206 2605.89311,84.6630312 2604.46544,84.6630312 L2498.93632,84.6630312 C2497.50721,84.6630312 2496.27099,84.1389172 2495.22565,83.0944433 C2494.18118,82.0517019 2493.65937,80.8134647 2493.65937,79.3846405 L2493.65937,68.831613 C2493.65937,67.4033663 2494.18089,66.165129 2495.22565,65.1218101 C2496.27012,64.0773362 2497.50634,63.5543773 2498.93632,63.5543773 L2604.46544,63.5543773 Z M2608.17611,1.80220125 C2609.21971,2.8475415 2609.74239,4.08404619 2609.74267,5.51287038 L2609.74267,16.0664754 C2609.74267,17.4955884 2609.21971,18.7318043 2608.17611,19.7762783 C2607.13134,20.8201747 2605.89311,21.342556 2604.46544,21.342556 L2509.48992,21.342556 C2508.06081,21.342556 2506.82431,20.8204634 2505.77925,19.7762783 C2504.73478,18.7315155 2504.2124,17.4952996 2504.2124,16.0664754 L2504.2124,5.51287038 C2504.2124,4.08404619 2504.73478,2.8466752 2505.77925,1.80220125 C2506.82315,0.75917114 2508.05994,0.235923477 2509.48992,0.235923477 L2604.46544,0.235923477 C2605.8934,0.235923477 2607.13163,0.75917114 2608.17611,1.80220125 Z M2734.46544,63.5543773 C2735.89311,63.5543773 2737.13134,64.0761811 2738.17611,65.1218101 C2739.21971,66.1654178 2739.74267,67.4036551 2739.74267,68.831613 L2739.74267,79.3846405 C2739.74267,80.8137534 2739.21971,82.0519907 2738.17611,83.0944433 C2737.13134,84.139206 2735.89311,84.6630312 2734.46544,84.6630312 L2628.93632,84.6630312 C2627.50721,84.6630312 2626.27099,84.1389172 2625.22565,83.0944433 C2624.18118,82.0517019 2623.65937,80.8134647 2623.65937,79.3846405 L2623.65937,68.831613 C2623.65937,67.4033663 2624.18089,66.165129 2625.22565,65.1218101 C2626.27012,64.0773362 2627.50634,63.5543773 2628.93632,63.5543773 L2734.46544,63.5543773 Z M2738.17611,1.80220125 C2739.21971,2.8475415 2739.74239,4.08404619 2739.74267,5.51287038 L2739.74267,16.0664754 C2739.74267,17.4955884 2739.21971,18.7318043 2738.17611,19.7762783 C2737.13134,20.8201747 2735.89311,21.342556 2734.46544,21.342556 L2639.48992,21.342556 C2638.06081,21.342556 2636.82431,20.8204634 2635.77925,19.7762783 C2634.73478,18.7315155 2634.2124,17.4952996 2634.2124,16.0664754 L2634.2124,5.51287038 C2634.2124,4.08404619 2634.73478,2.8466752 2635.77925,1.80220125 C2636.82315,0.75917114 2638.05994,0.235923477 2639.48992,0.235923477 L2734.46544,0.235923477 C2735.8934,0.235923477 2737.13163,0.75917114 2738.17611,1.80220125 Z M2863.46544,63.5543773 C2864.89311,63.5543773 2866.13134,64.0761811 2867.17611,65.1218101 C2868.21971,66.1654178 2868.74267,67.4036551 2868.74267,68.831613 L2868.74267,79.3846405 C2868.74267,80.8137534 2868.21971,82.0519907 2867.17611,83.0944433 C2866.13134,84.139206 2864.89311,84.6630312 2863.46544,84.6630312 L2757.93632,84.6630312 C2756.50721,84.6630312 2755.27099,84.1389172 2754.22565,83.0944433 C2753.18118,82.0517019 2752.65937,80.8134647 2752.65937,79.3846405 L2752.65937,68.831613 C2752.65937,67.4033663 2753.18089,66.165129 2754.22565,65.1218101 C2755.27012,64.0773362 2756.50634,63.5543773 2757.93632,63.5543773 L2863.46544,63.5543773 Z M2867.17611,1.80220125 C2868.21971,2.8475415 2868.74239,4.08404619 2868.74267,5.51287038 L2868.74267,16.0664754 C2868.74267,17.4955884 2868.21971,18.7318043 2867.17611,19.7762783 C2866.13134,20.8201747 2864.89311,21.342556 2863.46544,21.342556 L2768.48992,21.342556 C2767.06081,21.342556 2765.82431,20.8204634 2764.77925,19.7762783 C2763.73478,18.7315155 2763.2124,17.4952996 2763.2124,16.0664754 L2763.2124,5.51287038 C2763.2124,4.08404619 2763.73478,2.8466752 2764.77925,1.80220125 C2765.82315,0.75917114 2767.05994,0.235923477 2768.48992,0.235923477 L2863.46544,0.235923477 C2864.8934,0.235923477 2866.13163,0.75917114 2867.17611,1.80220125 Z M2994.46544,63.5543773 C2995.89311,63.5543773 2997.13134,64.0761811 2998.17611,65.1218101 C2999.21971,66.1654178 2999.74267,67.4036551 2999.74267,68.831613 L2999.74267,79.3846405 C2999.74267,80.8137534 2999.21971,82.0519907 2998.17611,83.0944433 C2997.13134,84.139206 2995.89311,84.6630312 2994.46544,84.6630312 L2888.93632,84.6630312 C2887.50721,84.6630312 2886.27099,84.1389172 2885.22565,83.0944433 C2884.18118,82.0517019 2883.65937,80.8134647 2883.65937,79.3846405 L2883.65937,68.831613 C2883.65937,67.4033663 2884.18089,66.165129 2885.22565,65.1218101 C2886.27012,64.0773362 2887.50634,63.5543773 2888.93632,63.5543773 L2994.46544,63.5543773 Z M2998.17611,1.80220125 C2999.21971,2.8475415 2999.74239,4.08404619 2999.74267,5.51287038 L2999.74267,16.0664754 C2999.74267,17.4955884 2999.21971,18.7318043 2998.17611,19.7762783 C2997.13134,20.8201747 2995.89311,21.342556 2994.46544,21.342556 L2899.48992,21.342556 C2898.06081,21.342556 2896.82431,20.8204634 2895.77925,19.7762783 C2894.73478,18.7315155 2894.2124,17.4952996 2894.2124,16.0664754 L2894.2124,5.51287038 C2894.2124,4.08404619 2894.73478,2.8466752 2895.77925,1.80220125 C2896.82315,0.75917114 2898.05994,0.235923477 2899.48992,0.235923477 L2994.46544,0.235923477 C2995.8934,0.235923477 2997.13163,0.75917114 2998.17611,1.80220125 Z M3123.46544,63.5543773 C3124.89311,63.5543773 3126.13134,64.0761811 3127.17611,65.1218101 C3128.21971,66.1654178 3128.74267,67.4036551 3128.74267,68.831613 L3128.74267,79.3846405 C3128.74267,80.8137534 3128.21971,82.0519907 3127.17611,83.0944433 C3126.13134,84.139206 3124.89311,84.6630312 3123.46544,84.6630312 L3017.93632,84.6630312 C3016.50721,84.6630312 3015.27099,84.1389172 3014.22565,83.0944433 C3013.18118,82.0517019 3012.65937,80.8134647 3012.65937,79.3846405 L3012.65937,68.831613 C3012.65937,67.4033663 3013.18089,66.165129 3014.22565,65.1218101 C3015.27012,64.0773362 3016.50634,63.5543773 3017.93632,63.5543773 L3123.46544,63.5543773 Z M3127.17611,1.80220125 C3128.21971,2.8475415 3128.74239,4.08404619 3128.74267,5.51287038 L3128.74267,16.0664754 C3128.74267,17.4955884 3128.21971,18.7318043 3127.17611,19.7762783 C3126.13134,20.8201747 3124.89311,21.342556 3123.46544,21.342556 L3028.48992,21.342556 C3027.06081,21.342556 3025.82431,20.8204634 3024.77925,19.7762783 C3023.73478,18.7315155 3023.2124,17.4952996 3023.2124,16.0664754 L3023.2124,5.51287038 C3023.2124,4.08404619 3023.73478,2.8466752 3024.77925,1.80220125 C3025.82315,0.75917114 3027.05994,0.235923477 3028.48992,0.235923477 L3123.46544,0.235923477 C3124.8934,0.235923477 3126.13163,0.75917114 3127.17611,1.80220125 Z"></path>
                    <path d="M1441.64741,31.7891216 C1442.02589,31.7031921 1442.42027,31.6602376 1442.83055,31.6602376 L1569.46544,31.6602376 C1570.89311,31.6602376 1572.13134,32.1820414 1573.17611,33.2265154 C1574.21971,34.2707005 1574.74267,35.5063389 1574.74267,36.9363182 L1574.74267,47.4899232 C1574.74267,48.9184587 1574.21971,50.1561184 1573.17611,51.1991485 C1572.13134,52.2436225 1570.89311,52.7668701 1569.46544,52.7668701 L1442.83055,52.7668701 C1442.42023,52.7668701 1442.02592,52.723789 1441.64751,52.6376746 C1441.26915,52.723789 1440.87509,52.7668701 1440.46544,52.7668701 L1313.83055,52.7668701 C1313.04439,52.7668701 1312.31697,52.6087204 1311.64767,52.2927567 C1310.97796,52.6087204 1310.25033,52.7668701 1309.46544,52.7668701 L1182.83055,52.7668701 C1182.42023,52.7668701 1182.02592,52.723789 1181.64751,52.6376746 C1181.26915,52.723789 1180.87509,52.7668701 1180.46544,52.7668701 L1053.83055,52.7668701 C1053.23605,52.7668701 1052.67514,52.6764315 1052.14755,52.4956994 C1051.61978,52.6764315 1051.05898,52.7668701 1050.46544,52.7668701 L923.830552,52.7668701 C923.420235,52.7668701 923.025919,52.723789 922.647515,52.6376746 C922.26915,52.723789 921.875092,52.7668701 921.465438,52.7668701 L794.830552,52.7668701 C794.044393,52.7668701 793.316973,52.6087204 792.647668,52.2927567 C791.977961,52.6087204 791.250327,52.7668701 790.465438,52.7668701 L663.830552,52.7668701 C663.420235,52.7668701 663.025919,52.723789 662.647515,52.6376746 C662.26915,52.723789 661.875092,52.7668701 661.465438,52.7668701 L534.830552,52.7668701 C534.23605,52.7668701 533.675138,52.6764315 533.147547,52.4956994 C532.619779,52.6764315 532.05898,52.7668701 531.465438,52.7668701 L404.830552,52.7668701 C404.420235,52.7668701 404.025919,52.723789 403.647515,52.6376746 C403.26915,52.723789 402.875092,52.7668701 402.465438,52.7668701 L275.830552,52.7668701 C275.044393,52.7668701 274.316973,52.6087204 273.647668,52.2927567 C272.977961,52.6087204 272.250327,52.7668701 271.465438,52.7668701 L144.830552,52.7668701 C144.420235,52.7668701 144.025919,52.723789 143.647515,52.6376746 C143.26915,52.723789 142.875092,52.7668701 142.465438,52.7668701 L15.8305519,52.7668701 C14.4005727,52.7668701 13.1649343,52.2436225 12.1198828,51.1991485 C11.0754089,50.1561184 10.553605,48.9184587 10.553605,47.4899232 L10.553605,36.9363182 C10.553605,35.5072052 11.0754089,34.2704118 12.1198828,33.2265154 C13.1637792,32.1820414 14.4005727,31.6602376 15.8305519,31.6602376 L142.465438,31.6602376 C142.875056,31.6602376 143.269079,31.7031921 143.647413,31.7891216 C144.025894,31.7031921 144.420272,31.6602376 144.830552,31.6602376 L271.465438,31.6602376 C272.250235,31.6602376 272.97779,31.8179139 273.647432,32.1334105 C274.316795,31.8179139 275.044485,31.6602376 275.830552,31.6602376 L402.465438,31.6602376 C402.875056,31.6602376 403.269079,31.7031921 403.647413,31.7891216 C404.025894,31.7031921 404.420272,31.6602376 404.830552,31.6602376 L531.465438,31.6602376 C532.058914,31.6602376 532.619655,31.7504068 533.147372,31.9308074 C533.675063,31.7504068 534.236116,31.6602376 534.830552,31.6602376 L661.465438,31.6602376 C661.875056,31.6602376 662.269079,31.7031921 662.647413,31.7891216 C663.025894,31.7031921 663.420272,31.6602376 663.830552,31.6602376 L790.465438,31.6602376 C791.250235,31.6602376 791.97779,31.8179139 792.647432,32.1334105 C793.316795,31.8179139 794.044485,31.6602376 794.830552,31.6602376 L921.465438,31.6602376 C921.875056,31.6602376 922.269079,31.7031921 922.647413,31.7891216 C923.025894,31.7031921 923.420272,31.6602376 923.830552,31.6602376 L1050.46544,31.6602376 C1051.05891,31.6602376 1051.61966,31.7504068 1052.14737,31.9308074 C1052.67506,31.7504068 1053.23612,31.6602376 1053.83055,31.6602376 L1180.46544,31.6602376 C1180.87506,31.6602376 1181.26908,31.7031921 1181.64741,31.7891216 C1182.02589,31.7031921 1182.42027,31.6602376 1182.83055,31.6602376 L1309.46544,31.6602376 C1310.25023,31.6602376 1310.97779,31.8179139 1311.64743,32.1334105 C1312.31679,31.8179139 1313.04449,31.6602376 1313.83055,31.6602376 L1440.46544,31.6602376 C1440.87506,31.6602376 1441.26908,31.7031921 1441.64741,31.7891216 Z M1440.46573,116.084169 L1309.46573,116.084169 L1180.46573,116.084169 L1050.46573,116.084169 L921.465727,116.084169 L790.465727,116.084169 L661.465727,116.084169 L531.465727,116.084169 L402.465727,116.084169 L271.465727,116.084169 L142.465727,116.084169 L5.27723567,116.084169 C3.84870025,116.084169 2.61190679,115.56121 1.56627777,114.518757 C0.522381359,113.47284 0,112.235757 0,110.806933 L0,100.253617 C0,98.8247927 0.522381359,97.5877105 1.565989,96.5441029 C2.61075172,95.4996289 3.84696764,94.9769588 5.27694691,94.9769588 L142.465438,94.9769588 L271.465438,94.9769588 L402.465438,94.9769588 L531.465438,94.9769588 L661.465438,94.9769588 L790.465438,94.9769588 L921.465438,94.9769588 L1050.46544,94.9769588 L1180.46544,94.9769588 L1309.46544,94.9769588 L1440.46544,94.9769588 L1569.46544,94.9769588 C1570.89311,94.9769588 1572.13134,95.4993401 1573.1764,96.5438141 C1574.22,97.5877105 1574.74296,98.8247927 1574.74296,100.253617 L1574.74296,110.806933 C1574.74296,112.236046 1574.22,113.473128 1573.1764,114.518757 C1572.13163,115.56121 1570.8934,116.084169 1569.46573,116.084169 L1440.46573,116.084169 Z M142.465438,63.3184538 C143.893107,63.3184538 145.131345,63.8402576 146.176107,64.8858866 C147.219715,65.9294943 147.742674,67.1677316 147.742674,68.5956895 L147.742674,79.148717 C147.742674,80.5778299 147.219715,81.8160672 146.176107,82.8585198 C145.131345,83.9032825 143.893107,84.4271077 142.465438,84.4271077 L36.9363182,84.4271077 C35.5072052,84.4271077 34.2709893,83.9029938 33.2256491,82.8585198 C32.1811751,81.8157785 31.6593713,80.5775412 31.6593713,79.148717 L31.6593713,68.5956895 C31.6593713,67.1674428 32.1808863,65.9292055 33.2256491,64.8858866 C34.270123,63.8414127 35.5063389,63.3184538 36.9363182,63.3184538 L142.465438,63.3184538 Z M146.176107,1.56627777 C147.219715,2.61161803 147.742385,3.84812271 147.742674,5.27694691 L147.742674,15.8305519 C147.742674,17.2596649 147.219715,18.4958808 146.176107,19.5403548 C145.131345,20.5842512 143.893107,21.1066325 142.465438,21.1066325 L47.4899232,21.1066325 C46.0608103,21.1066325 44.8243056,20.58454 43.7792541,19.5403548 C42.7347802,18.4955921 42.2123988,17.2593761 42.2123988,15.8305519 L42.2123988,5.27694691 C42.2123988,3.84812271 42.7347802,2.61075172 43.7792541,1.56627777 C44.8231505,0.523247663 46.059944,0 47.4899232,0 L142.465438,0 C143.893396,0 145.131633,0.523247663 146.176107,1.56627777 Z M271.465438,63.3184538 C272.893107,63.3184538 274.131345,63.8402576 275.176107,64.8858866 C276.219715,65.9294943 276.742674,67.1677316 276.742674,68.5956895 L276.742674,79.148717 C276.742674,80.5778299 276.219715,81.8160672 275.176107,82.8585198 C274.131345,83.9032825 272.893107,84.4271077 271.465438,84.4271077 L165.936318,84.4271077 C164.507205,84.4271077 163.270989,83.9029938 162.225649,82.8585198 C161.181175,81.8157785 160.659371,80.5775412 160.659371,79.148717 L160.659371,68.5956895 C160.659371,67.1674428 161.180886,65.9292055 162.225649,64.8858866 C163.270123,63.8414127 164.506339,63.3184538 165.936318,63.3184538 L271.465438,63.3184538 Z M275.176107,1.56627777 C276.219715,2.61161803 276.742385,3.84812271 276.742674,5.27694691 L276.742674,15.8305519 C276.742674,17.2596649 276.219715,18.4958808 275.176107,19.5403548 C274.131345,20.5842512 272.893107,21.1066325 271.465438,21.1066325 L176.489923,21.1066325 C175.06081,21.1066325 173.824306,20.58454 172.779254,19.5403548 C171.73478,18.4955921 171.212399,17.2593761 171.212399,15.8305519 L171.212399,5.27694691 C171.212399,3.84812271 171.73478,2.61075172 172.779254,1.56627777 C173.823151,0.523247663 175.059944,0 176.489923,0 L271.465438,0 C272.893396,0 274.131633,0.523247663 275.176107,1.56627777 Z M402.465438,63.3184538 C403.893107,63.3184538 405.131345,63.8402576 406.176107,64.8858866 C407.219715,65.9294943 407.742674,67.1677316 407.742674,68.5956895 L407.742674,79.148717 C407.742674,80.5778299 407.219715,81.8160672 406.176107,82.8585198 C405.131345,83.9032825 403.893107,84.4271077 402.465438,84.4271077 L296.936318,84.4271077 C295.507205,84.4271077 294.270989,83.9029938 293.225649,82.8585198 C292.181175,81.8157785 291.659371,80.5775412 291.659371,79.148717 L291.659371,68.5956895 C291.659371,67.1674428 292.180886,65.9292055 293.225649,64.8858866 C294.270123,63.8414127 295.506339,63.3184538 296.936318,63.3184538 L402.465438,63.3184538 Z M406.176107,1.56627777 C407.219715,2.61161803 407.742385,3.84812271 407.742674,5.27694691 L407.742674,15.8305519 C407.742674,17.2596649 407.219715,18.4958808 406.176107,19.5403548 C405.131345,20.5842512 403.893107,21.1066325 402.465438,21.1066325 L307.489923,21.1066325 C306.06081,21.1066325 304.824306,20.58454 303.779254,19.5403548 C302.73478,18.4955921 302.212399,17.2593761 302.212399,15.8305519 L302.212399,5.27694691 C302.212399,3.84812271 302.73478,2.61075172 303.779254,1.56627777 C304.823151,0.523247663 306.059944,0 307.489923,0 L402.465438,0 C403.893396,0 405.131633,0.523247663 406.176107,1.56627777 Z M531.465438,63.3184538 C532.893107,63.3184538 534.131345,63.8402576 535.176107,64.8858866 C536.219715,65.9294943 536.742674,67.1677316 536.742674,68.5956895 L536.742674,79.148717 C536.742674,80.5778299 536.219715,81.8160672 535.176107,82.8585198 C534.131345,83.9032825 532.893107,84.4271077 531.465438,84.4271077 L425.936318,84.4271077 C424.507205,84.4271077 423.270989,83.9029938 422.225649,82.8585198 C421.181175,81.8157785 420.659371,80.5775412 420.659371,79.148717 L420.659371,68.5956895 C420.659371,67.1674428 421.180886,65.9292055 422.225649,64.8858866 C423.270123,63.8414127 424.506339,63.3184538 425.936318,63.3184538 L531.465438,63.3184538 Z M535.176107,1.56627777 C536.219715,2.61161803 536.742385,3.84812271 536.742674,5.27694691 L536.742674,15.8305519 C536.742674,17.2596649 536.219715,18.4958808 535.176107,19.5403548 C534.131345,20.5842512 532.893107,21.1066325 531.465438,21.1066325 L436.489923,21.1066325 C435.06081,21.1066325 433.824306,20.58454 432.779254,19.5403548 C431.73478,18.4955921 431.212399,17.2593761 431.212399,15.8305519 L431.212399,5.27694691 C431.212399,3.84812271 431.73478,2.61075172 432.779254,1.56627777 C433.823151,0.523247663 435.059944,0 436.489923,0 L531.465438,0 C532.893396,0 534.131633,0.523247663 535.176107,1.56627777 Z M661.465438,63.3184538 C662.893107,63.3184538 664.131345,63.8402576 665.176107,64.8858866 C666.219715,65.9294943 666.742674,67.1677316 666.742674,68.5956895 L666.742674,79.148717 C666.742674,80.5778299 666.219715,81.8160672 665.176107,82.8585198 C664.131345,83.9032825 662.893107,84.4271077 661.465438,84.4271077 L555.936318,84.4271077 C554.507205,84.4271077 553.270989,83.9029938 552.225649,82.8585198 C551.181175,81.8157785 550.659371,80.5775412 550.659371,79.148717 L550.659371,68.5956895 C550.659371,67.1674428 551.180886,65.9292055 552.225649,64.8858866 C553.270123,63.8414127 554.506339,63.3184538 555.936318,63.3184538 L661.465438,63.3184538 Z M665.176107,1.56627777 C666.219715,2.61161803 666.742385,3.84812271 666.742674,5.27694691 L666.742674,15.8305519 C666.742674,17.2596649 666.219715,18.4958808 665.176107,19.5403548 C664.131345,20.5842512 662.893107,21.1066325 661.465438,21.1066325 L566.489923,21.1066325 C565.06081,21.1066325 563.824306,20.58454 562.779254,19.5403548 C561.73478,18.4955921 561.212399,17.2593761 561.212399,15.8305519 L561.212399,5.27694691 C561.212399,3.84812271 561.73478,2.61075172 562.779254,1.56627777 C563.823151,0.523247663 565.059944,0 566.489923,0 L661.465438,0 C662.893396,0 664.131633,0.523247663 665.176107,1.56627777 Z M790.465438,63.3184538 C791.893107,63.3184538 793.131345,63.8402576 794.176107,64.8858866 C795.219715,65.9294943 795.742674,67.1677316 795.742674,68.5956895 L795.742674,79.148717 C795.742674,80.5778299 795.219715,81.8160672 794.176107,82.8585198 C793.131345,83.9032825 791.893107,84.4271077 790.465438,84.4271077 L684.936318,84.4271077 C683.507205,84.4271077 682.270989,83.9029938 681.225649,82.8585198 C680.181175,81.8157785 679.659371,80.5775412 679.659371,79.148717 L679.659371,68.5956895 C679.659371,67.1674428 680.180886,65.9292055 681.225649,64.8858866 C682.270123,63.8414127 683.506339,63.3184538 684.936318,63.3184538 L790.465438,63.3184538 Z M794.176107,1.56627777 C795.219715,2.61161803 795.742385,3.84812271 795.742674,5.27694691 L795.742674,15.8305519 C795.742674,17.2596649 795.219715,18.4958808 794.176107,19.5403548 C793.131345,20.5842512 791.893107,21.1066325 790.465438,21.1066325 L695.489923,21.1066325 C694.06081,21.1066325 692.824306,20.58454 691.779254,19.5403548 C690.73478,18.4955921 690.212399,17.2593761 690.212399,15.8305519 L690.212399,5.27694691 C690.212399,3.84812271 690.73478,2.61075172 691.779254,1.56627777 C692.823151,0.523247663 694.059944,0 695.489923,0 L790.465438,0 C791.893396,0 793.131633,0.523247663 794.176107,1.56627777 Z M921.465438,63.3184538 C922.893107,63.3184538 924.131345,63.8402576 925.176107,64.8858866 C926.219715,65.9294943 926.742674,67.1677316 926.742674,68.5956895 L926.742674,79.148717 C926.742674,80.5778299 926.219715,81.8160672 925.176107,82.8585198 C924.131345,83.9032825 922.893107,84.4271077 921.465438,84.4271077 L815.936318,84.4271077 C814.507205,84.4271077 813.270989,83.9029938 812.225649,82.8585198 C811.181175,81.8157785 810.659371,80.5775412 810.659371,79.148717 L810.659371,68.5956895 C810.659371,67.1674428 811.180886,65.9292055 812.225649,64.8858866 C813.270123,63.8414127 814.506339,63.3184538 815.936318,63.3184538 L921.465438,63.3184538 Z M925.176107,1.56627777 C926.219715,2.61161803 926.742385,3.84812271 926.742674,5.27694691 L926.742674,15.8305519 C926.742674,17.2596649 926.219715,18.4958808 925.176107,19.5403548 C924.131345,20.5842512 922.893107,21.1066325 921.465438,21.1066325 L826.489923,21.1066325 C825.06081,21.1066325 823.824306,20.58454 822.779254,19.5403548 C821.73478,18.4955921 821.212399,17.2593761 821.212399,15.8305519 L821.212399,5.27694691 C821.212399,3.84812271 821.73478,2.61075172 822.779254,1.56627777 C823.823151,0.523247663 825.059944,0 826.489923,0 L921.465438,0 C922.893396,0 924.131633,0.523247663 925.176107,1.56627777 Z M1050.46544,63.3184538 C1051.89311,63.3184538 1053.13134,63.8402576 1054.17611,64.8858866 C1055.21971,65.9294943 1055.74267,67.1677316 1055.74267,68.5956895 L1055.74267,79.148717 C1055.74267,80.5778299 1055.21971,81.8160672 1054.17611,82.8585198 C1053.13134,83.9032825 1051.89311,84.4271077 1050.46544,84.4271077 L944.936318,84.4271077 C943.507205,84.4271077 942.270989,83.9029938 941.225649,82.8585198 C940.181175,81.8157785 939.659371,80.5775412 939.659371,79.148717 L939.659371,68.5956895 C939.659371,67.1674428 940.180886,65.9292055 941.225649,64.8858866 C942.270123,63.8414127 943.506339,63.3184538 944.936318,63.3184538 L1050.46544,63.3184538 Z M1054.17611,1.56627777 C1055.21971,2.61161803 1055.74239,3.84812271 1055.74267,5.27694691 L1055.74267,15.8305519 C1055.74267,17.2596649 1055.21971,18.4958808 1054.17611,19.5403548 C1053.13134,20.5842512 1051.89311,21.1066325 1050.46544,21.1066325 L955.489923,21.1066325 C954.06081,21.1066325 952.824306,20.58454 951.779254,19.5403548 C950.73478,18.4955921 950.212399,17.2593761 950.212399,15.8305519 L950.212399,5.27694691 C950.212399,3.84812271 950.73478,2.61075172 951.779254,1.56627777 C952.823151,0.523247663 954.059944,0 955.489923,0 L1050.46544,0 C1051.8934,0 1053.13163,0.523247663 1054.17611,1.56627777 Z M1180.46544,63.3184538 C1181.89311,63.3184538 1183.13134,63.8402576 1184.17611,64.8858866 C1185.21971,65.9294943 1185.74267,67.1677316 1185.74267,68.5956895 L1185.74267,79.148717 C1185.74267,80.5778299 1185.21971,81.8160672 1184.17611,82.8585198 C1183.13134,83.9032825 1181.89311,84.4271077 1180.46544,84.4271077 L1074.93632,84.4271077 C1073.50721,84.4271077 1072.27099,83.9029938 1071.22565,82.8585198 C1070.18118,81.8157785 1069.65937,80.5775412 1069.65937,79.148717 L1069.65937,68.5956895 C1069.65937,67.1674428 1070.18089,65.9292055 1071.22565,64.8858866 C1072.27012,63.8414127 1073.50634,63.3184538 1074.93632,63.3184538 L1180.46544,63.3184538 Z M1184.17611,1.56627777 C1185.21971,2.61161803 1185.74239,3.84812271 1185.74267,5.27694691 L1185.74267,15.8305519 C1185.74267,17.2596649 1185.21971,18.4958808 1184.17611,19.5403548 C1183.13134,20.5842512 1181.89311,21.1066325 1180.46544,21.1066325 L1085.48992,21.1066325 C1084.06081,21.1066325 1082.82431,20.58454 1081.77925,19.5403548 C1080.73478,18.4955921 1080.2124,17.2593761 1080.2124,15.8305519 L1080.2124,5.27694691 C1080.2124,3.84812271 1080.73478,2.61075172 1081.77925,1.56627777 C1082.82315,0.523247663 1084.05994,0 1085.48992,0 L1180.46544,0 C1181.8934,0 1183.13163,0.523247663 1184.17611,1.56627777 Z M1309.46544,63.3184538 C1310.89311,63.3184538 1312.13134,63.8402576 1313.17611,64.8858866 C1314.21971,65.9294943 1314.74267,67.1677316 1314.74267,68.5956895 L1314.74267,79.148717 C1314.74267,80.5778299 1314.21971,81.8160672 1313.17611,82.8585198 C1312.13134,83.9032825 1310.89311,84.4271077 1309.46544,84.4271077 L1203.93632,84.4271077 C1202.50721,84.4271077 1201.27099,83.9029938 1200.22565,82.8585198 C1199.18118,81.8157785 1198.65937,80.5775412 1198.65937,79.148717 L1198.65937,68.5956895 C1198.65937,67.1674428 1199.18089,65.9292055 1200.22565,64.8858866 C1201.27012,63.8414127 1202.50634,63.3184538 1203.93632,63.3184538 L1309.46544,63.3184538 Z M1313.17611,1.56627777 C1314.21971,2.61161803 1314.74239,3.84812271 1314.74267,5.27694691 L1314.74267,15.8305519 C1314.74267,17.2596649 1314.21971,18.4958808 1313.17611,19.5403548 C1312.13134,20.5842512 1310.89311,21.1066325 1309.46544,21.1066325 L1214.48992,21.1066325 C1213.06081,21.1066325 1211.82431,20.58454 1210.77925,19.5403548 C1209.73478,18.4955921 1209.2124,17.2593761 1209.2124,15.8305519 L1209.2124,5.27694691 C1209.2124,3.84812271 1209.73478,2.61075172 1210.77925,1.56627777 C1211.82315,0.523247663 1213.05994,0 1214.48992,0 L1309.46544,0 C1310.8934,0 1312.13163,0.523247663 1313.17611,1.56627777 Z M1440.46544,63.3184538 C1441.89311,63.3184538 1443.13134,63.8402576 1444.17611,64.8858866 C1445.21971,65.9294943 1445.74267,67.1677316 1445.74267,68.5956895 L1445.74267,79.148717 C1445.74267,80.5778299 1445.21971,81.8160672 1444.17611,82.8585198 C1443.13134,83.9032825 1441.89311,84.4271077 1440.46544,84.4271077 L1334.93632,84.4271077 C1333.50721,84.4271077 1332.27099,83.9029938 1331.22565,82.8585198 C1330.18118,81.8157785 1329.65937,80.5775412 1329.65937,79.148717 L1329.65937,68.5956895 C1329.65937,67.1674428 1330.18089,65.9292055 1331.22565,64.8858866 C1332.27012,63.8414127 1333.50634,63.3184538 1334.93632,63.3184538 L1440.46544,63.3184538 Z M1444.17611,1.56627777 C1445.21971,2.61161803 1445.74239,3.84812271 1445.74267,5.27694691 L1445.74267,15.8305519 C1445.74267,17.2596649 1445.21971,18.4958808 1444.17611,19.5403548 C1443.13134,20.5842512 1441.89311,21.1066325 1440.46544,21.1066325 L1345.48992,21.1066325 C1344.06081,21.1066325 1342.82431,20.58454 1341.77925,19.5403548 C1340.73478,18.4955921 1340.2124,17.2593761 1340.2124,15.8305519 L1340.2124,5.27694691 C1340.2124,3.84812271 1340.73478,2.61075172 1341.77925,1.56627777 C1342.82315,0.523247663 1344.05994,0 1345.48992,0 L1440.46544,0 C1441.8934,0 1443.13163,0.523247663 1444.17611,1.56627777 Z M1569.46544,63.3184538 C1570.89311,63.3184538 1572.13134,63.8402576 1573.17611,64.8858866 C1574.21971,65.9294943 1574.74267,67.1677316 1574.74267,68.5956895 L1574.74267,79.148717 C1574.74267,80.5778299 1574.21971,81.8160672 1573.17611,82.8585198 C1572.13134,83.9032825 1570.89311,84.4271077 1569.46544,84.4271077 L1463.93632,84.4271077 C1462.50721,84.4271077 1461.27099,83.9029938 1460.22565,82.8585198 C1459.18118,81.8157785 1458.65937,80.5775412 1458.65937,79.148717 L1458.65937,68.5956895 C1458.65937,67.1674428 1459.18089,65.9292055 1460.22565,64.8858866 C1461.27012,63.8414127 1462.50634,63.3184538 1463.93632,63.3184538 L1569.46544,63.3184538 Z M1573.17611,1.56627777 C1574.21971,2.61161803 1574.74239,3.84812271 1574.74267,5.27694691 L1574.74267,15.8305519 C1574.74267,17.2596649 1574.21971,18.4958808 1573.17611,19.5403548 C1572.13134,20.5842512 1570.89311,21.1066325 1569.46544,21.1066325 L1474.48992,21.1066325 C1473.06081,21.1066325 1471.82431,20.58454 1470.77925,19.5403548 C1469.73478,18.4955921 1469.2124,17.2593761 1469.2124,15.8305519 L1469.2124,5.27694691 C1469.2124,3.84812271 1469.73478,2.61075172 1470.77925,1.56627777 C1471.82315,0.523247663 1473.05994,0 1474.48992,0 L1569.46544,0 C1570.8934,0 1572.13163,0.523247663 1573.17611,1.56627777 Z"></path>
                </g>
            </g>
        </g>
    </g>
</svg>