<?xml version="1.0" encoding="UTF-8"?>
<svg width="3137px" height="117px" viewBox="0 0 3137 117" version="1.1" xmlns="http://www.w3.org/2000/svg" xmlns:xlink="http://www.w3.org/1999/xlink">
    <!-- Generator: Sketch 48.2 (47327) - http://www.bohemiancoding.com/sketch -->
    <title>PopRock</title>
    <desc>Created with Sketch.</desc>
    <defs></defs>
    <g id="DT_01_Home" stroke="none" stroke-width="1" fill="none" fill-rule="evenodd" transform="translate(-913.000000, -3473.000000)">
        <g id="Entdeckungen" transform="translate(855.000000, 2577.000000)" fill="#3949AB">
            <g id="Audio" transform="translate(0.000000, 266.000000)">
                <g id="PopRock" transform="translate(58.000000, 630.000000)">
                    <path d="M2742.31432,115.189516 C2741.19009,115.771466 2739.88056,116.107641 2738.41588,116.107641 C2738.41082,116.107641 2738.40576,116.107637 2738.4007,116.107628 C2738.39564,116.107637 2738.39058,116.107641 2738.38552,116.107641 C2736.92084,116.107641 2735.61131,115.771466 2734.48708,115.189516 C2733.08996,114.505862 2731.84538,113.453225 2730.9265,112.074896 L2717.9641,90.4709017 L2709.89861,101.416925 C2706.15392,106.313831 2698.66453,106.025777 2695.49595,100.840819 L2677.9247,71.1713337 L2662.65788,91.0470082 C2658.91318,95.9439135 2651.71185,95.367807 2648.54327,90.4709017 L2608.4007,24.8720736 L2568.25813,90.4709017 C2565.08955,95.367807 2557.88822,95.9439135 2554.14352,91.0470082 L2538.8767,71.1713337 L2521.30545,100.840819 C2518.13687,106.025777 2510.64748,106.313831 2506.90279,101.416925 L2498.8373,90.4709017 L2485.8749,112.074896 C2484.95602,113.453225 2483.71144,114.505862 2482.31432,115.189516 C2481.19009,115.771466 2479.88056,116.107641 2478.41588,116.107641 C2478.41082,116.107641 2478.40576,116.107637 2478.4007,116.107628 C2478.39564,116.107637 2478.39058,116.107641 2478.38552,116.107641 C2476.92084,116.107641 2475.61131,115.771466 2474.48708,115.189516 C2473.08996,114.505862 2471.84538,113.453225 2470.9265,112.074896 L2457.9641,90.4709017 L2449.89861,101.416925 C2446.15392,106.313831 2438.66453,106.025777 2435.49595,100.840819 L2417.9247,71.1713337 L2402.65788,91.0470082 C2398.91318,95.9439135 2391.71185,95.367807 2388.54327,90.4709017 L2348.4007,24.8720736 L2308.25813,90.4709017 C2305.08955,95.367807 2297.88822,95.9439135 2294.14352,91.0470082 L2278.8767,71.1713337 L2261.30545,100.840819 C2258.13687,106.025777 2250.64748,106.313831 2246.90279,101.416925 L2238.8373,90.4709017 L2225.8749,112.074896 C2224.95602,113.453225 2223.71144,114.505862 2222.31432,115.189516 C2221.19009,115.771466 2219.88056,116.107641 2218.41588,116.107641 C2218.41082,116.107641 2218.40576,116.107637 2218.4007,116.107628 C2218.39564,116.107637 2218.39058,116.107641 2218.38552,116.107641 C2216.92084,116.107641 2215.61131,115.771466 2214.48708,115.189516 C2213.08996,114.505862 2211.84538,113.453225 2210.9265,112.074896 L2197.9641,90.4709017 L2189.89861,101.416925 C2186.15392,106.313831 2178.66453,106.025777 2175.49595,100.840819 L2157.9247,71.1713337 L2142.65788,91.0470082 C2138.91318,95.9439135 2131.71185,95.367807 2128.54327,90.4709017 L2088.4007,24.8720736 L2048.25813,90.4709017 C2045.08955,95.367807 2037.88822,95.9439135 2034.14352,91.0470082 L2018.8767,71.1713337 L2001.30545,100.840819 C1998.13687,106.025777 1990.64748,106.313831 1986.90279,101.416925 L1978.8373,90.4709017 L1965.8749,112.074896 C1964.95602,113.453225 1963.71144,114.505862 1962.31432,115.189516 C1961.19009,115.771466 1959.88056,116.107641 1958.41588,116.107641 C1958.41082,116.107641 1958.40576,116.107637 1958.4007,116.107628 C1958.39564,116.107637 1958.39058,116.107641 1958.38552,116.107641 C1956.92084,116.107641 1955.61131,115.771466 1954.48708,115.189516 C1953.08996,114.505862 1951.84538,113.453225 1950.9265,112.074896 L1937.9641,90.4709017 L1929.89861,101.416925 C1926.15392,106.313831 1918.66453,106.025777 1915.49595,100.840819 L1897.9247,71.1713337 L1882.65788,91.0470082 C1878.91318,95.9439135 1871.71185,95.367807 1868.54327,90.4709017 L1828.4007,24.8720736 L1788.25813,90.4709017 C1785.08955,95.367807 1777.88822,95.9439135 1774.14352,91.0470082 L1758.8767,71.1713337 L1741.30545,100.840819 C1738.13687,106.025777 1730.64748,106.313831 1726.90279,101.416925 L1718.8373,90.4709017 L1705.8749,112.074896 C1704.95602,113.453225 1703.71144,114.505862 1702.31432,115.189516 C1701.19009,115.771466 1699.88056,116.107641 1698.41588,116.107641 C1698.41082,116.107641 1698.40576,116.107637 1698.4007,116.107628 C1698.39564,116.107637 1698.39058,116.107641 1698.38552,116.107641 C1696.92084,116.107641 1695.61131,115.771466 1694.48708,115.189516 C1693.08996,114.505862 1691.84538,113.453225 1690.9265,112.074896 L1677.9641,90.4709017 L1669.89861,101.416925 C1666.15392,106.313831 1658.66453,106.025777 1655.49595,100.840819 L1637.9247,71.1713337 L1622.65788,91.0470082 C1618.91318,95.9439135 1611.71185,95.367807 1608.54327,90.4709017 L1561.30253,13.2726298 C1558.71005,9.23988421 1560.15032,4.05492565 1564.18307,1.46244637 C1568.21581,-1.13003291 1573.40077,0.310233354 1575.99325,4.3429789 L1616.60876,70.5952272 L1631.87558,50.7195527 C1635.62027,45.8226474 1642.8216,46.1107007 1645.99019,51.2956592 L1663.56144,80.6770911 L1671.62693,70.0191207 C1675.37162,65.1222154 1682.86101,65.4102687 1686.02959,70.5952272 L1698.4007,91.1530984 L1710.77181,70.5952272 C1713.94039,65.4102687 1721.42978,65.1222154 1725.17447,70.0191207 L1733.23996,80.6770911 L1750.81121,51.2956592 C1753.9798,46.1107007 1761.18113,45.8226474 1764.92582,50.7195527 L1780.19264,70.5952272 L1820.80815,4.3429789 C1822.54839,1.63593934 1825.45679,0.0970612026 1828.4007,0.161980851 C1831.34461,0.0970612026 1834.25301,1.63593934 1835.99325,4.3429789 L1876.60876,70.5952272 L1891.87558,50.7195527 C1895.62027,45.8226474 1902.8216,46.1107007 1905.99019,51.2956592 L1923.56144,80.6770911 L1931.62693,70.0191207 C1935.37162,65.1222154 1942.86101,65.4102687 1946.02959,70.5952272 L1958.4007,91.1530984 L1970.77181,70.5952272 C1973.94039,65.4102687 1981.42978,65.1222154 1985.17447,70.0191207 L1993.23996,80.6770911 L2010.81121,51.2956592 C2013.9798,46.1107007 2021.18113,45.8226474 2024.92582,50.7195527 L2040.19264,70.5952272 L2080.80815,4.3429789 C2082.54839,1.63593934 2085.45679,0.0970612026 2088.4007,0.161980851 C2091.34461,0.0970612026 2094.25301,1.63593934 2095.99325,4.3429789 L2136.60876,70.5952272 L2151.87558,50.7195527 C2155.62027,45.8226474 2162.8216,46.1107007 2165.99019,51.2956592 L2183.56144,80.6770911 L2191.62693,70.0191207 C2195.37162,65.1222154 2202.86101,65.4102687 2206.02959,70.5952272 L2218.4007,91.1530984 L2230.77181,70.5952272 C2233.94039,65.4102687 2241.42978,65.1222154 2245.17447,70.0191207 L2253.23996,80.6770911 L2270.81121,51.2956592 C2273.9798,46.1107007 2281.18113,45.8226474 2284.92582,50.7195527 L2300.19264,70.5952272 L2340.80815,4.3429789 C2342.54839,1.63593934 2345.45679,0.0970612026 2348.4007,0.161980851 C2351.34461,0.0970612026 2354.25301,1.63593934 2355.99325,4.3429789 L2396.60876,70.5952272 L2411.87558,50.7195527 C2415.62027,45.8226474 2422.8216,46.1107007 2425.99019,51.2956592 L2443.56144,80.6770911 L2451.62693,70.0191207 C2455.37162,65.1222154 2462.86101,65.4102687 2466.02959,70.5952272 L2478.4007,91.1530984 L2490.77181,70.5952272 C2493.94039,65.4102687 2501.42978,65.1222154 2505.17447,70.0191207 L2513.23996,80.6770911 L2530.81121,51.2956592 C2533.9798,46.1107007 2541.18113,45.8226474 2544.92582,50.7195527 L2560.19264,70.5952272 L2600.80815,4.3429789 C2602.54839,1.63593934 2605.45679,0.0970612026 2608.4007,0.161980851 C2611.34461,0.0970612026 2614.25301,1.63593934 2615.99325,4.3429789 L2656.60876,70.5952272 L2671.87558,50.7195527 C2675.62027,45.8226474 2682.8216,46.1107007 2685.99019,51.2956592 L2703.56144,80.6770911 L2711.62693,70.0191207 C2715.37162,65.1222154 2722.86101,65.4102687 2726.02959,70.5952272 L2738.4007,91.1530984 L2750.77181,70.5952272 C2753.94039,65.4102687 2761.42978,65.1222154 2765.17447,70.0191207 L2773.23996,80.6770911 L2790.81121,51.2956592 C2793.9798,46.1107007 2801.18113,45.8226474 2804.92582,50.7195527 L2820.19264,70.5952272 L2860.80815,4.3429789 C2862.54839,1.63593934 2865.45679,0.0970612026 2868.4007,0.161980851 C2871.34461,0.0970612026 2874.25301,1.63593934 2875.99325,4.3429789 L2916.60876,70.5952272 L2931.87558,50.7195527 C2935.62027,45.8226474 2942.8216,46.1107007 2945.99019,51.2956592 L2963.56144,80.6770911 L2971.62693,70.0191207 C2975.37162,65.1222154 2982.86101,65.4102687 2986.02959,70.5952272 L2998.4007,91.1530984 L3010.77181,70.5952272 C3013.94039,65.4102687 3021.42978,65.1222154 3025.17447,70.0191207 L3033.23996,80.6770911 L3050.81121,51.2956592 C3053.9798,46.1107007 3061.18113,45.8226474 3064.92582,50.7195527 L3080.19264,70.5952272 L3120.80815,4.3429789 C3123.40063,0.310233354 3128.58559,-1.13003291 3132.61833,1.46244637 C3136.65108,4.05492565 3138.09135,9.23988421 3135.49887,13.2726298 L3088.25813,90.4709017 C3085.08955,95.367807 3077.88822,95.9439135 3074.14352,91.0470082 L3058.8767,71.1713337 L3041.30545,100.840819 C3038.13687,106.025777 3030.64748,106.313831 3026.90279,101.416925 L3018.8373,90.4709017 L3005.8749,112.074896 C3004.95602,113.453225 3003.71144,114.505862 3002.31432,115.189516 C3001.19009,115.771466 2999.88056,116.107641 2998.41588,116.107641 C2998.41082,116.107641 2998.40576,116.107637 2998.4007,116.107628 C2998.39564,116.107637 2998.39058,116.107641 2998.38552,116.107641 C2996.92084,116.107641 2995.61131,115.771466 2994.48708,115.189516 C2993.08996,114.505862 2991.84538,113.453225 2990.9265,112.074896 L2977.9641,90.4709017 L2969.89861,101.416925 C2966.15392,106.313831 2958.66453,106.025777 2955.49595,100.840819 L2937.9247,71.1713337 L2922.65788,91.0470082 C2918.91318,95.9439135 2911.71185,95.367807 2908.54327,90.4709017 L2868.4007,24.8720736 L2828.25813,90.4709017 C2825.08955,95.367807 2817.88822,95.9439135 2814.14352,91.0470082 L2798.8767,71.1713337 L2781.30545,100.840819 C2778.13687,106.025777 2770.64748,106.313831 2766.90279,101.416925 L2758.8373,90.4709017 L2745.8749,112.074896 C2744.95602,113.453225 2743.71144,114.505862 2742.31432,115.189516 Z"></path>
                    <path d="M1182.31423,115.02951 C1181.19,115.61146 1179.88047,115.947635 1178.41579,115.947635 C1178.41073,115.947635 1178.40567,115.947631 1178.40061,115.947622 C1178.39555,115.947631 1178.39049,115.947635 1178.38543,115.947635 C1176.92074,115.947635 1175.61122,115.61146 1174.48698,115.02951 C1173.08987,114.345856 1171.84529,113.293219 1170.9264,111.914889 L1157.96401,90.3108954 L1149.89852,101.256919 C1146.15382,106.153824 1138.66444,105.865771 1135.49585,100.680813 L1117.92461,71.0113274 L1102.65778,90.8870019 C1098.91309,95.7839072 1091.71176,95.2078007 1088.54317,90.3108954 L1048.40061,24.7120672 L1008.25804,90.3108954 C1005.08945,95.2078007 997.888124,95.7839072 994.143431,90.8870019 L978.876609,71.0113274 L961.30536,100.680813 C958.136775,105.865771 950.64739,106.153824 946.902698,101.256919 L938.837207,90.3108954 L925.87481,111.914889 C924.955924,113.293219 923.711344,114.345856 922.314231,115.02951 C921.189997,115.61146 919.880472,115.947635 918.415789,115.947635 C918.410728,115.947635 918.405668,115.947631 918.400607,115.947622 C918.395547,115.947631 918.390486,115.947635 918.385426,115.947635 C916.920743,115.947635 915.611218,115.61146 914.486983,115.02951 C913.08987,114.345856 911.845291,113.293219 910.926404,111.914889 L897.964008,90.3108954 L889.898517,101.256919 C886.153824,106.153824 878.66444,105.865771 875.495854,100.680813 L857.924605,71.0113274 L842.657783,90.8870019 C838.913091,95.7839072 831.711759,95.2078007 828.543174,90.3108954 L788.400607,24.7120672 L748.258041,90.3108954 C745.089455,95.2078007 737.888124,95.7839072 734.143431,90.8870019 L718.876609,71.0113274 L701.30536,100.680813 C698.136775,105.865771 690.64739,106.153824 686.902698,101.256919 L678.837207,90.3108954 L665.87481,111.914889 C664.955924,113.293219 663.711344,114.345856 662.314231,115.02951 C661.189997,115.61146 659.880472,115.947635 658.415789,115.947635 C658.410728,115.947635 658.405668,115.947631 658.400607,115.947622 C658.395547,115.947631 658.390486,115.947635 658.385426,115.947635 C656.920743,115.947635 655.611218,115.61146 654.486983,115.02951 C653.08987,114.345856 651.845291,113.293219 650.926404,111.914889 L637.964008,90.3108954 L629.898517,101.256919 C626.153824,106.153824 618.66444,105.865771 615.495854,100.680813 L597.924605,71.0113274 L582.657783,90.8870019 C578.913091,95.7839072 571.711759,95.2078007 568.543174,90.3108954 L528.400607,24.7120672 L488.258041,90.3108954 C485.089455,95.2078007 477.888124,95.7839072 474.143431,90.8870019 L458.876609,71.0113274 L441.30536,100.680813 C438.136775,105.865771 430.64739,106.153824 426.902698,101.256919 L418.837207,90.3108954 L405.87481,111.914889 C404.955924,113.293219 403.711344,114.345856 402.314231,115.02951 C401.189997,115.61146 399.880472,115.947635 398.415789,115.947635 C398.410728,115.947635 398.405668,115.947631 398.400607,115.947622 C398.395547,115.947631 398.390486,115.947635 398.385426,115.947635 C396.920743,115.947635 395.611218,115.61146 394.486983,115.02951 C393.08987,114.345856 391.845291,113.293219 390.926404,111.914889 L377.964008,90.3108954 L369.898517,101.256919 C366.153824,106.153824 358.66444,105.865771 355.495854,100.680813 L337.924605,71.0113274 L322.657783,90.8870019 C318.913091,95.7839072 311.711759,95.2078007 308.543174,90.3108954 L268.400607,24.7120672 L228.258041,90.3108954 C225.089455,95.2078007 217.888124,95.7839072 214.143431,90.8870019 L198.876609,71.0113274 L181.30536,100.680813 C178.136775,105.865771 170.64739,106.153824 166.902698,101.256919 L158.837207,90.3108954 L145.87481,111.914889 C144.955924,113.293219 143.711344,114.345856 142.314231,115.02951 C141.189997,115.61146 139.880472,115.947635 138.415789,115.947635 C138.410728,115.947635 138.405668,115.947631 138.400607,115.947622 C138.395547,115.947631 138.390486,115.947635 138.385426,115.947635 C136.920743,115.947635 135.611218,115.61146 134.486983,115.02951 C133.08987,114.345856 131.845291,113.293219 130.926404,111.914889 L117.964008,90.3108954 L109.898517,101.256919 C106.153824,106.153824 98.6644397,105.865771 95.4958539,100.680813 L77.9246055,71.0113274 L62.657783,90.8870019 C58.9130907,95.7839072 51.7117594,95.2078007 48.5431736,90.3108954 L1.30244004,13.1126234 C-1.29003924,9.07987789 0.150227027,3.89491932 4.18297258,1.30244004 C8.21571813,-1.29003924 13.4006767,0.150227027 15.993156,4.18297258 L56.6086647,70.4352209 L71.8754872,50.5595464 C75.6201795,45.6626411 82.8215108,45.9506943 85.9900966,51.1356529 L103.561345,80.5170848 L111.626836,69.8591144 C115.371528,64.9622091 122.860913,65.2502623 126.029499,70.4352209 L138.400607,90.9930921 L150.771715,70.4352209 C153.940301,65.2502623 161.429686,64.9622091 165.174378,69.8591144 L173.239869,80.5170848 L190.811118,51.1356529 C193.979703,45.9506943 201.181035,45.6626411 204.925727,50.5595464 L220.19255,70.4352209 L260.808058,4.18297258 C262.548298,1.47593302 265.456699,-0.0629451244 268.400607,0.00197452388 C271.344515,-0.0629451244 274.252916,1.47593302 275.993156,4.18297258 L316.608665,70.4352209 L331.875487,50.5595464 C335.620179,45.6626411 342.821511,45.9506943 345.990097,51.1356529 L363.561345,80.5170848 L371.626836,69.8591144 C375.371528,64.9622091 382.860913,65.2502623 386.029499,70.4352209 L398.400607,90.9930921 L410.771715,70.4352209 C413.940301,65.2502623 421.429686,64.9622091 425.174378,69.8591144 L433.239869,80.5170848 L450.811118,51.1356529 C453.979703,45.9506943 461.181035,45.6626411 464.925727,50.5595464 L480.19255,70.4352209 L520.808058,4.18297258 C522.548298,1.47593302 525.456699,-0.0629451244 528.400607,0.00197452388 C531.344515,-0.0629451244 534.252916,1.47593302 535.993156,4.18297258 L576.608665,70.4352209 L591.875487,50.5595464 C595.620179,45.6626411 602.821511,45.9506943 605.990097,51.1356529 L623.561345,80.5170848 L631.626836,69.8591144 C635.371528,64.9622091 642.860913,65.2502623 646.029499,70.4352209 L658.400607,90.9930921 L670.771715,70.4352209 C673.940301,65.2502623 681.429686,64.9622091 685.174378,69.8591144 L693.239869,80.5170848 L710.811118,51.1356529 C713.979703,45.9506943 721.181035,45.6626411 724.925727,50.5595464 L740.19255,70.4352209 L780.808058,4.18297258 C782.548298,1.47593302 785.456699,-0.0629451244 788.400607,0.00197452388 C791.344515,-0.0629451244 794.252916,1.47593302 795.993156,4.18297258 L836.608665,70.4352209 L851.875487,50.5595464 C855.620179,45.6626411 862.821511,45.9506943 865.990097,51.1356529 L883.561345,80.5170848 L891.626836,69.8591144 C895.371528,64.9622091 902.860913,65.2502623 906.029499,70.4352209 L918.400607,90.9930921 L930.771715,70.4352209 C933.940301,65.2502623 941.429686,64.9622091 945.174378,69.8591144 L953.239869,80.5170848 L970.811118,51.1356529 C973.979703,45.9506943 981.181035,45.6626411 984.925727,50.5595464 L1000.19255,70.4352209 L1040.80806,4.18297258 C1042.5483,1.47593302 1045.4567,-0.0629451244 1048.40061,0.00197452388 C1051.34452,-0.0629451244 1054.25292,1.47593302 1055.99316,4.18297258 L1096.60866,70.4352209 L1111.87549,50.5595464 C1115.62018,45.6626411 1122.82151,45.9506943 1125.9901,51.1356529 L1143.56135,80.5170848 L1151.62684,69.8591144 C1155.37153,64.9622091 1162.86091,65.2502623 1166.0295,70.4352209 L1178.40061,90.9930921 L1190.77172,70.4352209 C1193.9403,65.2502623 1201.42969,64.9622091 1205.17438,69.8591144 L1213.23987,80.5170848 L1230.81112,51.1356529 C1233.9797,45.9506943 1241.18103,45.6626411 1244.92573,50.5595464 L1260.19255,70.4352209 L1300.80806,4.18297258 C1302.5483,1.47593302 1305.4567,-0.0629451244 1308.40061,0.00197452388 C1311.34452,-0.0629451244 1314.25292,1.47593302 1315.99316,4.18297258 L1356.60866,70.4352209 L1371.87549,50.5595464 C1375.62018,45.6626411 1382.82151,45.9506943 1385.9901,51.1356529 L1403.56135,80.5170848 L1411.62684,69.8591144 C1415.37153,64.9622091 1422.86091,65.2502623 1426.0295,70.4352209 L1438.40061,90.9930921 L1450.77172,70.4352209 C1453.9403,65.2502623 1461.42969,64.9622091 1465.17438,69.8591144 L1473.23987,80.5170848 L1490.81112,51.1356529 C1493.9797,45.9506943 1501.18103,45.6626411 1504.92573,50.5595464 L1520.19255,70.4352209 L1560.80806,4.18297258 C1563.40054,0.150227027 1568.5855,-1.29003924 1572.61824,1.30244004 C1576.65099,3.89491932 1578.09125,9.07987789 1575.49877,13.1126234 L1528.25804,90.3108954 C1525.08945,95.2078007 1517.88812,95.7839072 1514.14343,90.8870019 L1498.87661,71.0113274 L1481.30536,100.680813 C1478.13677,105.865771 1470.64739,106.153824 1466.9027,101.256919 L1458.83721,90.3108954 L1445.87481,111.914889 C1444.95592,113.293219 1443.71134,114.345856 1442.31423,115.02951 C1441.19,115.61146 1439.88047,115.947635 1438.41579,115.947635 C1438.41073,115.947635 1438.40567,115.947631 1438.40061,115.947622 C1438.39555,115.947631 1438.39049,115.947635 1438.38543,115.947635 C1436.92074,115.947635 1435.61122,115.61146 1434.48698,115.02951 C1433.08987,114.345856 1431.84529,113.293219 1430.9264,111.914889 L1417.96401,90.3108954 L1409.89852,101.256919 C1406.15382,106.153824 1398.66444,105.865771 1395.49585,100.680813 L1377.92461,71.0113274 L1362.65778,90.8870019 C1358.91309,95.7839072 1351.71176,95.2078007 1348.54317,90.3108954 L1308.40061,24.7120672 L1268.25804,90.3108954 C1265.08945,95.2078007 1257.88812,95.7839072 1254.14343,90.8870019 L1238.87661,71.0113274 L1221.30536,100.680813 C1218.13677,105.865771 1210.64739,106.153824 1206.9027,101.256919 L1198.83721,90.3108954 L1185.87481,111.914889 C1184.95592,113.293219 1183.71134,114.345856 1182.31423,115.02951 Z"></path>
                </g>
            </g>
        </g>
    </g>
</svg>