<?xml version="1.0" encoding="UTF-8"?>
<svg width="3003px" height="156px" viewBox="0 0 3003 156" version="1.1" xmlns="http://www.w3.org/2000/svg" xmlns:xlink="http://www.w3.org/1999/xlink">
    <!-- Generator: Sketch 48.2 (47327) - http://www.bohemiancoding.com/sketch -->
    <title>Jazz</title>
    <desc>Created with Sketch.</desc>
    <defs></defs>
    <g id="DT_01_Home" stroke="none" stroke-width="1" fill="none" fill-rule="evenodd" transform="translate(-981.000000, -2843.000000)">
        <g id="Entdeckungen" transform="translate(981.000000, 2577.000000)" fill="#FDD835">
            <g id="Audio" transform="translate(0.000000, 266.000000)">
                <g id="Jazz">
                    <path d="M2715.15672,26.2324207 C2738.4106,8.37247073 2771.98539,10.0617939 2793.28727,31.3532619 C2807.61383,45.6684987 2830.91007,45.6571734 2845.22531,31.3532619 C2845.63751,30.9410596 2846.07336,30.5672274 2846.52846,30.2317652 C2846.77471,29.9287866 2847.03894,29.6354811 2847.32116,29.3532619 C2870.45884,6.22690611 2908.12694,6.20425542 2931.28727,29.3532619 C2945.61383,43.6684987 2968.91007,43.6571734 2983.22531,29.3532619 C2987.65352,24.9250517 2994.81113,24.9250517 2999.23934,29.3532619 C3003.66755,33.781472 3003.66755,40.9390904 2999.23934,45.3673006 C2987.67617,56.9304785 2972.46623,62.7177301 2957.25629,62.7177301 C2942.05767,62.7177301 2926.84773,56.9304785 2915.27323,45.3673006 C2900.93534,31.0407384 2877.63911,31.0520637 2863.3352,45.3673006 C2862.92299,45.7795029 2862.48714,46.1533351 2862.03204,46.4887972 C2861.7858,46.7917759 2861.52156,47.0850814 2861.23934,47.3673006 C2849.67617,58.9304785 2834.46623,64.7177301 2819.25629,64.7177301 C2804.05767,64.7177301 2788.84773,58.9304785 2777.27323,47.3673006 C2762.93534,33.0407384 2739.63911,33.0520637 2725.3352,47.3673006 C2724.45352,48.2489746 2723.46365,48.9551038 2722.40866,49.4856883 C2711.79677,57.6381485 2699.02653,61.7177301 2686.25629,61.7177301 C2671.05767,61.7177301 2655.84773,55.9304785 2644.27323,44.3673006 C2629.93534,30.0407384 2606.63911,30.0520637 2592.3352,44.3673006 C2592.00682,44.6956804 2591.66343,44.9997088 2591.30725,45.2793857 C2579.86555,56.2348007 2565.06092,61.7177301 2550.25629,61.7177301 C2535.05767,61.7177301 2519.84773,55.9304785 2508.27323,44.3673006 C2493.93534,30.0407384 2470.63911,30.0520637 2456.3352,44.3673006 C2455.45352,45.2489746 2454.46365,45.9551038 2453.40866,46.4856883 C2442.79677,54.6381485 2430.02653,58.7177301 2417.25629,58.7177301 C2402.05767,58.7177301 2386.84773,52.9304785 2375.27323,41.3673006 C2360.93534,27.0407384 2337.63911,27.0520637 2323.3352,41.3673006 C2322.92299,41.7795029 2322.48714,42.1533351 2322.03204,42.4887972 C2321.7858,42.7917759 2321.52156,43.0850814 2321.23934,43.3673006 C2309.67617,54.9304785 2294.46623,60.7177301 2279.25629,60.7177301 C2264.05767,60.7177301 2248.84773,54.9304785 2237.27323,43.3673006 C2222.93534,29.0407384 2199.63911,29.0520637 2185.3352,43.3673006 C2184.45352,44.2489746 2183.46365,44.9551038 2182.40866,45.4856883 C2171.79677,53.6381485 2159.02653,57.7177301 2146.25629,57.7177301 C2131.05767,57.7177301 2115.84773,51.9304785 2104.27323,40.3673006 C2089.93534,26.0407384 2066.63911,26.0520637 2052.3352,40.3673006 C2052.03237,40.6701302 2051.71677,40.9522504 2051.39016,41.2136611 C2051.34047,41.2652287 2051.2902,41.3164447 2051.23934,41.3673006 C2039.67617,52.9304785 2024.46623,58.7177301 2009.25629,58.7177301 C1994.05767,58.7177301 1978.84773,52.9304785 1967.27323,41.3673006 C1952.93534,27.0407384 1929.63911,27.0520637 1915.3352,41.3673006 C1914.45352,42.2489746 1913.46365,42.9551038 1912.40866,43.4856883 C1901.79677,51.6381485 1889.02653,55.7177301 1876.25629,55.7177301 C1861.05767,55.7177301 1845.84773,49.9304785 1834.27323,38.3673006 C1819.93534,24.0407384 1796.63911,24.0520637 1782.3352,38.3673006 C1781.92299,38.7795029 1781.48714,39.1533351 1781.03204,39.4887972 C1780.7858,39.7917759 1780.52156,40.0850814 1780.23934,40.3673006 C1768.67617,51.9304785 1753.46623,57.7177301 1738.25629,57.7177301 C1723.05767,57.7177301 1707.84773,51.9304785 1696.27323,40.3673006 C1681.93534,26.0407384 1658.63911,26.0520637 1644.3352,40.3673006 C1643.45352,41.2489746 1642.46365,41.9551038 1641.40866,42.4856883 C1630.79677,50.6381485 1618.02653,54.7177301 1605.25629,54.7177301 C1590.05767,54.7177301 1574.84773,48.9304785 1563.27323,37.3673006 C1548.93534,23.0407384 1525.63911,23.0520637 1511.3352,37.3673006 C1506.90699,41.7955107 1499.74937,41.7955107 1495.32116,37.3673006 C1490.89295,32.9390904 1490.89295,25.781472 1495.32116,21.3532619 C1518.45884,-1.77309389 1556.12694,-1.79574458 1579.28727,21.3532619 C1593.61383,35.6684987 1616.91007,35.6571734 1631.22531,21.3532619 C1632.10834,20.4702282 1633.09991,19.7632812 1634.15672,19.2324207 C1657.4106,1.37247073 1690.98539,3.06179393 1712.28727,24.3532619 C1726.61383,38.6684987 1749.91007,38.6571734 1764.22531,24.3532619 C1764.63751,23.9410596 1765.07336,23.5672274 1765.52846,23.2317652 C1765.77471,22.9287866 1766.03894,22.6354811 1766.32116,22.3532619 C1789.45884,-0.773093891 1827.12694,-0.795744583 1850.28727,22.3532619 C1864.61383,36.6684987 1887.91007,36.6571734 1902.22531,22.3532619 C1903.10834,21.4702282 1904.09991,20.7632812 1905.15672,20.2324207 C1928.4106,2.37247073 1961.98539,4.06179393 1983.28727,25.3532619 C1997.61383,39.6684987 2020.91007,39.6571734 2035.22531,25.3532619 C2035.52813,25.0504322 2035.84373,24.7683121 2036.17034,24.5069013 C2036.22003,24.4553337 2036.2703,24.4041178 2036.32116,24.3532619 C2059.45884,1.22690611 2097.12694,1.20425542 2120.28727,24.3532619 C2134.61383,38.6684987 2157.91007,38.6571734 2172.22531,24.3532619 C2173.10834,23.4702282 2174.09991,22.7632812 2175.15672,22.2324207 C2198.4106,4.37247073 2231.98539,6.06179393 2253.28727,27.3532619 C2267.61383,41.6684987 2290.91007,41.6571734 2305.22531,27.3532619 C2305.63751,26.9410596 2306.07336,26.5672274 2306.52846,26.2317652 C2306.77471,25.9287866 2307.03894,25.6354811 2307.32116,25.3532619 C2330.45884,2.22690611 2368.12694,2.20425542 2391.28727,25.3532619 C2405.61383,39.6684987 2428.91007,39.6571734 2443.22531,25.3532619 C2444.10834,24.4702282 2445.09991,23.7632812 2446.15672,23.2324207 C2469.4106,5.37247073 2502.98539,7.06179393 2524.28727,28.3532619 C2538.61383,42.6684987 2561.91007,42.6571734 2576.22531,28.3532619 C2576.55441,28.0241593 2576.89859,27.7195155 2577.2556,27.4393304 C2600.46207,5.23043167 2637.43615,5.51331999 2660.28727,28.3532619 C2674.61383,42.6684987 2697.91007,42.6571734 2712.22531,28.3532619 C2713.10834,27.4702282 2714.09991,26.7632812 2715.15672,26.2324207 Z M2715.1488,71.5377883 C2738.40297,53.6655564 2771.98297,55.3711751 2793.28727,76.6546444 C2807.61383,90.9698812 2830.91007,90.9585559 2845.22531,76.6546444 C2845.63751,76.2424421 2846.07336,75.8686099 2846.52846,75.5331477 C2846.77471,75.2301691 2847.03894,74.9368636 2847.32116,74.6546444 C2870.45884,51.5169633 2908.12694,51.5169633 2931.28727,74.6546444 C2945.61383,88.9698812 2968.91007,88.9585559 2983.22531,74.6546444 C2987.65352,70.2264342 2994.81113,70.2264342 2999.23934,74.6546444 C3003.66755,79.0828545 3003.66755,86.2404729 2999.23934,90.6686831 C2987.67617,102.231861 2972.46623,108.019113 2957.25629,108.019113 C2942.05767,108.019113 2926.84773,102.231861 2915.27323,90.6686831 C2900.93534,76.3421209 2877.63911,76.3534462 2863.3352,90.6686831 C2862.92299,91.0808853 2862.48714,91.4547176 2862.03204,91.7901797 C2861.7858,92.0931584 2861.52156,92.3864638 2861.23934,92.6686831 C2849.67617,104.231861 2834.46623,110.019113 2819.25629,110.019113 C2804.05767,110.019113 2788.84773,104.231861 2777.27323,92.6686831 C2762.93534,78.3421209 2739.63911,78.3534462 2725.3352,92.6686831 C2724.45352,93.550357 2723.46365,94.2564863 2722.40866,94.7870708 C2711.79677,102.939531 2699.02653,107.019113 2686.25629,107.019113 C2671.05767,107.019113 2655.84773,101.231861 2644.27323,89.6686831 C2629.93534,75.3421209 2606.63911,75.3534462 2592.3352,89.6686831 C2592.00682,89.9970629 2591.66343,90.3010913 2591.30725,90.5807682 C2579.86555,101.536183 2565.06092,107.019113 2550.25629,107.019113 C2535.05767,107.019113 2519.84773,101.231861 2508.27323,89.6686831 C2493.93534,75.3421209 2470.63911,75.3534462 2456.3352,89.6686831 C2455.45352,90.550357 2454.46365,91.2564863 2453.40866,91.7870708 C2442.79677,99.939531 2430.02653,104.019113 2417.25629,104.019113 C2402.05767,104.019113 2386.84773,98.2318609 2375.27323,86.6686831 C2360.93534,72.3421209 2337.63911,72.3534462 2323.3352,86.6686831 C2322.92299,87.0808853 2322.48714,87.4547176 2322.03204,87.7901797 C2321.7858,88.0931584 2321.52156,88.3864638 2321.23934,88.6686831 C2309.67617,100.231861 2294.46623,106.019113 2279.25629,106.019113 C2264.05767,106.019113 2248.84773,100.231861 2237.27323,88.6686831 C2222.93534,74.3421209 2199.63911,74.3534462 2185.3352,88.6686831 C2184.45352,89.550357 2183.46365,90.2564863 2182.40866,90.7870708 C2171.79677,98.939531 2159.02653,103.019113 2146.25629,103.019113 C2131.05767,103.019113 2115.84773,97.2318609 2104.27323,85.6686831 C2089.93534,71.3421209 2066.63911,71.3534462 2052.3352,85.6686831 C2052.03237,85.9715127 2051.71677,86.2536329 2051.39016,86.5150436 C2051.34047,86.5666112 2051.2902,86.6178271 2051.23934,86.6686831 C2039.67617,98.2318609 2024.46623,104.019113 2009.25629,104.019113 C1994.05767,104.019113 1978.84773,98.2318609 1967.27323,86.6686831 C1952.93534,72.3421209 1929.63911,72.3534462 1915.3352,86.6686831 C1914.45352,87.550357 1913.46365,88.2564863 1912.40866,88.7870708 C1901.79677,96.939531 1889.02653,101.019113 1876.25629,101.019113 C1861.05767,101.019113 1845.84773,95.2318609 1834.27323,83.6686831 C1819.93534,69.3421209 1796.63911,69.3534462 1782.3352,83.6686831 C1781.92299,84.0808853 1781.48714,84.4547176 1781.03204,84.7901797 C1780.7858,85.0931584 1780.52156,85.3864638 1780.23934,85.6686831 C1768.67617,97.2318609 1753.46623,103.019113 1738.25629,103.019113 C1723.05767,103.019113 1707.84773,97.2318609 1696.27323,85.6686831 C1681.93534,71.3421209 1658.63911,71.3534462 1644.3352,85.6686831 C1643.18509,86.8187907 1641.85087,87.6701891 1640.42817,88.2228781 C1630.01498,95.8840767 1617.63563,99.717729 1605.25629,99.717729 C1590.05767,99.717729 1574.84773,93.9304774 1563.27323,82.3672995 C1548.93534,68.0407373 1525.63911,68.0520627 1511.3352,82.3672995 C1506.90699,86.7955097 1499.74937,86.7955097 1495.32116,82.3672995 C1490.89295,77.9390894 1490.89295,70.781471 1495.32116,66.3532608 C1518.45884,43.2155797 1556.12694,43.2155797 1579.28727,66.3532608 C1593.61383,80.6684977 1616.91007,80.6571724 1631.22531,66.3532608 C1632.37462,65.2039501 1633.70779,64.3529349 1635.12938,63.8002151 C1658.33882,46.717033 1691.28059,48.6685095 1712.28727,69.6546444 C1726.61383,83.9698812 1749.91007,83.9585559 1764.22531,69.6546444 C1764.63751,69.2424421 1765.07336,68.8686099 1765.52846,68.5331477 C1765.77471,68.2301691 1766.03894,67.9368636 1766.32116,67.6546444 C1789.45884,44.5169633 1827.12694,44.5169633 1850.28727,67.6546444 C1864.61383,81.9698812 1887.91007,81.9585559 1902.22531,67.6546444 C1903.10613,66.7738185 1904.09495,66.0681998 1905.1488,65.5377883 C1928.40297,47.6655564 1961.98297,49.3711751 1983.28727,70.6546444 C1997.61383,84.9698812 2020.91007,84.9585559 2035.22531,70.6546444 C2035.52813,70.3518147 2035.84373,70.0696946 2036.17034,69.8082838 C2036.22003,69.7567162 2036.2703,69.7055003 2036.32116,69.6546444 C2059.45884,46.5169633 2097.12694,46.5169633 2120.28727,69.6546444 C2134.61383,83.9698812 2157.91007,83.9585559 2172.22531,69.6546444 C2173.10613,68.7738185 2174.09495,68.0681998 2175.1488,67.5377883 C2198.40297,49.6655564 2231.98297,51.3711751 2253.28727,72.6546444 C2267.61383,86.9698812 2290.91007,86.9585559 2305.22531,72.6546444 C2305.63751,72.2424421 2306.07336,71.8686099 2306.52846,71.5331477 C2306.77471,71.2301691 2307.03894,70.9368636 2307.32116,70.6546444 C2330.45884,47.5169633 2368.12694,47.5169633 2391.28727,70.6546444 C2405.61383,84.9698812 2428.91007,84.9585559 2443.22531,70.6546444 C2444.10613,69.7738185 2445.09495,69.0681998 2446.1488,68.5377883 C2469.40297,50.6655564 2502.98297,52.3711751 2524.28727,73.6546444 C2538.61383,87.9698812 2561.91007,87.9585559 2576.22531,73.6546444 C2576.55363,73.3263179 2576.89696,73.0223349 2577.25307,72.7426955 C2600.45939,50.5210655 2637.43533,50.8250484 2660.28727,73.6546444 C2674.61383,87.9698812 2697.91007,87.9585559 2712.22531,73.6546444 C2713.10613,72.7738185 2714.09495,72.0681998 2715.1488,71.5377883 Z M2715.1488,116.839171 C2738.40297,98.9669389 2771.98297,100.672558 2793.28727,121.956027 C2807.61383,136.271264 2830.91007,136.259938 2845.22531,121.956027 C2845.63751,121.543825 2846.07336,121.169992 2846.52846,120.83453 C2846.77471,120.531552 2847.03894,120.238246 2847.32116,119.956027 C2870.45884,96.8183457 2908.12694,96.8183457 2931.28727,119.956027 C2945.61383,134.271264 2968.91007,134.259938 2983.22531,119.956027 C2987.65352,115.527817 2994.81113,115.527817 2999.23934,119.956027 C3003.66755,124.384237 3003.66755,131.541855 2999.23934,135.970066 C2987.67617,147.533243 2972.46623,153.320495 2957.25629,153.320495 C2942.05767,153.320495 2926.84773,147.533243 2915.27323,135.970066 C2900.93534,121.643503 2877.63911,121.654829 2863.3352,135.970066 C2862.92299,136.382268 2862.48714,136.7561 2862.03204,137.091562 C2861.7858,137.394541 2861.52156,137.687846 2861.23934,137.970066 C2849.67617,149.533243 2834.46623,155.320495 2819.25629,155.320495 C2804.05767,155.320495 2788.84773,149.533243 2777.27323,137.970066 C2762.93534,123.643503 2739.63911,123.654829 2725.3352,137.970066 C2724.45352,138.85174 2723.46365,139.557869 2722.40866,140.088453 C2711.79677,148.240913 2699.02653,152.320495 2686.25629,152.320495 C2671.05767,152.320495 2655.84773,146.533243 2644.27323,134.970066 C2629.93534,120.643503 2606.63911,120.654829 2592.3352,134.970066 C2592.00682,135.298445 2591.66343,135.602474 2591.30725,135.882151 C2579.86555,146.837566 2565.06092,152.320495 2550.25629,152.320495 C2535.05767,152.320495 2519.84773,146.533243 2508.27323,134.970066 C2493.93534,120.643503 2470.63911,120.654829 2456.3352,134.970066 C2455.45352,135.85174 2454.46365,136.557869 2453.40866,137.088453 C2442.79677,145.240913 2430.02653,149.320495 2417.25629,149.320495 C2402.05767,149.320495 2386.84773,143.533243 2375.27323,131.970066 C2360.93534,117.643503 2337.63911,117.654829 2323.3352,131.970066 C2322.92299,132.382268 2322.48714,132.7561 2322.03204,133.091562 C2321.7858,133.394541 2321.52156,133.687846 2321.23934,133.970066 C2309.67617,145.533243 2294.46623,151.320495 2279.25629,151.320495 C2264.05767,151.320495 2248.84773,145.533243 2237.27323,133.970066 C2222.93534,119.643503 2199.63911,119.654829 2185.3352,133.970066 C2184.45352,134.85174 2183.46365,135.557869 2182.40866,136.088453 C2171.79677,144.240913 2159.02653,148.320495 2146.25629,148.320495 C2131.05767,148.320495 2115.84773,142.533243 2104.27323,130.970066 C2089.93534,116.643503 2066.63911,116.654829 2052.3352,130.970066 C2052.03237,131.272895 2051.71677,131.555015 2051.39016,131.816426 C2051.34047,131.867994 2051.2902,131.91921 2051.23934,131.970066 C2039.67617,143.533243 2024.46623,149.320495 2009.25629,149.320495 C1994.05767,149.320495 1978.84773,143.533243 1967.27323,131.970066 C1952.93534,117.643503 1929.63911,117.654829 1915.3352,131.970066 C1914.45352,132.85174 1913.46365,133.557869 1912.40866,134.088453 C1901.79677,142.240913 1889.02653,146.320495 1876.25629,146.320495 C1861.05767,146.320495 1845.84773,140.533243 1834.27323,128.970066 C1819.93534,114.643503 1796.63911,114.654829 1782.3352,128.970066 C1781.92299,129.382268 1781.48714,129.7561 1781.03204,130.091562 C1780.7858,130.394541 1780.52156,130.687846 1780.23934,130.970066 C1768.67617,142.533243 1753.46623,148.320495 1738.25629,148.320495 C1723.05767,148.320495 1707.84773,142.533243 1696.27323,130.970066 C1682.88785,117.595262 1661.69486,116.716602 1647.29975,128.306443 C1647.27971,128.326785 1647.25957,128.347071 1647.23934,128.3673 C1635.67617,139.930477 1620.46623,145.717729 1605.25629,145.717729 C1590.05767,145.717729 1574.84773,139.930477 1563.27323,128.3673 C1548.93534,114.040737 1525.63911,114.052063 1511.3352,128.3673 C1506.90699,132.79551 1499.74937,132.79551 1495.32116,128.3673 C1490.89295,123.939089 1490.89295,116.781471 1495.32116,112.353261 C1518.45884,89.2155797 1556.12694,89.2155797 1579.28727,112.353261 C1592.66838,125.723797 1613.87437,126.596275 1628.27903,114.998376 C1628.29302,114.984232 1628.30707,114.970116 1628.32116,114.956027 C1651.45884,91.8183457 1689.12694,91.8183457 1712.28727,114.956027 C1726.61383,129.271264 1749.91007,129.259938 1764.22531,114.956027 C1764.63751,114.543825 1765.07336,114.169992 1765.52846,113.83453 C1765.77471,113.531552 1766.03894,113.238246 1766.32116,112.956027 C1789.45884,89.8183457 1827.12694,89.8183457 1850.28727,112.956027 C1864.61383,127.271264 1887.91007,127.259938 1902.22531,112.956027 C1903.10613,112.075201 1904.09495,111.369582 1905.1488,110.839171 C1928.40297,92.9669389 1961.98297,94.6725576 1983.28727,115.956027 C1997.61383,130.271264 2020.91007,130.259938 2035.22531,115.956027 C2035.52813,115.653197 2035.84373,115.371077 2036.17034,115.109666 C2036.22003,115.058099 2036.2703,115.006883 2036.32116,114.956027 C2059.45884,91.8183457 2097.12694,91.8183457 2120.28727,114.956027 C2134.61383,129.271264 2157.91007,129.259938 2172.22531,114.956027 C2173.10613,114.075201 2174.09495,113.369582 2175.1488,112.839171 C2198.40297,94.9669389 2231.98297,96.6725576 2253.28727,117.956027 C2267.61383,132.271264 2290.91007,132.259938 2305.22531,117.956027 C2305.63751,117.543825 2306.07336,117.169992 2306.52846,116.83453 C2306.77471,116.531552 2307.03894,116.238246 2307.32116,115.956027 C2330.45884,92.8183457 2368.12694,92.8183457 2391.28727,115.956027 C2405.61383,130.271264 2428.91007,130.259938 2443.22531,115.956027 C2444.10613,115.075201 2445.09495,114.369582 2446.1488,113.839171 C2469.40297,95.9669389 2502.98297,97.6725576 2524.28727,118.956027 C2538.61383,133.271264 2561.91007,133.259938 2576.22531,118.956027 C2576.55363,118.6277 2576.89696,118.323717 2577.25307,118.044078 C2600.45939,95.822448 2637.43533,96.1264309 2660.28727,118.956027 C2674.61383,133.271264 2697.91007,133.259938 2712.22531,118.956027 C2713.10613,118.075201 2714.09495,117.369582 2715.1488,116.839171 Z"></path>
                    <path d="M1223.15672,22.2324207 C1246.4106,4.37247073 1279.98539,6.06179393 1301.28727,27.3532619 C1315.61383,41.6684987 1338.91007,41.6571734 1353.22531,27.3532619 C1353.63751,26.9410596 1354.07336,26.5672274 1354.52846,26.2317652 C1354.77471,25.9287866 1355.03894,25.6354811 1355.32116,25.3532619 C1378.45884,2.22690611 1416.12694,2.20425542 1439.28727,25.3532619 C1453.61383,39.6684987 1476.91007,39.6571734 1491.22531,25.3532619 C1495.65352,20.9250517 1502.81113,20.9250517 1507.23934,25.3532619 C1511.66755,29.781472 1511.66755,36.9390904 1507.23934,41.3673006 C1495.67617,52.9304785 1480.46623,58.7177301 1465.25629,58.7177301 C1450.05767,58.7177301 1434.84773,52.9304785 1423.27323,41.3673006 C1408.93534,27.0407384 1385.63911,27.0520637 1371.3352,41.3673006 C1370.92299,41.7795029 1370.48714,42.1533351 1370.03204,42.4887972 C1369.7858,42.7917759 1369.52156,43.0850814 1369.23934,43.3673006 C1357.67617,54.9304785 1342.46623,60.7177301 1327.25629,60.7177301 C1312.05767,60.7177301 1296.84773,54.9304785 1285.27323,43.3673006 C1270.93534,29.0407384 1247.63911,29.0520637 1233.3352,43.3673006 C1232.45352,44.2489746 1231.46365,44.9551038 1230.40866,45.4856883 C1219.79677,53.6381485 1207.02653,57.7177301 1194.25629,57.7177301 C1179.05767,57.7177301 1163.84773,51.9304785 1152.27323,40.3673006 C1137.93534,26.0407384 1114.63911,26.0520637 1100.3352,40.3673006 C1100.00682,40.6956804 1099.66343,40.9997088 1099.30725,41.2793857 C1087.86555,52.2348007 1073.06092,57.7177301 1058.25629,57.7177301 C1043.05767,57.7177301 1027.84773,51.9304785 1016.27323,40.3673006 C1001.93534,26.0407384 978.639108,26.0520637 964.335196,40.3673006 C963.453522,41.2489746 962.463648,41.9551038 961.40866,42.4856883 C950.79677,50.6381485 938.026529,54.7177301 925.256288,54.7177301 C910.057674,54.7177301 894.847735,48.9304785 883.273231,37.3673006 C868.935344,23.0407384 845.639108,23.0520637 831.335196,37.3673006 C830.922994,37.7795029 830.487142,38.1533351 830.032042,38.4887972 C829.785796,38.7917759 829.521563,39.0850814 829.239344,39.3673006 C817.676166,50.9304785 802.466227,56.7177301 787.256288,56.7177301 C772.057674,56.7177301 756.847735,50.9304785 745.273231,39.3673006 C730.935344,25.0407384 707.639108,25.0520637 693.335196,39.3673006 C692.453522,40.2489746 691.463648,40.9551038 690.40866,41.4856883 C679.79677,49.6381485 667.026529,53.7177301 654.256288,53.7177301 C639.057674,53.7177301 623.847735,47.9304785 612.273231,36.3673006 C597.935344,22.0407384 574.639108,22.0520637 560.335196,36.3673006 C560.032367,36.6701302 559.716772,36.9522504 559.390159,37.2136611 C559.340472,37.2652287 559.2902,37.3164447 559.239344,37.3673006 C547.676166,48.9304785 532.466227,54.7177301 517.256288,54.7177301 C502.057674,54.7177301 486.847735,48.9304785 475.273231,37.3673006 C460.935344,23.0407384 437.639108,23.0520637 423.335196,37.3673006 C422.453522,38.2489746 421.463648,38.9551038 420.40866,39.4856883 C409.79677,47.6381485 397.026529,51.7177301 384.256288,51.7177301 C369.057674,51.7177301 353.847735,45.9304785 342.273231,34.3673006 C327.935344,20.0407384 304.639108,20.0520637 290.335196,34.3673006 C289.922994,34.7795029 289.487142,35.1533351 289.032042,35.4887972 C288.785796,35.7917759 288.521563,36.0850814 288.239344,36.3673006 C276.676166,47.9304785 261.466227,53.7177301 246.256288,53.7177301 C231.057674,53.7177301 215.847735,47.9304785 204.273231,36.3673006 C189.935344,22.0407384 166.639108,22.0520637 152.335196,36.3673006 C151.453522,37.2489746 150.463648,37.9551038 149.40866,38.4856883 C138.79677,46.6381485 126.026529,50.7177301 113.256288,50.7177301 C98.0576737,50.7177301 82.8477346,44.9304785 71.2732313,33.3673006 C56.9353438,19.0407384 33.6391078,19.0520637 19.3351963,33.3673006 C14.9069862,37.7955107 7.74936774,37.7955107 3.3211576,33.3673006 C-1.10705253,28.9390904 -1.10705253,21.781472 3.3211576,17.3532619 C26.4588387,-5.77309389 64.1269382,-5.79574458 87.28727,17.3532619 C101.613832,31.6684987 124.910068,31.6571734 139.225305,17.3532619 C140.108339,16.4702282 141.099907,15.7632812 142.156723,15.2324207 C165.410604,-2.62752927 198.985386,-0.938206071 220.28727,20.3532619 C234.613832,34.6684987 257.910068,34.6571734 272.225305,20.3532619 C272.637507,19.9410596 273.07336,19.5672274 273.528459,19.2317652 C273.774706,18.9287866 274.038938,18.6354811 274.321158,18.3532619 C297.458839,-4.77309389 335.126938,-4.79574458 358.28727,18.3532619 C372.613832,32.6684987 395.910068,32.6571734 410.225305,18.3532619 C411.108339,17.4702282 412.099907,16.7632812 413.156723,16.2324207 C436.410604,-1.62752927 469.985386,0.0617939287 491.28727,21.3532619 C505.613832,35.6684987 528.910068,35.6571734 543.225305,21.3532619 C543.528135,21.0504322 543.843729,20.7683121 544.170342,20.5069013 C544.22003,20.4553337 544.270302,20.4041178 544.321158,20.3532619 C567.458839,-2.77309389 605.126938,-2.79574458 628.28727,20.3532619 C642.613832,34.6684987 665.910068,34.6571734 680.225305,20.3532619 C681.108339,19.4702282 682.099907,18.7632812 683.156723,18.2324207 C706.410604,0.372470733 739.985386,2.06179393 761.28727,23.3532619 C775.613832,37.6684987 798.910068,37.6571734 813.225305,23.3532619 C813.637507,22.9410596 814.07336,22.5672274 814.528459,22.2317652 C814.774706,21.9287866 815.038938,21.6354811 815.321158,21.3532619 C838.458839,-1.77309389 876.126938,-1.79574458 899.28727,21.3532619 C913.613832,35.6684987 936.910068,35.6571734 951.225305,21.3532619 C952.108339,20.4702282 953.099907,19.7632812 954.156723,19.2324207 C977.410604,1.37247073 1010.98539,3.06179393 1032.28727,24.3532619 C1046.61383,38.6684987 1069.91007,38.6571734 1084.22531,24.3532619 C1084.55441,24.0241593 1084.89859,23.7195155 1085.2556,23.4393304 C1108.46207,1.23043167 1145.43615,1.51331999 1168.28727,24.3532619 C1182.61383,38.6684987 1205.91007,38.6571734 1220.22531,24.3532619 C1221.10834,23.4702282 1222.09991,22.7632812 1223.15672,22.2324207 Z M1223.1488,67.5377883 C1246.40297,49.6655564 1279.98297,51.3711751 1301.28727,72.6546444 C1315.61383,86.9698812 1338.91007,86.9585559 1353.22531,72.6546444 C1353.63751,72.2424421 1354.07336,71.8686099 1354.52846,71.5331477 C1354.77471,71.2301691 1355.03894,70.9368636 1355.32116,70.6546444 C1378.45884,47.5169633 1416.12694,47.5169633 1439.28727,70.6546444 C1453.61383,84.9698812 1476.91007,84.9585559 1491.22531,70.6546444 C1495.65352,66.2264342 1502.81113,66.2264342 1507.23934,70.6546444 C1511.66755,75.0828545 1511.66755,82.2404729 1507.23934,86.6686831 C1495.67617,98.2318609 1480.46623,104.019113 1465.25629,104.019113 C1450.05767,104.019113 1434.84773,98.2318609 1423.27323,86.6686831 C1408.93534,72.3421209 1385.63911,72.3534462 1371.3352,86.6686831 C1370.92299,87.0808853 1370.48714,87.4547176 1370.03204,87.7901797 C1369.7858,88.0931584 1369.52156,88.3864638 1369.23934,88.6686831 C1357.67617,100.231861 1342.46623,106.019113 1327.25629,106.019113 C1312.05767,106.019113 1296.84773,100.231861 1285.27323,88.6686831 C1270.93534,74.3421209 1247.63911,74.3534462 1233.3352,88.6686831 C1232.45352,89.550357 1231.46365,90.2564863 1230.40866,90.7870708 C1219.79677,98.939531 1207.02653,103.019113 1194.25629,103.019113 C1179.05767,103.019113 1163.84773,97.2318609 1152.27323,85.6686831 C1137.93534,71.3421209 1114.63911,71.3534462 1100.3352,85.6686831 C1100.00682,85.9970629 1099.66343,86.3010913 1099.30725,86.5807682 C1087.86555,97.5361831 1073.06092,103.019113 1058.25629,103.019113 C1043.05767,103.019113 1027.84773,97.2318609 1016.27323,85.6686831 C1001.93534,71.3421209 978.639108,71.3534462 964.335196,85.6686831 C963.453522,86.550357 962.463648,87.2564863 961.40866,87.7870708 C950.79677,95.939531 938.026529,100.019113 925.256288,100.019113 C910.057674,100.019113 894.847735,94.2318609 883.273231,82.6686831 C868.935344,68.3421209 845.639108,68.3534462 831.335196,82.6686831 C830.922994,83.0808853 830.487142,83.4547176 830.032042,83.7901797 C829.785796,84.0931584 829.521563,84.3864638 829.239344,84.6686831 C817.676166,96.2318609 802.466227,102.019113 787.256288,102.019113 C772.057674,102.019113 756.847735,96.2318609 745.273231,84.6686831 C730.935344,70.3421209 707.639108,70.3534462 693.335196,84.6686831 C692.453522,85.550357 691.463648,86.2564863 690.40866,86.7870708 C679.79677,94.939531 667.026529,99.0191126 654.256288,99.0191126 C639.057674,99.0191126 623.847735,93.2318609 612.273231,81.6686831 C597.935344,67.3421209 574.639108,67.3534462 560.335196,81.6686831 C560.032367,81.9715127 559.716772,82.2536329 559.390159,82.5150436 C559.340472,82.5666112 559.2902,82.6178271 559.239344,82.6686831 C547.676166,94.2318609 532.466227,100.019113 517.256288,100.019113 C502.057674,100.019113 486.847735,94.2318609 475.273231,82.6686831 C460.935344,68.3421209 437.639108,68.3534462 423.335196,82.6686831 C422.453522,83.550357 421.463648,84.2564863 420.40866,84.7870708 C409.79677,92.939531 397.026529,97.0191126 384.256288,97.0191126 C369.057674,97.0191126 353.847735,91.2318609 342.273231,79.6686831 C327.935344,65.3421209 304.639108,65.3534462 290.335196,79.6686831 C289.922994,80.0808853 289.487142,80.4547176 289.032042,80.7901797 C288.785796,81.0931584 288.521563,81.3864638 288.239344,81.6686831 C276.676166,93.2318609 261.466227,99.0191126 246.256288,99.0191126 C231.057674,99.0191126 215.847735,93.2318609 204.273231,81.6686831 C189.935344,67.3421209 166.639108,67.3534462 152.335196,81.6686831 C151.185089,82.8187907 149.850866,83.6701891 148.428166,84.2228781 C138.014977,91.8840767 125.635632,95.717729 113.256288,95.717729 C98.0576737,95.717729 82.8477346,89.9304774 71.2732313,78.3672995 C56.9353438,64.0407373 33.6391078,64.0520627 19.3351963,78.3672995 C14.9069862,82.7955097 7.74936774,82.7955097 3.3211576,78.3672995 C-1.10705253,73.9390894 -1.10705253,66.781471 3.3211576,62.3532608 C26.4588387,39.2155797 64.1269382,39.2155797 87.28727,62.3532608 C101.613832,76.6684977 124.910068,76.6571724 139.225305,62.3532608 C140.374616,61.2039501 141.707786,60.3529349 143.129378,59.8002151 C166.338817,42.717033 199.280591,44.6685095 220.28727,65.6546444 C234.613832,79.9698812 257.910068,79.9585559 272.225305,65.6546444 C272.637507,65.2424421 273.07336,64.8686099 273.528459,64.5331477 C273.774706,64.2301691 274.038938,63.9368636 274.321158,63.6546444 C297.458839,40.5169633 335.126938,40.5169633 358.28727,63.6546444 C372.613832,77.9698812 395.910068,77.9585559 410.225305,63.6546444 C411.106131,62.7738185 412.094949,62.0681998 413.148797,61.5377883 C436.402975,43.6655564 469.982965,45.3711751 491.28727,66.6546444 C505.613832,80.9698812 528.910068,80.9585559 543.225305,66.6546444 C543.528135,66.3518147 543.843729,66.0696946 544.170342,65.8082838 C544.22003,65.7567162 544.270302,65.7055003 544.321158,65.6546444 C567.458839,42.5169633 605.126938,42.5169633 628.28727,65.6546444 C642.613832,79.9698812 665.910068,79.9585559 680.225305,65.6546444 C681.106131,64.7738185 682.094949,64.0681998 683.148797,63.5377883 C706.402975,45.6655564 739.982965,47.3711751 761.28727,68.6546444 C775.613832,82.9698812 798.910068,82.9585559 813.225305,68.6546444 C813.637507,68.2424421 814.07336,67.8686099 814.528459,67.5331477 C814.774706,67.2301691 815.038938,66.9368636 815.321158,66.6546444 C838.458839,43.5169633 876.126938,43.5169633 899.28727,66.6546444 C913.613832,80.9698812 936.910068,80.9585559 951.225305,66.6546444 C952.106131,65.7738185 953.094949,65.0681998 954.148797,64.5377883 C977.402975,46.6655564 1010.98297,48.3711751 1032.28727,69.6546444 C1046.61383,83.9698812 1069.91007,83.9585559 1084.22531,69.6546444 C1084.55363,69.3263179 1084.89696,69.0223349 1085.25307,68.7426955 C1108.45939,46.5210655 1145.43533,46.8250484 1168.28727,69.6546444 C1182.61383,83.9698812 1205.91007,83.9585559 1220.22531,69.6546444 C1221.10613,68.7738185 1222.09495,68.0681998 1223.1488,67.5377883 Z M1223.1488,112.839171 C1246.40297,94.9669389 1279.98297,96.6725576 1301.28727,117.956027 C1315.61383,132.271264 1338.91007,132.259938 1353.22531,117.956027 C1353.63751,117.543825 1354.07336,117.169992 1354.52846,116.83453 C1354.77471,116.531552 1355.03894,116.238246 1355.32116,115.956027 C1378.45884,92.8183457 1416.12694,92.8183457 1439.28727,115.956027 C1453.61383,130.271264 1476.91007,130.259938 1491.22531,115.956027 C1495.65352,111.527817 1502.81113,111.527817 1507.23934,115.956027 C1511.66755,120.384237 1511.66755,127.541855 1507.23934,131.970066 C1495.67617,143.533243 1480.46623,149.320495 1465.25629,149.320495 C1450.05767,149.320495 1434.84773,143.533243 1423.27323,131.970066 C1408.93534,117.643503 1385.63911,117.654829 1371.3352,131.970066 C1370.92299,132.382268 1370.48714,132.7561 1370.03204,133.091562 C1369.7858,133.394541 1369.52156,133.687846 1369.23934,133.970066 C1357.67617,145.533243 1342.46623,151.320495 1327.25629,151.320495 C1312.05767,151.320495 1296.84773,145.533243 1285.27323,133.970066 C1270.93534,119.643503 1247.63911,119.654829 1233.3352,133.970066 C1232.45352,134.85174 1231.46365,135.557869 1230.40866,136.088453 C1219.79677,144.240913 1207.02653,148.320495 1194.25629,148.320495 C1179.05767,148.320495 1163.84773,142.533243 1152.27323,130.970066 C1137.93534,116.643503 1114.63911,116.654829 1100.3352,130.970066 C1100.00682,131.298445 1099.66343,131.602474 1099.30725,131.882151 C1087.86555,142.837566 1073.06092,148.320495 1058.25629,148.320495 C1043.05767,148.320495 1027.84773,142.533243 1016.27323,130.970066 C1001.93534,116.643503 978.639108,116.654829 964.335196,130.970066 C963.453522,131.85174 962.463648,132.557869 961.40866,133.088453 C950.79677,141.240913 938.026529,145.320495 925.256288,145.320495 C910.057674,145.320495 894.847735,139.533243 883.273231,127.970066 C868.935344,113.643503 845.639108,113.654829 831.335196,127.970066 C830.922994,128.382268 830.487142,128.7561 830.032042,129.091562 C829.785796,129.394541 829.521563,129.687846 829.239344,129.970066 C817.676166,141.533243 802.466227,147.320495 787.256288,147.320495 C772.057674,147.320495 756.847735,141.533243 745.273231,129.970066 C730.935344,115.643503 707.639108,115.654829 693.335196,129.970066 C692.453522,130.85174 691.463648,131.557869 690.40866,132.088453 C679.79677,140.240913 667.026529,144.320495 654.256288,144.320495 C639.057674,144.320495 623.847735,138.533243 612.273231,126.970066 C597.935344,112.643503 574.639108,112.654829 560.335196,126.970066 C560.032367,127.272895 559.716772,127.555015 559.390159,127.816426 C559.340472,127.867994 559.2902,127.91921 559.239344,127.970066 C547.676166,139.533243 532.466227,145.320495 517.256288,145.320495 C502.057674,145.320495 486.847735,139.533243 475.273231,127.970066 C460.935344,113.643503 437.639108,113.654829 423.335196,127.970066 C422.453522,128.85174 421.463648,129.557869 420.40866,130.088453 C409.79677,138.240913 397.026529,142.320495 384.256288,142.320495 C369.057674,142.320495 353.847735,136.533243 342.273231,124.970066 C327.935344,110.643503 304.639108,110.654829 290.335196,124.970066 C289.922994,125.382268 289.487142,125.7561 289.032042,126.091562 C288.785796,126.394541 288.521563,126.687846 288.239344,126.970066 C276.676166,138.533243 261.466227,144.320495 246.256288,144.320495 C231.057674,144.320495 215.847735,138.533243 204.273231,126.970066 C190.887854,113.595262 169.694855,112.716602 155.299753,124.306443 C155.279709,124.326785 155.259573,124.347071 155.239344,124.3673 C143.676166,135.930477 128.466227,141.717729 113.256288,141.717729 C98.0576737,141.717729 82.8477346,135.930477 71.2732313,124.3673 C56.9353438,110.040737 33.6391078,110.052063 19.3351963,124.3673 C14.9069862,128.79551 7.74936774,128.79551 3.3211576,124.3673 C-1.10705253,119.939089 -1.10705253,112.781471 3.3211576,108.353261 C26.4588387,85.2155797 64.1269382,85.2155797 87.28727,108.353261 C100.668385,121.723797 121.874371,122.596275 136.279026,110.998376 C136.293025,110.984232 136.307069,110.970116 136.321158,110.956027 C159.458839,87.8183457 197.126938,87.8183457 220.28727,110.956027 C234.613832,125.271264 257.910068,125.259938 272.225305,110.956027 C272.637507,110.543825 273.07336,110.169992 273.528459,109.83453 C273.774706,109.531552 274.038938,109.238246 274.321158,108.956027 C297.458839,85.8183457 335.126938,85.8183457 358.28727,108.956027 C372.613832,123.271264 395.910068,123.259938 410.225305,108.956027 C411.106131,108.075201 412.094949,107.369582 413.148797,106.839171 C436.402975,88.9669389 469.982965,90.6725576 491.28727,111.956027 C505.613832,126.271264 528.910068,126.259938 543.225305,111.956027 C543.528135,111.653197 543.843729,111.371077 544.170342,111.109666 C544.22003,111.058099 544.270302,111.006883 544.321158,110.956027 C567.458839,87.8183457 605.126938,87.8183457 628.28727,110.956027 C642.613832,125.271264 665.910068,125.259938 680.225305,110.956027 C681.106131,110.075201 682.094949,109.369582 683.148797,108.839171 C706.402975,90.9669389 739.982965,92.6725576 761.28727,113.956027 C775.613832,128.271264 798.910068,128.259938 813.225305,113.956027 C813.637507,113.543825 814.07336,113.169992 814.528459,112.83453 C814.774706,112.531552 815.038938,112.238246 815.321158,111.956027 C838.458839,88.8183457 876.126938,88.8183457 899.28727,111.956027 C913.613832,126.271264 936.910068,126.259938 951.225305,111.956027 C952.106131,111.075201 953.094949,110.369582 954.148797,109.839171 C977.402975,91.9669389 1010.98297,93.6725576 1032.28727,114.956027 C1046.61383,129.271264 1069.91007,129.259938 1084.22531,114.956027 C1084.55363,114.6277 1084.89696,114.323717 1085.25307,114.044078 C1108.45939,91.822448 1145.43533,92.1264309 1168.28727,114.956027 C1182.61383,129.271264 1205.91007,129.259938 1220.22531,114.956027 C1221.10613,114.075201 1222.09495,113.369582 1223.1488,112.839171 Z" id="Jazz-Copy"></path>
                </g>
            </g>
        </g>
    </g>
</svg>