<?xml version="1.0" encoding="UTF-8"?>
<svg width="2981px" height="181px" viewBox="0 0 2981 181" version="1.1" xmlns="http://www.w3.org/2000/svg" xmlns:xlink="http://www.w3.org/1999/xlink">
    <!-- Generator: Sketch 48.2 (47327) - http://www.bohemiancoding.com/sketch -->
    <title>HipHop</title>
    <desc>Created with Sketch.</desc>
    <defs></defs>
    <g id="DT_01_Home" stroke="none" stroke-width="1" fill="none" fill-rule="evenodd" transform="translate(-1017.000000, -3043.000000)">
        <g id="Entdeckungen" transform="translate(981.000000, 2577.000000)" fill="#D81B60">
            <g id="Audio" transform="translate(0.000000, 266.000000)">
                <g id="HipHop" transform="translate(36.000000, 200.000000)">
                    <path d="M11.3043478,33.9130435 C17.5471739,33.9130435 22.6086957,38.9738587 22.6086957,45.2173913 L22.6086957,135.652174 C22.6086957,141.895 17.5471739,146.956522 11.3043478,146.956522 C5.06152174,146.956522 0,141.895 0,135.652174 L0,45.2173913 C0,38.9738587 5.06152174,33.9130435 11.3043478,33.9130435 Z M45.2173913,56.5217391 C51.4602174,56.5217391 56.5217391,61.5825543 56.5217391,67.826087 L56.5217391,113.043478 C56.5217391,119.286304 51.4602174,124.347826 45.2173913,124.347826 C38.9745652,124.347826 33.9130435,119.286304 33.9130435,113.043478 L33.9130435,67.826087 C33.9130435,61.5825543 38.9745652,56.5217391 45.2173913,56.5217391 Z M79.1304348,0 C85.3732609,0 90.4347826,5.06081522 90.4347826,11.3043478 L90.4347826,169.565217 C90.4347826,175.808043 85.3732609,180.869565 79.1304348,180.869565 C72.8876087,180.869565 67.826087,175.808043 67.826087,169.565217 L67.826087,11.3043478 C67.826087,5.06081522 72.8876087,0 79.1304348,0 Z M113.043478,28.2608696 C119.286304,28.2608696 124.347826,33.3216848 124.347826,39.5652174 L124.347826,141.304348 C124.347826,147.547174 119.286304,152.608696 113.043478,152.608696 C106.800652,152.608696 101.73913,147.547174 101.73913,141.304348 L101.73913,39.5652174 C101.73913,33.3216848 106.800652,28.2608696 113.043478,28.2608696 Z M146.956522,56.5217391 C153.199348,56.5217391 158.26087,61.5825543 158.26087,67.826087 L158.26087,113.043478 C158.26087,119.286304 153.199348,124.347826 146.956522,124.347826 C140.713696,124.347826 135.652174,119.286304 135.652174,113.043478 L135.652174,67.826087 C135.652174,61.5825543 140.713696,56.5217391 146.956522,56.5217391 Z M181.304348,33.9130435 C187.547174,33.9130435 192.608696,38.9738587 192.608696,45.2173913 L192.608696,135.652174 C192.608696,141.895 187.547174,146.956522 181.304348,146.956522 C175.061522,146.956522 170,141.895 170,135.652174 L170,45.2173913 C170,38.9738587 175.061522,33.9130435 181.304348,33.9130435 Z M215.217391,56.5217391 C221.460217,56.5217391 226.521739,61.5825543 226.521739,67.826087 L226.521739,113.043478 C226.521739,119.286304 221.460217,124.347826 215.217391,124.347826 C208.974565,124.347826 203.913043,119.286304 203.913043,113.043478 L203.913043,67.826087 C203.913043,61.5825543 208.974565,56.5217391 215.217391,56.5217391 Z M249.130435,0 C255.373261,0 260.434783,5.06081522 260.434783,11.3043478 L260.434783,169.565217 C260.434783,175.808043 255.373261,180.869565 249.130435,180.869565 C242.887609,180.869565 237.826087,175.808043 237.826087,169.565217 L237.826087,11.3043478 C237.826087,5.06081522 242.887609,0 249.130435,0 Z M283.043478,28.2608696 C289.286304,28.2608696 294.347826,33.3216848 294.347826,39.5652174 L294.347826,141.304348 C294.347826,147.547174 289.286304,152.608696 283.043478,152.608696 C276.800652,152.608696 271.73913,147.547174 271.73913,141.304348 L271.73913,39.5652174 C271.73913,33.3216848 276.800652,28.2608696 283.043478,28.2608696 Z M316.956522,56.5217391 C323.199348,56.5217391 328.26087,61.5825543 328.26087,67.826087 L328.26087,113.043478 C328.26087,119.286304 323.199348,124.347826 316.956522,124.347826 C310.713696,124.347826 305.652174,119.286304 305.652174,113.043478 L305.652174,67.826087 C305.652174,61.5825543 310.713696,56.5217391 316.956522,56.5217391 Z M351.304348,33.9130435 C357.547174,33.9130435 362.608696,38.9738587 362.608696,45.2173913 L362.608696,135.652174 C362.608696,141.895 357.547174,146.956522 351.304348,146.956522 C345.061522,146.956522 340,141.895 340,135.652174 L340,45.2173913 C340,38.9738587 345.061522,33.9130435 351.304348,33.9130435 Z M385.217391,56.5217391 C391.460217,56.5217391 396.521739,61.5825543 396.521739,67.826087 L396.521739,113.043478 C396.521739,119.286304 391.460217,124.347826 385.217391,124.347826 C378.974565,124.347826 373.913043,119.286304 373.913043,113.043478 L373.913043,67.826087 C373.913043,61.5825543 378.974565,56.5217391 385.217391,56.5217391 Z M419.130435,0 C425.373261,0 430.434783,5.06081522 430.434783,11.3043478 L430.434783,169.565217 C430.434783,175.808043 425.373261,180.869565 419.130435,180.869565 C412.887609,180.869565 407.826087,175.808043 407.826087,169.565217 L407.826087,11.3043478 C407.826087,5.06081522 412.887609,0 419.130435,0 Z M453.043478,28.2608696 C459.286304,28.2608696 464.347826,33.3216848 464.347826,39.5652174 L464.347826,141.304348 C464.347826,147.547174 459.286304,152.608696 453.043478,152.608696 C446.800652,152.608696 441.73913,147.547174 441.73913,141.304348 L441.73913,39.5652174 C441.73913,33.3216848 446.800652,28.2608696 453.043478,28.2608696 Z M486.956522,56.5217391 C493.199348,56.5217391 498.26087,61.5825543 498.26087,67.826087 L498.26087,113.043478 C498.26087,119.286304 493.199348,124.347826 486.956522,124.347826 C480.713696,124.347826 475.652174,119.286304 475.652174,113.043478 L475.652174,67.826087 C475.652174,61.5825543 480.713696,56.5217391 486.956522,56.5217391 Z M521.304348,33.9130435 C527.547174,33.9130435 532.608696,38.9738587 532.608696,45.2173913 L532.608696,135.652174 C532.608696,141.895 527.547174,146.956522 521.304348,146.956522 C515.061522,146.956522 510,141.895 510,135.652174 L510,45.2173913 C510,38.9738587 515.061522,33.9130435 521.304348,33.9130435 Z M555.217391,56.5217391 C561.460217,56.5217391 566.521739,61.5825543 566.521739,67.826087 L566.521739,113.043478 C566.521739,119.286304 561.460217,124.347826 555.217391,124.347826 C548.974565,124.347826 543.913043,119.286304 543.913043,113.043478 L543.913043,67.826087 C543.913043,61.5825543 548.974565,56.5217391 555.217391,56.5217391 Z M589.130435,0 C595.373261,0 600.434783,5.06081522 600.434783,11.3043478 L600.434783,169.565217 C600.434783,175.808043 595.373261,180.869565 589.130435,180.869565 C582.887609,180.869565 577.826087,175.808043 577.826087,169.565217 L577.826087,11.3043478 C577.826087,5.06081522 582.887609,0 589.130435,0 Z M623.043478,28.2608696 C629.286304,28.2608696 634.347826,33.3216848 634.347826,39.5652174 L634.347826,141.304348 C634.347826,147.547174 629.286304,152.608696 623.043478,152.608696 C616.800652,152.608696 611.73913,147.547174 611.73913,141.304348 L611.73913,39.5652174 C611.73913,33.3216848 616.800652,28.2608696 623.043478,28.2608696 Z M656.956522,56.5217391 C663.199348,56.5217391 668.26087,61.5825543 668.26087,67.826087 L668.26087,113.043478 C668.26087,119.286304 663.199348,124.347826 656.956522,124.347826 C650.713696,124.347826 645.652174,119.286304 645.652174,113.043478 L645.652174,67.826087 C645.652174,61.5825543 650.713696,56.5217391 656.956522,56.5217391 Z M691.304348,33.9130435 C697.547174,33.9130435 702.608696,38.9738587 702.608696,45.2173913 L702.608696,135.652174 C702.608696,141.895 697.547174,146.956522 691.304348,146.956522 C685.061522,146.956522 680,141.895 680,135.652174 L680,45.2173913 C680,38.9738587 685.061522,33.9130435 691.304348,33.9130435 Z M725.217391,56.5217391 C731.460217,56.5217391 736.521739,61.5825543 736.521739,67.826087 L736.521739,113.043478 C736.521739,119.286304 731.460217,124.347826 725.217391,124.347826 C718.974565,124.347826 713.913043,119.286304 713.913043,113.043478 L713.913043,67.826087 C713.913043,61.5825543 718.974565,56.5217391 725.217391,56.5217391 Z M759.130435,0 C765.373261,0 770.434783,5.06081522 770.434783,11.3043478 L770.434783,169.565217 C770.434783,175.808043 765.373261,180.869565 759.130435,180.869565 C752.887609,180.869565 747.826087,175.808043 747.826087,169.565217 L747.826087,11.3043478 C747.826087,5.06081522 752.887609,0 759.130435,0 Z M793.043478,28.2608696 C799.286304,28.2608696 804.347826,33.3216848 804.347826,39.5652174 L804.347826,141.304348 C804.347826,147.547174 799.286304,152.608696 793.043478,152.608696 C786.800652,152.608696 781.73913,147.547174 781.73913,141.304348 L781.73913,39.5652174 C781.73913,33.3216848 786.800652,28.2608696 793.043478,28.2608696 Z M826.956522,56.5217391 C833.199348,56.5217391 838.26087,61.5825543 838.26087,67.826087 L838.26087,113.043478 C838.26087,119.286304 833.199348,124.347826 826.956522,124.347826 C820.713696,124.347826 815.652174,119.286304 815.652174,113.043478 L815.652174,67.826087 C815.652174,61.5825543 820.713696,56.5217391 826.956522,56.5217391 Z M861.304348,33.9130435 C867.547174,33.9130435 872.608696,38.9738587 872.608696,45.2173913 L872.608696,135.652174 C872.608696,141.895 867.547174,146.956522 861.304348,146.956522 C855.061522,146.956522 850,141.895 850,135.652174 L850,45.2173913 C850,38.9738587 855.061522,33.9130435 861.304348,33.9130435 Z M895.217391,56.5217391 C901.460217,56.5217391 906.521739,61.5825543 906.521739,67.826087 L906.521739,113.043478 C906.521739,119.286304 901.460217,124.347826 895.217391,124.347826 C888.974565,124.347826 883.913043,119.286304 883.913043,113.043478 L883.913043,67.826087 C883.913043,61.5825543 888.974565,56.5217391 895.217391,56.5217391 Z M929.130435,0 C935.373261,0 940.434783,5.06081522 940.434783,11.3043478 L940.434783,169.565217 C940.434783,175.808043 935.373261,180.869565 929.130435,180.869565 C922.887609,180.869565 917.826087,175.808043 917.826087,169.565217 L917.826087,11.3043478 C917.826087,5.06081522 922.887609,0 929.130435,0 Z M963.043478,28.2608696 C969.286304,28.2608696 974.347826,33.3216848 974.347826,39.5652174 L974.347826,141.304348 C974.347826,147.547174 969.286304,152.608696 963.043478,152.608696 C956.800652,152.608696 951.73913,147.547174 951.73913,141.304348 L951.73913,39.5652174 C951.73913,33.3216848 956.800652,28.2608696 963.043478,28.2608696 Z M996.956522,56.5217391 C1003.19935,56.5217391 1008.26087,61.5825543 1008.26087,67.826087 L1008.26087,113.043478 C1008.26087,119.286304 1003.19935,124.347826 996.956522,124.347826 C990.713696,124.347826 985.652174,119.286304 985.652174,113.043478 L985.652174,67.826087 C985.652174,61.5825543 990.713696,56.5217391 996.956522,56.5217391 Z M1031.30435,33.9130435 C1037.54717,33.9130435 1042.6087,38.9738587 1042.6087,45.2173913 L1042.6087,135.652174 C1042.6087,141.895 1037.54717,146.956522 1031.30435,146.956522 C1025.06152,146.956522 1020,141.895 1020,135.652174 L1020,45.2173913 C1020,38.9738587 1025.06152,33.9130435 1031.30435,33.9130435 Z M1065.21739,56.5217391 C1071.46022,56.5217391 1076.52174,61.5825543 1076.52174,67.826087 L1076.52174,113.043478 C1076.52174,119.286304 1071.46022,124.347826 1065.21739,124.347826 C1058.97457,124.347826 1053.91304,119.286304 1053.91304,113.043478 L1053.91304,67.826087 C1053.91304,61.5825543 1058.97457,56.5217391 1065.21739,56.5217391 Z M1099.13043,0 C1105.37326,0 1110.43478,5.06081522 1110.43478,11.3043478 L1110.43478,169.565217 C1110.43478,175.808043 1105.37326,180.869565 1099.13043,180.869565 C1092.88761,180.869565 1087.82609,175.808043 1087.82609,169.565217 L1087.82609,11.3043478 C1087.82609,5.06081522 1092.88761,0 1099.13043,0 Z M1133.04348,28.2608696 C1139.2863,28.2608696 1144.34783,33.3216848 1144.34783,39.5652174 L1144.34783,141.304348 C1144.34783,147.547174 1139.2863,152.608696 1133.04348,152.608696 C1126.80065,152.608696 1121.73913,147.547174 1121.73913,141.304348 L1121.73913,39.5652174 C1121.73913,33.3216848 1126.80065,28.2608696 1133.04348,28.2608696 Z M1166.95652,56.5217391 C1173.19935,56.5217391 1178.26087,61.5825543 1178.26087,67.826087 L1178.26087,113.043478 C1178.26087,119.286304 1173.19935,124.347826 1166.95652,124.347826 C1160.7137,124.347826 1155.65217,119.286304 1155.65217,113.043478 L1155.65217,67.826087 C1155.65217,61.5825543 1160.7137,56.5217391 1166.95652,56.5217391 Z M1201.30435,33.9130435 C1207.54717,33.9130435 1212.6087,38.9738587 1212.6087,45.2173913 L1212.6087,135.652174 C1212.6087,141.895 1207.54717,146.956522 1201.30435,146.956522 C1195.06152,146.956522 1190,141.895 1190,135.652174 L1190,45.2173913 C1190,38.9738587 1195.06152,33.9130435 1201.30435,33.9130435 Z M1235.21739,56.5217391 C1241.46022,56.5217391 1246.52174,61.5825543 1246.52174,67.826087 L1246.52174,113.043478 C1246.52174,119.286304 1241.46022,124.347826 1235.21739,124.347826 C1228.97457,124.347826 1223.91304,119.286304 1223.91304,113.043478 L1223.91304,67.826087 C1223.91304,61.5825543 1228.97457,56.5217391 1235.21739,56.5217391 Z M1269.13043,0 C1275.37326,0 1280.43478,5.06081522 1280.43478,11.3043478 L1280.43478,169.565217 C1280.43478,175.808043 1275.37326,180.869565 1269.13043,180.869565 C1262.88761,180.869565 1257.82609,175.808043 1257.82609,169.565217 L1257.82609,11.3043478 C1257.82609,5.06081522 1262.88761,0 1269.13043,0 Z M1303.04348,28.2608696 C1309.2863,28.2608696 1314.34783,33.3216848 1314.34783,39.5652174 L1314.34783,141.304348 C1314.34783,147.547174 1309.2863,152.608696 1303.04348,152.608696 C1296.80065,152.608696 1291.73913,147.547174 1291.73913,141.304348 L1291.73913,39.5652174 C1291.73913,33.3216848 1296.80065,28.2608696 1303.04348,28.2608696 Z M1336.95652,56.5217391 C1343.19935,56.5217391 1348.26087,61.5825543 1348.26087,67.826087 L1348.26087,113.043478 C1348.26087,119.286304 1343.19935,124.347826 1336.95652,124.347826 C1330.7137,124.347826 1325.65217,119.286304 1325.65217,113.043478 L1325.65217,67.826087 C1325.65217,61.5825543 1330.7137,56.5217391 1336.95652,56.5217391 Z M1371.30435,33.9130435 C1377.54717,33.9130435 1382.6087,38.9738587 1382.6087,45.2173913 L1382.6087,135.652174 C1382.6087,141.895 1377.54717,146.956522 1371.30435,146.956522 C1365.06152,146.956522 1360,141.895 1360,135.652174 L1360,45.2173913 C1360,38.9738587 1365.06152,33.9130435 1371.30435,33.9130435 Z M1405.21739,56.5217391 C1411.46022,56.5217391 1416.52174,61.5825543 1416.52174,67.826087 L1416.52174,113.043478 C1416.52174,119.286304 1411.46022,124.347826 1405.21739,124.347826 C1398.97457,124.347826 1393.91304,119.286304 1393.91304,113.043478 L1393.91304,67.826087 C1393.91304,61.5825543 1398.97457,56.5217391 1405.21739,56.5217391 Z M1439.13043,0 C1445.37326,0 1450.43478,5.06081522 1450.43478,11.3043478 L1450.43478,169.565217 C1450.43478,175.808043 1445.37326,180.869565 1439.13043,180.869565 C1432.88761,180.869565 1427.82609,175.808043 1427.82609,169.565217 L1427.82609,11.3043478 C1427.82609,5.06081522 1432.88761,0 1439.13043,0 Z M1473.04348,28.2608696 C1479.2863,28.2608696 1484.34783,33.3216848 1484.34783,39.5652174 L1484.34783,141.304348 C1484.34783,147.547174 1479.2863,152.608696 1473.04348,152.608696 C1466.80065,152.608696 1461.73913,147.547174 1461.73913,141.304348 L1461.73913,39.5652174 C1461.73913,33.3216848 1466.80065,28.2608696 1473.04348,28.2608696 Z M1506.95652,56.5217391 C1513.19935,56.5217391 1518.26087,61.5825543 1518.26087,67.826087 L1518.26087,113.043478 C1518.26087,119.286304 1513.19935,124.347826 1506.95652,124.347826 C1500.7137,124.347826 1495.65217,119.286304 1495.65217,113.043478 L1495.65217,67.826087 C1495.65217,61.5825543 1500.7137,56.5217391 1506.95652,56.5217391 Z"></path>
                    <path d="M1473.30435,33.9130435 C1479.54717,33.9130435 1484.6087,38.9738587 1484.6087,45.2173913 L1484.6087,135.652174 C1484.6087,141.895 1479.54717,146.956522 1473.30435,146.956522 C1467.06152,146.956522 1462,141.895 1462,135.652174 L1462,45.2173913 C1462,38.9738587 1467.06152,33.9130435 1473.30435,33.9130435 Z M1507.21739,56.5217391 C1513.46022,56.5217391 1518.52174,61.5825543 1518.52174,67.826087 L1518.52174,113.043478 C1518.52174,119.286304 1513.46022,124.347826 1507.21739,124.347826 C1500.97457,124.347826 1495.91304,119.286304 1495.91304,113.043478 L1495.91304,67.826087 C1495.91304,61.5825543 1500.97457,56.5217391 1507.21739,56.5217391 Z M1541.13043,0 C1547.37326,0 1552.43478,5.06081522 1552.43478,11.3043478 L1552.43478,169.565217 C1552.43478,175.808043 1547.37326,180.869565 1541.13043,180.869565 C1534.88761,180.869565 1529.82609,175.808043 1529.82609,169.565217 L1529.82609,11.3043478 C1529.82609,5.06081522 1534.88761,0 1541.13043,0 Z M1575.04348,28.2608696 C1581.2863,28.2608696 1586.34783,33.3216848 1586.34783,39.5652174 L1586.34783,141.304348 C1586.34783,147.547174 1581.2863,152.608696 1575.04348,152.608696 C1568.80065,152.608696 1563.73913,147.547174 1563.73913,141.304348 L1563.73913,39.5652174 C1563.73913,33.3216848 1568.80065,28.2608696 1575.04348,28.2608696 Z M1608.95652,56.5217391 C1615.19935,56.5217391 1620.26087,61.5825543 1620.26087,67.826087 L1620.26087,113.043478 C1620.26087,119.286304 1615.19935,124.347826 1608.95652,124.347826 C1602.7137,124.347826 1597.65217,119.286304 1597.65217,113.043478 L1597.65217,67.826087 C1597.65217,61.5825543 1602.7137,56.5217391 1608.95652,56.5217391 Z M1643.30435,33.9130435 C1649.54717,33.9130435 1654.6087,38.9738587 1654.6087,45.2173913 L1654.6087,135.652174 C1654.6087,141.895 1649.54717,146.956522 1643.30435,146.956522 C1637.06152,146.956522 1632,141.895 1632,135.652174 L1632,45.2173913 C1632,38.9738587 1637.06152,33.9130435 1643.30435,33.9130435 Z M1677.21739,56.5217391 C1683.46022,56.5217391 1688.52174,61.5825543 1688.52174,67.826087 L1688.52174,113.043478 C1688.52174,119.286304 1683.46022,124.347826 1677.21739,124.347826 C1670.97457,124.347826 1665.91304,119.286304 1665.91304,113.043478 L1665.91304,67.826087 C1665.91304,61.5825543 1670.97457,56.5217391 1677.21739,56.5217391 Z M1711.13043,0 C1717.37326,0 1722.43478,5.06081522 1722.43478,11.3043478 L1722.43478,169.565217 C1722.43478,175.808043 1717.37326,180.869565 1711.13043,180.869565 C1704.88761,180.869565 1699.82609,175.808043 1699.82609,169.565217 L1699.82609,11.3043478 C1699.82609,5.06081522 1704.88761,0 1711.13043,0 Z M1745.04348,28.2608696 C1751.2863,28.2608696 1756.34783,33.3216848 1756.34783,39.5652174 L1756.34783,141.304348 C1756.34783,147.547174 1751.2863,152.608696 1745.04348,152.608696 C1738.80065,152.608696 1733.73913,147.547174 1733.73913,141.304348 L1733.73913,39.5652174 C1733.73913,33.3216848 1738.80065,28.2608696 1745.04348,28.2608696 Z M1778.95652,56.5217391 C1785.19935,56.5217391 1790.26087,61.5825543 1790.26087,67.826087 L1790.26087,113.043478 C1790.26087,119.286304 1785.19935,124.347826 1778.95652,124.347826 C1772.7137,124.347826 1767.65217,119.286304 1767.65217,113.043478 L1767.65217,67.826087 C1767.65217,61.5825543 1772.7137,56.5217391 1778.95652,56.5217391 Z M1813.30435,33.9130435 C1819.54717,33.9130435 1824.6087,38.9738587 1824.6087,45.2173913 L1824.6087,135.652174 C1824.6087,141.895 1819.54717,146.956522 1813.30435,146.956522 C1807.06152,146.956522 1802,141.895 1802,135.652174 L1802,45.2173913 C1802,38.9738587 1807.06152,33.9130435 1813.30435,33.9130435 Z M1847.21739,56.5217391 C1853.46022,56.5217391 1858.52174,61.5825543 1858.52174,67.826087 L1858.52174,113.043478 C1858.52174,119.286304 1853.46022,124.347826 1847.21739,124.347826 C1840.97457,124.347826 1835.91304,119.286304 1835.91304,113.043478 L1835.91304,67.826087 C1835.91304,61.5825543 1840.97457,56.5217391 1847.21739,56.5217391 Z M1881.13043,0 C1887.37326,0 1892.43478,5.06081522 1892.43478,11.3043478 L1892.43478,169.565217 C1892.43478,175.808043 1887.37326,180.869565 1881.13043,180.869565 C1874.88761,180.869565 1869.82609,175.808043 1869.82609,169.565217 L1869.82609,11.3043478 C1869.82609,5.06081522 1874.88761,0 1881.13043,0 Z M1915.04348,28.2608696 C1921.2863,28.2608696 1926.34783,33.3216848 1926.34783,39.5652174 L1926.34783,141.304348 C1926.34783,147.547174 1921.2863,152.608696 1915.04348,152.608696 C1908.80065,152.608696 1903.73913,147.547174 1903.73913,141.304348 L1903.73913,39.5652174 C1903.73913,33.3216848 1908.80065,28.2608696 1915.04348,28.2608696 Z M1948.95652,56.5217391 C1955.19935,56.5217391 1960.26087,61.5825543 1960.26087,67.826087 L1960.26087,113.043478 C1960.26087,119.286304 1955.19935,124.347826 1948.95652,124.347826 C1942.7137,124.347826 1937.65217,119.286304 1937.65217,113.043478 L1937.65217,67.826087 C1937.65217,61.5825543 1942.7137,56.5217391 1948.95652,56.5217391 Z M1983.30435,33.9130435 C1989.54717,33.9130435 1994.6087,38.9738587 1994.6087,45.2173913 L1994.6087,135.652174 C1994.6087,141.895 1989.54717,146.956522 1983.30435,146.956522 C1977.06152,146.956522 1972,141.895 1972,135.652174 L1972,45.2173913 C1972,38.9738587 1977.06152,33.9130435 1983.30435,33.9130435 Z M2017.21739,56.5217391 C2023.46022,56.5217391 2028.52174,61.5825543 2028.52174,67.826087 L2028.52174,113.043478 C2028.52174,119.286304 2023.46022,124.347826 2017.21739,124.347826 C2010.97457,124.347826 2005.91304,119.286304 2005.91304,113.043478 L2005.91304,67.826087 C2005.91304,61.5825543 2010.97457,56.5217391 2017.21739,56.5217391 Z M2051.13043,0 C2057.37326,0 2062.43478,5.06081522 2062.43478,11.3043478 L2062.43478,169.565217 C2062.43478,175.808043 2057.37326,180.869565 2051.13043,180.869565 C2044.88761,180.869565 2039.82609,175.808043 2039.82609,169.565217 L2039.82609,11.3043478 C2039.82609,5.06081522 2044.88761,0 2051.13043,0 Z M2085.04348,28.2608696 C2091.2863,28.2608696 2096.34783,33.3216848 2096.34783,39.5652174 L2096.34783,141.304348 C2096.34783,147.547174 2091.2863,152.608696 2085.04348,152.608696 C2078.80065,152.608696 2073.73913,147.547174 2073.73913,141.304348 L2073.73913,39.5652174 C2073.73913,33.3216848 2078.80065,28.2608696 2085.04348,28.2608696 Z M2118.95652,56.5217391 C2125.19935,56.5217391 2130.26087,61.5825543 2130.26087,67.826087 L2130.26087,113.043478 C2130.26087,119.286304 2125.19935,124.347826 2118.95652,124.347826 C2112.7137,124.347826 2107.65217,119.286304 2107.65217,113.043478 L2107.65217,67.826087 C2107.65217,61.5825543 2112.7137,56.5217391 2118.95652,56.5217391 Z M2153.30435,33.9130435 C2159.54717,33.9130435 2164.6087,38.9738587 2164.6087,45.2173913 L2164.6087,135.652174 C2164.6087,141.895 2159.54717,146.956522 2153.30435,146.956522 C2147.06152,146.956522 2142,141.895 2142,135.652174 L2142,45.2173913 C2142,38.9738587 2147.06152,33.9130435 2153.30435,33.9130435 Z M2187.21739,56.5217391 C2193.46022,56.5217391 2198.52174,61.5825543 2198.52174,67.826087 L2198.52174,113.043478 C2198.52174,119.286304 2193.46022,124.347826 2187.21739,124.347826 C2180.97457,124.347826 2175.91304,119.286304 2175.91304,113.043478 L2175.91304,67.826087 C2175.91304,61.5825543 2180.97457,56.5217391 2187.21739,56.5217391 Z M2221.13043,0 C2227.37326,0 2232.43478,5.06081522 2232.43478,11.3043478 L2232.43478,169.565217 C2232.43478,175.808043 2227.37326,180.869565 2221.13043,180.869565 C2214.88761,180.869565 2209.82609,175.808043 2209.82609,169.565217 L2209.82609,11.3043478 C2209.82609,5.06081522 2214.88761,0 2221.13043,0 Z M2255.04348,28.2608696 C2261.2863,28.2608696 2266.34783,33.3216848 2266.34783,39.5652174 L2266.34783,141.304348 C2266.34783,147.547174 2261.2863,152.608696 2255.04348,152.608696 C2248.80065,152.608696 2243.73913,147.547174 2243.73913,141.304348 L2243.73913,39.5652174 C2243.73913,33.3216848 2248.80065,28.2608696 2255.04348,28.2608696 Z M2288.95652,56.5217391 C2295.19935,56.5217391 2300.26087,61.5825543 2300.26087,67.826087 L2300.26087,113.043478 C2300.26087,119.286304 2295.19935,124.347826 2288.95652,124.347826 C2282.7137,124.347826 2277.65217,119.286304 2277.65217,113.043478 L2277.65217,67.826087 C2277.65217,61.5825543 2282.7137,56.5217391 2288.95652,56.5217391 Z M2323.30435,33.9130435 C2329.54717,33.9130435 2334.6087,38.9738587 2334.6087,45.2173913 L2334.6087,135.652174 C2334.6087,141.895 2329.54717,146.956522 2323.30435,146.956522 C2317.06152,146.956522 2312,141.895 2312,135.652174 L2312,45.2173913 C2312,38.9738587 2317.06152,33.9130435 2323.30435,33.9130435 Z M2357.21739,56.5217391 C2363.46022,56.5217391 2368.52174,61.5825543 2368.52174,67.826087 L2368.52174,113.043478 C2368.52174,119.286304 2363.46022,124.347826 2357.21739,124.347826 C2350.97457,124.347826 2345.91304,119.286304 2345.91304,113.043478 L2345.91304,67.826087 C2345.91304,61.5825543 2350.97457,56.5217391 2357.21739,56.5217391 Z M2391.13043,0 C2397.37326,0 2402.43478,5.06081522 2402.43478,11.3043478 L2402.43478,169.565217 C2402.43478,175.808043 2397.37326,180.869565 2391.13043,180.869565 C2384.88761,180.869565 2379.82609,175.808043 2379.82609,169.565217 L2379.82609,11.3043478 C2379.82609,5.06081522 2384.88761,0 2391.13043,0 Z M2425.04348,28.2608696 C2431.2863,28.2608696 2436.34783,33.3216848 2436.34783,39.5652174 L2436.34783,141.304348 C2436.34783,147.547174 2431.2863,152.608696 2425.04348,152.608696 C2418.80065,152.608696 2413.73913,147.547174 2413.73913,141.304348 L2413.73913,39.5652174 C2413.73913,33.3216848 2418.80065,28.2608696 2425.04348,28.2608696 Z M2458.95652,56.5217391 C2465.19935,56.5217391 2470.26087,61.5825543 2470.26087,67.826087 L2470.26087,113.043478 C2470.26087,119.286304 2465.19935,124.347826 2458.95652,124.347826 C2452.7137,124.347826 2447.65217,119.286304 2447.65217,113.043478 L2447.65217,67.826087 C2447.65217,61.5825543 2452.7137,56.5217391 2458.95652,56.5217391 Z M2493.30435,33.9130435 C2499.54717,33.9130435 2504.6087,38.9738587 2504.6087,45.2173913 L2504.6087,135.652174 C2504.6087,141.895 2499.54717,146.956522 2493.30435,146.956522 C2487.06152,146.956522 2482,141.895 2482,135.652174 L2482,45.2173913 C2482,38.9738587 2487.06152,33.9130435 2493.30435,33.9130435 Z M2527.21739,56.5217391 C2533.46022,56.5217391 2538.52174,61.5825543 2538.52174,67.826087 L2538.52174,113.043478 C2538.52174,119.286304 2533.46022,124.347826 2527.21739,124.347826 C2520.97457,124.347826 2515.91304,119.286304 2515.91304,113.043478 L2515.91304,67.826087 C2515.91304,61.5825543 2520.97457,56.5217391 2527.21739,56.5217391 Z M2561.13043,0 C2567.37326,0 2572.43478,5.06081522 2572.43478,11.3043478 L2572.43478,169.565217 C2572.43478,175.808043 2567.37326,180.869565 2561.13043,180.869565 C2554.88761,180.869565 2549.82609,175.808043 2549.82609,169.565217 L2549.82609,11.3043478 C2549.82609,5.06081522 2554.88761,0 2561.13043,0 Z M2595.04348,28.2608696 C2601.2863,28.2608696 2606.34783,33.3216848 2606.34783,39.5652174 L2606.34783,141.304348 C2606.34783,147.547174 2601.2863,152.608696 2595.04348,152.608696 C2588.80065,152.608696 2583.73913,147.547174 2583.73913,141.304348 L2583.73913,39.5652174 C2583.73913,33.3216848 2588.80065,28.2608696 2595.04348,28.2608696 Z M2628.95652,56.5217391 C2635.19935,56.5217391 2640.26087,61.5825543 2640.26087,67.826087 L2640.26087,113.043478 C2640.26087,119.286304 2635.19935,124.347826 2628.95652,124.347826 C2622.7137,124.347826 2617.65217,119.286304 2617.65217,113.043478 L2617.65217,67.826087 C2617.65217,61.5825543 2622.7137,56.5217391 2628.95652,56.5217391 Z M2663.30435,33.9130435 C2669.54717,33.9130435 2674.6087,38.9738587 2674.6087,45.2173913 L2674.6087,135.652174 C2674.6087,141.895 2669.54717,146.956522 2663.30435,146.956522 C2657.06152,146.956522 2652,141.895 2652,135.652174 L2652,45.2173913 C2652,38.9738587 2657.06152,33.9130435 2663.30435,33.9130435 Z M2697.21739,56.5217391 C2703.46022,56.5217391 2708.52174,61.5825543 2708.52174,67.826087 L2708.52174,113.043478 C2708.52174,119.286304 2703.46022,124.347826 2697.21739,124.347826 C2690.97457,124.347826 2685.91304,119.286304 2685.91304,113.043478 L2685.91304,67.826087 C2685.91304,61.5825543 2690.97457,56.5217391 2697.21739,56.5217391 Z M2731.13043,0 C2737.37326,0 2742.43478,5.06081522 2742.43478,11.3043478 L2742.43478,169.565217 C2742.43478,175.808043 2737.37326,180.869565 2731.13043,180.869565 C2724.88761,180.869565 2719.82609,175.808043 2719.82609,169.565217 L2719.82609,11.3043478 C2719.82609,5.06081522 2724.88761,0 2731.13043,0 Z M2765.04348,28.2608696 C2771.2863,28.2608696 2776.34783,33.3216848 2776.34783,39.5652174 L2776.34783,141.304348 C2776.34783,147.547174 2771.2863,152.608696 2765.04348,152.608696 C2758.80065,152.608696 2753.73913,147.547174 2753.73913,141.304348 L2753.73913,39.5652174 C2753.73913,33.3216848 2758.80065,28.2608696 2765.04348,28.2608696 Z M2798.95652,56.5217391 C2805.19935,56.5217391 2810.26087,61.5825543 2810.26087,67.826087 L2810.26087,113.043478 C2810.26087,119.286304 2805.19935,124.347826 2798.95652,124.347826 C2792.7137,124.347826 2787.65217,119.286304 2787.65217,113.043478 L2787.65217,67.826087 C2787.65217,61.5825543 2792.7137,56.5217391 2798.95652,56.5217391 Z M2833.30435,33.9130435 C2839.54717,33.9130435 2844.6087,38.9738587 2844.6087,45.2173913 L2844.6087,135.652174 C2844.6087,141.895 2839.54717,146.956522 2833.30435,146.956522 C2827.06152,146.956522 2822,141.895 2822,135.652174 L2822,45.2173913 C2822,38.9738587 2827.06152,33.9130435 2833.30435,33.9130435 Z M2867.21739,56.5217391 C2873.46022,56.5217391 2878.52174,61.5825543 2878.52174,67.826087 L2878.52174,113.043478 C2878.52174,119.286304 2873.46022,124.347826 2867.21739,124.347826 C2860.97457,124.347826 2855.91304,119.286304 2855.91304,113.043478 L2855.91304,67.826087 C2855.91304,61.5825543 2860.97457,56.5217391 2867.21739,56.5217391 Z M2901.13043,0 C2907.37326,0 2912.43478,5.06081522 2912.43478,11.3043478 L2912.43478,169.565217 C2912.43478,175.808043 2907.37326,180.869565 2901.13043,180.869565 C2894.88761,180.869565 2889.82609,175.808043 2889.82609,169.565217 L2889.82609,11.3043478 C2889.82609,5.06081522 2894.88761,0 2901.13043,0 Z M2935.04348,28.2608696 C2941.2863,28.2608696 2946.34783,33.3216848 2946.34783,39.5652174 L2946.34783,141.304348 C2946.34783,147.547174 2941.2863,152.608696 2935.04348,152.608696 C2928.80065,152.608696 2923.73913,147.547174 2923.73913,141.304348 L2923.73913,39.5652174 C2923.73913,33.3216848 2928.80065,28.2608696 2935.04348,28.2608696 Z M2968.95652,56.5217391 C2975.19935,56.5217391 2980.26087,61.5825543 2980.26087,67.826087 L2980.26087,113.043478 C2980.26087,119.286304 2975.19935,124.347826 2968.95652,124.347826 C2962.7137,124.347826 2957.65217,119.286304 2957.65217,113.043478 L2957.65217,67.826087 C2957.65217,61.5825543 2962.7137,56.5217391 2968.95652,56.5217391 Z"></path>
                </g>
            </g>
        </g>
    </g>
</svg>