<?xml version="1.0" standalone="no"?>
<!DOCTYPE svg PUBLIC "-//W3C//DTD SVG 20010904//EN"
 "http://www.w3.org/TR/2001/REC-SVG-20010904/DTD/svg10.dtd">
<svg version="1.0" xmlns="http://www.w3.org/2000/svg"
 width="768.000000pt" height="768.000000pt" viewBox="0 0 768.000000 768.000000"
 preserveAspectRatio="xMidYMid meet">
<metadata>
Created by potrace 1.11, written by Peter Selinger 2001-2013
</metadata>
<g transform="translate(0.000000,768.000000) scale(0.100000,-0.100000)"
fill="#000000" stroke="none">
<path d="M1915 7389 c-139 -13 -177 -20 -309 -54 -251 -63 -547 -211 -726
-363 -83 -69 -125 -107 -185 -167 -72 -73 -92 -96 -160 -180 -21 -28 -42 -52
-45 -55 -3 -3 -30 -43 -60 -90 -30 -47 -57 -87 -60 -90 -5 -5 -13 -19 -74
-135 -94 -177 -183 -425 -230 -645 -22 -100 -28 -130 -32 -165 -3 -22 -7 -53
-9 -70 -16 -118 -19 -170 -19 -325 0 -154 6 -252 19 -300 2 -8 6 -35 9 -60 3
-25 7 -54 10 -65 27 -129 38 -179 51 -230 22 -86 23 -90 25 -90 1 0 3 -8 5
-17 4 -22 24 -87 34 -113 5 -11 23 -60 41 -110 17 -49 42 -114 56 -143 13 -29
24 -55 24 -58 0 -7 110 -224 142 -281 56 -100 91 -157 102 -168 6 -6 20 -28
31 -48 11 -20 23 -37 27 -37 5 0 8 -5 8 -10 0 -6 5 -16 10 -23 6 -7 35 -46 66
-87 30 -41 59 -76 64 -78 6 -2 10 -9 10 -16 0 -6 8 -19 18 -28 9 -9 35 -38 57
-64 83 -102 223 -245 359 -368 44 -39 91 -82 106 -96 34 -31 197 -180 220
-200 35 -31 173 -156 204 -185 18 -16 66 -59 105 -95 40 -36 87 -78 105 -95
18 -16 70 -64 116 -105 46 -41 98 -88 115 -105 47 -44 204 -187 229 -208 44
-39 172 -154 223 -202 29 -27 74 -68 99 -90 25 -22 71 -64 103 -93 31 -29 84
-78 119 -109 35 -31 76 -68 91 -82 16 -14 63 -57 106 -96 43 -38 97 -88 121
-110 23 -22 58 -53 76 -70 45 -39 202 -182 243 -220 52 -48 195 -178 229 -207
17 -15 36 -24 42 -20 10 6 66 55 184 162 46 42 172 154 194 173 21 18 137 122
183 164 14 12 49 44 79 70 30 26 70 62 88 78 38 35 161 145 192 172 18 15 107
95 188 168 13 11 58 52 101 90 43 39 83 75 89 80 6 6 47 42 91 80 44 39 82 72
85 75 3 3 28 25 55 50 177 158 220 197 239 213 18 15 101 90 191 172 13 11 46
40 74 64 28 24 68 60 90 80 45 42 75 69 191 171 46 41 94 84 106 95 12 11 52
47 89 80 38 33 81 72 97 88 16 15 31 27 33 27 2 0 19 15 38 33 18 17 74 71
123 118 125 121 230 235 299 323 17 21 36 45 43 52 6 7 12 15 12 18 0 5 17 28
45 60 6 6 23 31 40 56 16 25 33 47 36 50 3 3 12 16 19 29 7 14 17 30 21 35 24
29 77 115 125 206 11 19 22 37 27 38 4 2 7 12 7 23 0 10 4 19 9 19 5 0 11 8
14 18 3 9 35 81 71 159 70 151 149 376 190 538 27 109 57 245 61 285 1 14 5
39 8 55 20 98 29 434 15 535 -4 25 -10 72 -14 105 -7 61 -11 90 -14 90 -1 0
-3 14 -5 30 -9 72 -16 103 -40 199 -59 227 -159 480 -255 642 -30 52 -143 228
-150 234 -3 3 -37 43 -75 90 -123 151 -317 326 -460 416 -16 10 -32 21 -35 24
-15 16 -250 135 -317 161 -13 5 -33 13 -45 18 -21 9 -90 32 -113 37 -133 34
-220 54 -260 59 -27 3 -78 9 -111 13 -61 8 -327 6 -394 -2 -19 -2 -57 -7 -85
-10 -27 -4 -57 -8 -65 -11 -8 -2 -33 -7 -54 -11 -22 -3 -50 -10 -63 -15 -13
-5 -23 -7 -23 -4 0 2 -19 -3 -42 -11 -24 -9 -52 -17 -63 -19 -34 -5 -225 -84
-319 -132 -229 -115 -471 -306 -631 -498 -27 -33 -56 -64 -62 -68 -7 -4 -13
-15 -13 -22 0 -8 -3 -15 -7 -15 -5 0 -24 -25 -43 -55 -19 -30 -38 -54 -42 -55
-5 0 -8 -6 -8 -12 0 -7 -11 -26 -25 -43 -18 -22 -24 -25 -25 -13 0 9 -4 18 -8
20 -4 2 -19 21 -32 43 -63 105 -223 303 -305 376 -16 15 -50 46 -74 69 -24 23
-60 53 -80 68 -20 15 -38 30 -41 33 -3 3 -36 27 -75 53 -38 25 -74 50 -80 54
-25 20 -185 102 -199 102 -8 0 -16 4 -18 8 -6 15 -246 104 -318 118 -14 3 -45
10 -70 15 -25 6 -56 13 -70 15 -14 2 -38 7 -55 11 -74 15 -365 23 -470 12z"/>
</g>
</svg>
