<svg width="3101" height="119" xmlns="http://www.w3.org/2000/svg"><g fill="#00D79F" fill-rule="evenodd"><path d="M1405.515 41.679a7.974 7.974 0 0 1 3.116-.653c11.722 0 19.913 6.717 25.157 11.55 2.742 2.296 4.627 4.181 6.307 5.244.445.205.856.411 1.268.617 1.062.651 2.125 1.062 2.947 1.062.206 0 .412-.205.823-.205 2.296-.412 4.798-2.742 9.425-6.924 5.038-4.387 12.579-10.487 23.066-11.31h2.091c11.722 0 19.913 6.718 25.157 11.55 3.153 3.12 5.45 5.004 7.334 6.067 1.063.65 2.126 1.062 2.948 1.062.205 0 .411-.206.822-.206 2.297-.41 4.799-2.741 9.426-6.923 5.038-4.387 12.578-10.488 23.066-11.31h2.09c4.628 0 8.809 4.181 8.844 8.603 0 4.42-4.182 8.397-8.603 8.397-.823 0-1.474.205-2.09.205-.618.206-1.27.206-1.886.412-.617.205-1.062.41-1.68.616-2.741 1.029-5.243 3.12-8.19 5.861-4.593 4.182-10.489 10.488-19.914 11.31h-1.885c-7.951 0-13.4-3.975-17.822-7.745-1.474-1.474-2.708-2.708-3.976-3.77-4.833-4.387-7.986-7.13-13.64-7.13-.823 0-1.475.206-2.092.206-.617.206-1.268.206-1.885.412-.617.205-1.062.41-1.68.617-2.741 1.028-5.243 3.118-8.19 5.86-4.593 4.182-10.488 10.488-19.914 11.31h-1.885c-10.487 0-16.965-6.888-21.798-11.31-3.981-3.614-6.823-6.112-10.863-6.88a7.478 7.478 0 0 1-.61.026c-.823 0-1.474.205-2.09.205-.618.206-1.27.206-1.886.412-.617.205-1.062.41-1.68.616-2.741 1.029-5.243 3.12-8.19 5.861-4.593 4.182-10.489 10.488-19.914 11.31h-1.885c-7.951 0-13.4-3.975-17.822-7.745-1.474-1.474-2.708-2.708-3.976-3.77-4.833-4.387-7.986-7.13-13.64-7.13-.823 0-1.475.206-2.092.206-.617.206-1.268.206-1.885.412-.617.205-1.062.41-1.68.617-2.741 1.028-5.243 3.118-8.19 5.86-4.593 4.182-10.488 10.488-19.914 11.31h-1.885c-10.487 0-16.965-6.888-21.798-11.31-3.981-3.614-6.823-6.112-10.863-6.88a7.478 7.478 0 0 1-.61.026c-.823 0-1.474.205-2.09.205-.618.206-1.27.206-1.886.412-.617.205-1.062.41-1.68.616-2.741 1.029-5.243 3.12-8.19 5.861-4.593 4.182-10.489 10.488-19.914 11.31h-1.885c-7.951 0-13.4-3.975-17.822-7.745-1.474-1.474-2.708-2.708-3.976-3.77-4.833-4.387-7.986-7.13-13.64-7.13-.823 0-1.475.206-2.092.206-.617.206-1.268.206-1.885.412-.617.205-1.062.41-1.68.617-2.741 1.028-5.243 3.118-8.19 5.86-4.593 4.182-10.488 10.488-19.914 11.31h-1.885c-10.487 0-16.965-6.888-21.798-11.31-3.981-3.614-6.823-6.112-10.863-6.88a7.478 7.478 0 0 1-.61.026c-.823 0-1.474.205-2.09.205-.618.206-1.27.206-1.886.412-.617.205-1.062.41-1.68.616-2.741 1.029-5.243 3.12-8.19 5.861-4.593 4.182-10.489 10.488-19.914 11.31h-1.885c-7.951 0-13.4-3.975-17.822-7.745-1.474-1.474-2.708-2.708-3.976-3.77-4.833-4.387-7.986-7.13-13.64-7.13-.823 0-1.475.206-2.092.206-.617.206-1.268.206-1.885.412-.617.205-1.062.41-1.68.617-2.741 1.028-5.243 3.118-8.19 5.86-4.593 4.182-10.488 10.488-19.914 11.31h-1.885c-10.487 0-16.965-6.888-21.798-11.31-3.981-3.614-6.823-6.112-10.863-6.88a7.478 7.478 0 0 1-.61.026c-.823 0-1.474.205-2.09.205-.618.206-1.27.206-1.886.412-.616.205-1.062.41-1.68.616-2.741 1.029-5.243 3.12-8.19 5.861-4.593 4.182-10.489 10.488-19.914 11.31h-1.885c-7.951 0-13.4-3.975-17.822-7.745-1.474-1.474-2.708-2.708-3.976-3.77-4.833-4.387-7.986-7.13-13.64-7.13-.823 0-1.475.206-2.092.206-.617.206-1.268.206-1.885.412-.617.205-1.062.41-1.68.617-2.741 1.028-5.243 3.118-8.19 5.86-4.593 4.182-10.488 10.488-19.914 11.31h-1.885c-10.487 0-16.965-6.888-21.798-11.31-3.981-3.614-6.823-6.112-10.863-6.88a7.478 7.478 0 0 1-.61.026c-.823 0-1.474.205-2.09.205-.618.206-1.27.206-1.886.412-.616.205-1.062.41-1.68.616-2.741 1.029-5.243 3.12-8.19 5.861-4.593 4.182-10.489 10.488-19.914 11.31h-1.885c-7.951 0-13.4-3.975-17.822-7.745-1.474-1.474-2.708-2.708-3.976-3.77-4.833-4.387-7.986-7.13-13.64-7.13-.823 0-1.475.206-2.092.206-.617.206-1.268.206-1.885.412-.617.205-1.062.41-1.68.617-2.741 1.028-5.243 3.118-8.19 5.86-4.593 4.182-10.488 10.488-19.914 11.31h-1.885c-10.487 0-16.965-6.888-21.798-11.31-3.981-3.614-6.823-6.112-10.863-6.88a7.478 7.478 0 0 1-.61.026c-.823 0-1.474.205-2.09.205-.618.206-1.27.206-1.886.412-.616.205-1.062.41-1.68.616-2.741 1.029-5.243 3.12-8.19 5.861-4.593 4.182-10.489 10.488-19.914 11.31h-1.885c-7.951 0-13.4-3.975-17.822-7.745-1.474-1.474-2.708-2.708-3.976-3.77-4.833-4.387-7.986-7.13-13.64-7.13-.823 0-1.475.206-2.092.206-.617.206-1.268.206-1.885.412-.617.205-1.062.41-1.68.617-2.741 1.028-5.243 3.118-8.19 5.86-4.593 4.182-10.488 10.488-19.914 11.31h-1.885c-10.487 0-16.965-6.888-21.798-11.31-3.981-3.614-6.823-6.112-10.863-6.88a7.478 7.478 0 0 1-.61.026c-.823 0-1.474.205-2.09.205-.618.206-1.27.206-1.886.412-.616.205-1.062.41-1.68.616-2.741 1.029-5.243 3.12-8.19 5.861-4.593 4.182-10.489 10.488-19.914 11.31h-1.885c-7.951 0-13.4-3.975-17.822-7.745-1.474-1.474-2.708-2.708-3.976-3.77-4.833-4.387-7.986-7.13-13.64-7.13-.823 0-1.475.206-2.092.206-.617.206-1.268.206-1.885.412-.617.205-1.062.41-1.68.617-2.741 1.028-5.243 3.118-8.19 5.86-4.593 4.182-10.488 10.488-19.914 11.31h-1.885c-10.487 0-16.965-6.888-21.798-11.31-3.981-3.614-6.823-6.112-10.863-6.88a7.478 7.478 0 0 1-.61.026c-.823 0-1.474.205-2.09.205-.618.206-1.27.206-1.886.412-.616.205-1.062.41-1.68.616-2.741 1.029-5.243 3.12-8.19 5.861-4.593 4.182-10.489 10.488-19.914 11.31h-1.885c-7.951 0-13.4-3.975-17.822-7.745-1.474-1.474-2.708-2.708-3.976-3.77-4.833-4.387-7.986-7.13-13.64-7.13-.823 0-1.475.206-2.092.206-.617.206-1.268.206-1.885.412-.617.205-1.062.41-1.68.617-2.741 1.028-5.243 3.118-8.19 5.86-4.593 4.182-10.488 10.488-19.914 11.31h-1.885c-10.487 0-16.965-6.888-21.798-11.31-3.981-3.614-6.823-6.112-10.863-6.88a7.478 7.478 0 0 1-.61.026c-.823 0-1.474.205-2.09.205-.618.206-1.27.206-1.886.412-.616.205-1.062.41-1.68.616-2.741 1.029-5.243 3.12-8.19 5.861-4.593 4.182-10.489 10.488-19.914 11.31h-1.885c-7.951 0-13.4-3.975-17.822-7.745-1.474-1.474-2.708-2.708-3.976-3.77-4.833-4.387-7.986-7.13-13.64-7.13-.823 0-1.475.206-2.092.206-.617.206-1.268.206-1.885.412-.617.205-1.062.41-1.68.617-2.741 1.028-5.243 3.118-8.19 5.86-4.593 4.182-10.488 10.488-19.914 11.31h-1.885c-10.487 0-16.965-6.888-21.798-11.31-3.981-3.614-6.823-6.112-10.863-6.88a7.478 7.478 0 0 1-.61.026c-.823 0-1.474.205-2.09.205-.618.206-1.27.206-1.886.412-.616.205-1.062.41-1.68.616-2.741 1.029-5.243 3.12-8.19 5.861-4.593 4.182-10.489 10.488-19.914 11.31h-1.885c-7.951 0-13.4-3.975-17.822-7.745-1.474-1.474-2.708-2.708-3.976-3.77-4.833-4.387-7.986-7.13-13.64-7.13-.823 0-1.475.206-2.092.206-.617.206-1.268.206-1.885.412-.617.205-1.062.41-1.68.617-2.741 1.028-5.243 3.118-8.19 5.86-4.593 4.182-10.488 10.488-19.914 11.31H44.07c-10.487 0-16.965-6.888-21.798-11.31-4.832-4.387-7.985-7.129-13.64-7.129-4.422.206-8.603-3.77-8.603-8.397 0-4.627 4.181-8.602 8.602-8.602 11.722 0 19.913 6.717 25.157 11.55 2.742 2.296 4.627 4.181 6.307 5.244.445.205.856.411 1.268.617 1.062.651 2.125 1.062 2.947 1.062.206 0 .412-.205.823-.205 2.296-.412 4.798-2.742 9.425-6.924 5.038-4.387 12.579-10.487 23.066-11.31h2.091c11.722 0 19.913 6.718 25.157 11.55 3.153 3.12 5.45 5.004 7.334 6.067 1.063.65 2.126 1.062 2.948 1.062.205 0 .411-.206.822-.206 2.297-.41 4.799-2.741 9.426-6.923 4.552-3.964 11.147-9.327 20.113-10.931a7.974 7.974 0 0 1 3.116-.653c11.722 0 19.913 6.717 25.157 11.55 2.742 2.296 4.627 4.181 6.307 5.244.445.205.857.411 1.268.617 1.062.651 2.125 1.062 2.947 1.062.206 0 .412-.205.823-.205 2.296-.412 4.798-2.742 9.425-6.924 5.038-4.387 12.579-10.487 23.066-11.31h2.091c11.722 0 19.913 6.718 25.157 11.55 3.153 3.12 5.45 5.004 7.334 6.067 1.063.65 2.126 1.062 2.948 1.062.205 0 .411-.206.822-.206 2.297-.41 4.799-2.741 9.426-6.923 4.552-3.964 11.147-9.327 20.113-10.931a7.974 7.974 0 0 1 3.116-.653c11.722 0 19.913 6.717 25.157 11.55 2.742 2.296 4.627 4.181 6.307 5.244.445.205.856.411 1.268.617 1.062.651 2.125 1.062 2.947 1.062.206 0 .412-.205.823-.205 2.296-.412 4.798-2.742 9.425-6.924 5.038-4.387 12.579-10.487 23.066-11.31h2.091c11.722 0 19.913 6.718 25.157 11.55 3.153 3.12 5.45 5.004 7.334 6.067 1.063.65 2.126 1.062 2.948 1.062.205 0 .411-.206.822-.206 2.297-.41 4.799-2.741 9.426-6.923 4.552-3.964 11.147-9.327 20.113-10.931a7.974 7.974 0 0 1 3.116-.653c11.722 0 19.913 6.717 25.157 11.55 2.742 2.296 4.627 4.181 6.307 5.244.445.205.856.411 1.268.617 1.062.651 2.125 1.062 2.947 1.062.206 0 .412-.205.823-.205 2.296-.412 4.798-2.742 9.425-6.924 5.038-4.387 12.579-10.487 23.066-11.31h2.091c11.722 0 19.913 6.718 25.157 11.55 3.153 3.12 5.45 5.004 7.334 6.067 1.063.65 2.126 1.062 2.948 1.062.205 0 .411-.206.822-.206 2.297-.41 4.799-2.741 9.426-6.923 4.552-3.964 11.147-9.327 20.113-10.931a7.974 7.974 0 0 1 3.116-.653c11.722 0 19.913 6.717 25.157 11.55 2.742 2.296 4.627 4.181 6.307 5.244.445.205.856.411 1.268.617 1.062.651 2.125 1.062 2.947 1.062.206 0 .412-.205.823-.205 2.296-.412 4.798-2.742 9.425-6.924 5.038-4.387 12.579-10.487 23.066-11.31h2.091c11.722 0 19.913 6.718 25.157 11.55 3.153 3.12 5.45 5.004 7.334 6.067 1.063.65 2.126 1.062 2.948 1.062.205 0 .411-.206.822-.206 2.297-.41 4.799-2.741 9.426-6.923 4.552-3.964 11.147-9.327 20.113-10.931a7.974 7.974 0 0 1 3.116-.653c11.722 0 19.913 6.717 25.157 11.55 2.742 2.296 4.627 4.181 6.307 5.244.445.205.856.411 1.268.617 1.062.651 2.125 1.062 2.947 1.062.206 0 .412-.205.823-.205 2.296-.412 4.798-2.742 9.425-6.924 5.038-4.387 12.579-10.487 23.066-11.31h2.091c11.722 0 19.913 6.718 25.157 11.55 3.153 3.12 5.45 5.004 7.334 6.067 1.063.65 2.126 1.062 2.948 1.062.205 0 .411-.206.822-.206 2.297-.41 4.799-2.741 9.426-6.923 4.552-3.964 11.147-9.327 20.113-10.931a7.974 7.974 0 0 1 3.116-.653c11.722 0 19.913 6.717 25.157 11.55 2.742 2.296 4.627 4.181 6.307 5.244.445.205.856.411 1.268.617 1.062.651 2.125 1.062 2.947 1.062.206 0 .412-.205.823-.205 2.296-.412 4.798-2.742 9.425-6.924 5.038-4.387 12.579-10.487 23.066-11.31h2.091c11.722 0 19.913 6.718 25.157 11.55 3.153 3.12 5.45 5.004 7.334 6.067 1.063.65 2.126 1.062 2.948 1.062.205 0 .411-.206.822-.206 2.297-.41 4.799-2.741 9.426-6.923 4.552-3.964 11.147-9.327 20.113-10.931a7.974 7.974 0 0 1 3.116-.653c11.722 0 19.913 6.717 25.157 11.55 2.742 2.296 4.627 4.181 6.307 5.244.445.205.856.411 1.268.617 1.062.651 2.125 1.062 2.947 1.062.206 0 .412-.205.823-.205 2.296-.412 4.798-2.742 9.425-6.924 5.038-4.387 12.579-10.487 23.066-11.31h2.091c11.722 0 19.913 6.718 25.157 11.55 3.153 3.12 5.45 5.004 7.334 6.067 1.063.65 2.126 1.062 2.948 1.062.205 0 .411-.206.822-.206 2.297-.41 4.799-2.741 9.426-6.923 4.552-3.964 11.147-9.327 20.113-10.931a7.974 7.974 0 0 1 3.116-.653c11.722 0 19.913 6.717 25.157 11.55 2.742 2.296 4.627 4.181 6.307 5.244.445.205.856.411 1.268.617 1.062.651 2.125 1.062 2.947 1.062.206 0 .412-.205.823-.205 2.296-.412 4.798-2.742 9.425-6.924 5.038-4.387 12.579-10.487 23.066-11.31h2.091c11.722 0 19.913 6.718 25.157 11.55 3.153 3.12 5.45 5.004 7.334 6.067 1.063.65 2.126 1.062 2.948 1.062.205 0 .411-.206.822-.206 2.297-.41 4.799-2.741 9.426-6.923 4.552-3.964 11.147-9.327 20.113-10.931a7.974 7.974 0 0 1 3.116-.653c11.722 0 19.913 6.717 25.157 11.55 2.742 2.296 4.627 4.181 6.307 5.244.445.205.856.411 1.268.617 1.062.651 2.125 1.062 2.947 1.062.206 0 .412-.205.823-.205 2.296-.412 4.798-2.742 9.425-6.924 5.038-4.387 12.579-10.487 23.066-11.31h2.091c11.722 0 19.913 6.718 25.157 11.55 3.153 3.12 5.45 5.004 7.334 6.067 1.063.65 2.126 1.062 2.948 1.062.205 0 .411-.206.822-.206 2.297-.41 4.799-2.741 9.426-6.923 4.552-3.964 11.147-9.327 20.113-10.931zm3.124-24.713c-4.626.617-7.574 3.153-11.755 6.923-4.593 4.181-10.488 10.488-19.913 11.31h-1.885c-7.952 0-13.401-3.976-17.822-7.746-1.475-1.474-2.708-2.707-3.976-3.77-4.833-4.421-7.986-6.923-13.641-6.923-.823 0-1.474.206-2.091.206-4.627.616-7.575 3.153-11.756 6.923-4.593 4.181-10.488 10.488-19.913 11.31h-1.885c-10.488 0-16.966-6.889-21.798-11.31-4.811-4.402-7.958-6.901-13.565-6.923-4.626.617-7.574 3.153-11.755 6.923-4.593 4.181-10.488 10.488-19.913 11.31h-1.885c-7.952 0-13.401-3.976-17.822-7.746-1.475-1.474-2.708-2.707-3.976-3.77-4.833-4.421-7.986-6.923-13.641-6.923-.823 0-1.474.206-2.091.206-4.627.616-7.575 3.153-11.756 6.923-4.593 4.181-10.488 10.488-19.913 11.31h-1.885c-10.488 0-16.966-6.889-21.798-11.31-4.811-4.402-7.958-6.901-13.565-6.923-4.626.617-7.574 3.153-11.755 6.923-4.593 4.181-10.488 10.488-19.913 11.31h-1.885c-7.952 0-13.401-3.976-17.822-7.746-1.475-1.474-2.708-2.707-3.976-3.77-4.833-4.421-7.986-6.923-13.641-6.923-.823 0-1.474.206-2.091.206-4.627.616-7.575 3.153-11.756 6.923-4.593 4.181-10.488 10.488-19.913 11.31h-1.885c-10.488 0-16.966-6.889-21.798-11.31-4.811-4.402-7.958-6.901-13.565-6.923-4.626.617-7.574 3.153-11.755 6.923-4.593 4.181-10.488 10.488-19.913 11.31h-1.885c-7.952 0-13.401-3.976-17.822-7.746-1.475-1.474-2.708-2.707-3.976-3.77-4.833-4.421-7.986-6.923-13.641-6.923-.823 0-1.474.206-2.091.206-4.627.616-7.575 3.153-11.756 6.923-4.593 4.181-10.488 10.488-19.913 11.31h-1.885c-10.488 0-16.966-6.889-21.798-11.31-4.811-4.402-7.958-6.901-13.565-6.923-4.626.617-7.574 3.153-11.755 6.923-4.593 4.181-10.488 10.488-19.913 11.31h-1.885c-7.952 0-13.401-3.976-17.822-7.746-1.475-1.474-2.708-2.707-3.976-3.77-4.833-4.421-7.986-6.923-13.641-6.923-.823 0-1.474.206-2.091.206-4.627.616-7.575 3.153-11.756 6.923-4.593 4.181-10.488 10.488-19.913 11.31h-1.885c-10.488 0-16.966-6.889-21.798-11.31-4.811-4.402-7.958-6.901-13.565-6.923-4.626.617-7.574 3.153-11.755 6.923-4.593 4.181-10.488 10.488-19.913 11.31h-1.885c-7.952 0-13.401-3.976-17.822-7.746-1.475-1.474-2.708-2.707-3.976-3.77-4.833-4.421-7.986-6.923-13.641-6.923-.823 0-1.474.206-2.091.206-4.627.616-7.575 3.153-11.756 6.923-4.593 4.181-10.488 10.488-19.913 11.31h-1.885c-10.488 0-16.966-6.889-21.798-11.31-4.811-4.402-7.958-6.901-13.565-6.923-4.626.617-7.574 3.153-11.755 6.923-4.593 4.181-10.488 10.488-19.913 11.31h-1.885c-7.952 0-13.401-3.976-17.822-7.746-1.475-1.474-2.708-2.707-3.976-3.77-4.833-4.421-7.986-6.923-13.641-6.923-.823 0-1.474.206-2.091.206-4.627.616-7.575 3.153-11.756 6.923-4.593 4.181-10.488 10.488-19.913 11.31h-1.885c-10.488 0-16.966-6.889-21.798-11.31-4.811-4.402-7.958-6.901-13.565-6.923-4.626.617-7.574 3.153-11.755 6.923-4.593 4.181-10.488 10.488-19.913 11.31h-1.885c-7.952 0-13.401-3.976-17.822-7.746-1.475-1.474-2.708-2.707-3.976-3.77-4.833-4.421-7.986-6.923-13.641-6.923-.823 0-1.474.206-2.091.206-4.627.616-7.575 3.153-11.756 6.923-4.593 4.181-10.488 10.488-19.913 11.31h-1.885c-10.488 0-16.966-6.889-21.798-11.31-4.811-4.402-7.958-6.901-13.565-6.923-4.626.617-7.574 3.153-11.755 6.923-4.593 4.181-10.488 10.488-19.913 11.31h-1.885c-7.952 0-13.401-3.976-17.822-7.746-1.475-1.474-2.708-2.707-3.976-3.77-4.833-4.421-7.986-6.923-13.641-6.923-.823 0-1.474.206-2.091.206-4.627.616-7.575 3.153-11.756 6.923-4.593 4.181-10.488 10.488-19.913 11.31h-1.885c-10.488 0-16.966-6.889-21.798-11.31-4.811-4.402-7.958-6.901-13.565-6.923-4.626.617-7.574 3.153-11.755 6.923-4.593 4.181-10.488 10.488-19.913 11.31h-1.885c-7.952 0-13.401-3.976-17.822-7.746-1.475-1.474-2.708-2.707-3.976-3.77-4.833-4.421-7.986-6.923-13.641-6.923-.823 0-1.474.206-2.091.206-4.627.616-7.575 3.153-11.756 6.923-4.593 4.181-10.488 10.488-19.913 11.31h-1.885c-10.488 0-16.966-6.889-21.798-11.31-4.833-4.422-7.986-6.923-13.641-6.923C4.142 17.17-.246 13.4.029 9.014-.38 4.627 3.594.411 8.015.206h.823c11.721 0 19.913 6.477 25.157 11.31 2.742 2.296 4.627 4.181 6.306 5.244.823.445 1.68 1.062 2.296 1.268.617.206 1.268.411 1.885.411.206 0 .412-.205.823-.205 2.296-.412 4.798-2.742 9.425-6.924C59.768 6.718 67.31.823 77.796 0h2.091C91.61 0 99.8 6.478 105.044 11.31a38.033 38.033 0 0 0 3.565 3.154c1.885 1.885 3.564 2.947 4.832 3.564.617.206 1.268.411 1.885.411.206 0 .411-.205.823-.205 2.296-.412 4.798-2.742 9.425-6.924C130.612 6.718 138.153.823 148.64 0h2.091c.617 0 1.062 0 1.68.206.616 0 1.062.205 1.679.41.065.022.128.044.189.069 8.867 1.584 15.325 6.784 19.716 10.831 2.742 2.296 4.627 4.181 6.306 5.244.823.445 1.68 1.062 2.296 1.268.617.206 1.268.411 1.885.411.206 0 .412-.205.823-.205 2.296-.412 4.798-2.742 9.425-6.924C199.768 6.718 207.31.823 217.796 0h2.091c11.722 0 19.913 6.478 25.157 11.31a38.033 38.033 0 0 0 3.565 3.154c1.885 1.885 3.564 2.947 4.832 3.564.617.206 1.268.411 1.885.411.206 0 .411-.205.823-.205 2.296-.412 4.798-2.742 9.425-6.924C270.612 6.718 278.153.823 288.64 0h2.091c.617 0 1.062 0 1.68.206.616 0 1.062.205 1.679.41.065.022.128.044.189.069 8.867 1.584 15.325 6.784 19.716 10.831 2.742 2.296 4.627 4.181 6.306 5.244.823.445 1.68 1.062 2.296 1.268.617.206 1.268.411 1.885.411.206 0 .412-.205.823-.205 2.296-.412 4.798-2.742 9.425-6.924C339.768 6.718 347.31.823 357.796 0h2.091c11.722 0 19.913 6.478 25.157 11.31a38.033 38.033 0 0 0 3.565 3.154c1.885 1.885 3.564 2.947 4.832 3.564.617.206 1.268.411 1.885.411.206 0 .411-.205.823-.205 2.296-.412 4.798-2.742 9.425-6.924C410.612 6.718 418.153.823 428.64 0h2.091c.617 0 1.062 0 1.68.206.616 0 1.062.205 1.679.41.065.022.128.044.189.069 8.867 1.584 15.325 6.784 19.716 10.831 2.742 2.296 4.627 4.181 6.306 5.244.823.445 1.68 1.062 2.296 1.268.617.206 1.268.411 1.885.411.206 0 .412-.205.823-.205 2.296-.412 4.798-2.742 9.425-6.924C479.768 6.718 487.31.823 497.796 0h2.091c11.722 0 19.913 6.478 25.157 11.31a38.033 38.033 0 0 0 3.565 3.154c1.885 1.885 3.564 2.947 4.832 3.564.617.206 1.268.411 1.885.411.206 0 .411-.205.823-.205 2.296-.412 4.798-2.742 9.425-6.924C550.612 6.718 558.153.823 568.64 0h2.091c.617 0 1.062 0 1.68.206.616 0 1.062.205 1.679.41.065.022.128.044.189.069 8.867 1.584 15.325 6.784 19.716 10.831 2.742 2.296 4.627 4.181 6.306 5.244.823.445 1.68 1.062 2.296 1.268.617.206 1.268.411 1.885.411.206 0 .412-.205.823-.205 2.296-.412 4.798-2.742 9.425-6.924C619.768 6.718 627.31.823 637.796 0h2.091c11.722 0 19.913 6.478 25.157 11.31a38.033 38.033 0 0 0 3.565 3.154c1.885 1.885 3.564 2.947 4.832 3.564.617.206 1.268.411 1.885.411.206 0 .411-.205.823-.205 2.296-.412 4.798-2.742 9.425-6.924C690.612 6.718 698.153.823 708.64 0h2.091c.617 0 1.062 0 1.68.206.616 0 1.062.205 1.679.41.065.022.128.044.189.069 8.867 1.584 15.325 6.784 19.716 10.831 2.742 2.296 4.627 4.181 6.306 5.244.823.445 1.68 1.062 2.296 1.268.617.206 1.268.411 1.885.411.206 0 .412-.205.823-.205 2.296-.412 4.798-2.742 9.425-6.924C759.768 6.718 767.31.823 777.796 0h2.091c11.722 0 19.913 6.478 25.157 11.31a38.033 38.033 0 0 0 3.565 3.154c1.885 1.885 3.564 2.947 4.832 3.564.617.206 1.268.411 1.885.411.206 0 .411-.205.823-.205 2.296-.412 4.798-2.742 9.425-6.924C830.612 6.718 838.153.823 848.64 0h2.091c.617 0 1.062 0 1.68.206.616 0 1.062.205 1.679.41.065.022.128.044.189.069 8.867 1.584 15.325 6.784 19.716 10.831 2.742 2.296 4.627 4.181 6.306 5.244.823.445 1.68 1.062 2.296 1.268.617.206 1.268.411 1.885.411.206 0 .412-.205.823-.205 2.296-.412 4.798-2.742 9.425-6.924C899.768 6.718 907.31.823 917.796 0h2.091c11.722 0 19.913 6.478 25.157 11.31a38.033 38.033 0 0 0 3.565 3.154c1.885 1.885 3.564 2.947 4.832 3.564.617.206 1.268.411 1.885.411.206 0 .411-.205.823-.205 2.296-.412 4.798-2.742 9.425-6.924C970.612 6.718 978.153.823 988.64 0h2.091c.617 0 1.062 0 1.68.206.616 0 1.062.205 1.679.41.065.022.128.044.189.069 8.867 1.584 15.325 6.784 19.716 10.831 2.742 2.296 4.627 4.181 6.306 5.244.823.445 1.68 1.062 2.296 1.268.617.206 1.268.411 1.885.411.206 0 .412-.205.823-.205 2.296-.412 4.798-2.742 9.425-6.924 5.038-4.592 12.58-10.487 23.066-11.31h2.091c11.722 0 19.913 6.478 25.157 11.31a38.033 38.033 0 0 0 3.565 3.154c1.885 1.885 3.564 2.947 4.832 3.564.617.206 1.268.411 1.885.411.206 0 .411-.205.823-.205 2.296-.412 4.798-2.742 9.425-6.924C1110.612 6.718 1118.153.823 1128.64 0h2.091c.617 0 1.062 0 1.68.206.616 0 1.062.205 1.679.41.065.022.128.044.189.069 8.867 1.584 15.325 6.784 19.716 10.831 2.742 2.296 4.627 4.181 6.306 5.244.823.445 1.68 1.062 2.296 1.268.617.206 1.268.411 1.885.411.206 0 .412-.205.823-.205 2.296-.412 4.798-2.742 9.425-6.924 5.038-4.592 12.58-10.487 23.066-11.31h2.091c11.722 0 19.913 6.478 25.157 11.31a38.033 38.033 0 0 0 3.565 3.154c1.885 1.885 3.564 2.947 4.832 3.564.617.206 1.268.411 1.885.411.206 0 .411-.205.823-.205 2.296-.412 4.798-2.742 9.425-6.924C1250.612 6.718 1258.153.823 1268.64 0h2.091c.617 0 1.062 0 1.68.206.616 0 1.062.205 1.679.41.065.022.128.044.189.069 8.867 1.584 15.325 6.784 19.716 10.831 2.742 2.296 4.627 4.181 6.306 5.244.823.445 1.68 1.062 2.296 1.268.617.206 1.268.411 1.885.411.206 0 .412-.205.823-.205 2.296-.412 4.798-2.742 9.425-6.924 5.038-4.592 12.58-10.487 23.066-11.31h2.091c11.722 0 19.913 6.478 25.157 11.31a38.033 38.033 0 0 0 3.565 3.154c1.885 1.885 3.564 2.947 4.832 3.564.617.206 1.268.411 1.885.411.206 0 .411-.205.823-.205 2.296-.412 4.798-2.742 9.425-6.924C1390.612 6.718 1398.153.823 1408.64 0h2.091c.617 0 1.062 0 1.68.206.616 0 1.062.205 1.679.41.065.022.128.044.189.069 8.867 1.584 15.325 6.784 19.716 10.831 2.742 2.296 4.627 4.181 6.306 5.244.823.445 1.68 1.062 2.296 1.268.617.206 1.268.411 1.885.411.206 0 .412-.205.823-.205 2.296-.412 4.798-2.742 9.425-6.924 5.038-4.592 12.58-10.487 23.066-11.31h2.091c11.722 0 19.913 6.478 25.157 11.31a38.033 38.033 0 0 0 3.565 3.154c1.885 1.885 3.564 2.947 4.832 3.564.617.206 1.268.411 1.885.411.206 0 .411-.205.823-.205 2.296-.412 4.798-2.742 9.425-6.924C1530.612 6.718 1538.153.823 1548.64 0h2.091c.617 0 1.062 0 1.68.206.616 0 1.062.205 1.679.41.651.207 1.062.618 1.474.823.445.24.856.652 1.268 1.063.822.857 1.473 1.68 1.885 2.742.411.857.617 2.09.617 3.153 0 2.742-1.68 5.45-3.976 6.923-.411.412-1.063.617-1.474.823-.857.411-2.09.617-3.153.617-.823 0-1.474.206-2.091.206-4.627.616-7.575 3.153-11.756 6.923-4.593 4.181-10.488 10.488-19.913 11.31h-1.885c-7.952 0-13.401-3.976-17.822-7.746-1.475-1.474-2.708-2.707-3.976-3.77-4.833-4.421-7.986-6.923-13.641-6.923-.823 0-1.474.206-2.091.206-4.627.616-7.575 3.153-11.756 6.923-4.593 4.181-10.488 10.488-19.913 11.31h-1.885c-10.488 0-16.966-6.889-21.798-11.31-4.811-4.402-7.958-6.901-13.565-6.923zm-2.598 66.245a7.44 7.44 0 0 1 2.761-.406c.366 0 .727.007 1.085.02.358-.013.718-.02 1.083-.02.82-.04 1.637.087 2.424.35 9.326 1.44 16.033 7.025 20.565 11.2 5.244 4.834 7.986 6.924 10.488 6.924s5.038-2.09 10.282-6.923 13.436-11.55 25.157-11.55c11.722 0 19.708 6.717 25.157 11.55 5.244 4.833 7.986 6.923 10.488 6.923s5.038-2.09 10.282-6.923 13.435-11.55 25.157-11.55c4.216-.206 8.397 4.01 8.397 8.396 0 4.422-4.181 8.603-8.603 8.603-5.655 0-9.014 2.742-13.846 7.13-4.833 4.386-11.31 11.31-21.798 11.31-10.488 0-17-6.924-21.799-11.31-4.833-4.422-7.986-7.13-13.64-7.13-5.656 0-8.809 2.742-13.641 7.13-4.833 4.386-11.31 11.31-21.799 11.31-10.487 0-17-6.924-21.798-11.31-4.545-4.16-7.605-6.802-12.658-7.101-5.078.301-8.32 2.973-12.867 7.1-4.833 4.387-11.31 11.31-21.798 11.31-10.488 0-17-6.923-21.799-11.31-4.833-4.42-7.986-7.129-13.64-7.129-5.656 0-8.809 2.742-13.641 7.13-4.833 4.386-11.31 11.31-21.799 11.31-10.487 0-17-6.924-21.798-11.31-4.545-4.16-7.605-6.802-12.658-7.101-5.078.301-8.32 2.973-12.867 7.1-4.833 4.387-11.31 11.31-21.798 11.31-10.488 0-17-6.923-21.799-11.31-4.833-4.42-7.986-7.129-13.64-7.129-5.656 0-8.809 2.742-13.641 7.13-4.833 4.386-11.31 11.31-21.799 11.31-10.487 0-17-6.924-21.798-11.31-4.545-4.16-7.605-6.802-12.658-7.101-5.078.301-8.32 2.973-12.867 7.1-4.833 4.387-11.31 11.31-21.798 11.31-10.488 0-17-6.923-21.799-11.31-4.833-4.42-7.986-7.129-13.64-7.129-5.656 0-8.809 2.742-13.641 7.13-4.833 4.386-11.31 11.31-21.799 11.31-10.487 0-17-6.924-21.798-11.31-4.545-4.16-7.605-6.802-12.658-7.101-5.078.301-8.32 2.973-12.867 7.1-4.833 4.387-11.31 11.31-21.798 11.31-10.488 0-17-6.923-21.799-11.31-4.833-4.42-7.986-7.129-13.64-7.129-5.656 0-8.809 2.742-13.641 7.13-4.833 4.386-11.31 11.31-21.799 11.31-10.487 0-17-6.924-21.798-11.31-4.545-4.16-7.605-6.802-12.658-7.101-5.078.301-8.32 2.973-12.867 7.1-4.833 4.387-11.31 11.31-21.798 11.31-10.488 0-17-6.923-21.799-11.31-4.833-4.42-7.986-7.129-13.64-7.129-5.656 0-8.809 2.742-13.641 7.13-4.833 4.386-11.31 11.31-21.799 11.31-10.487 0-17-6.924-21.798-11.31-4.545-4.16-7.605-6.802-12.658-7.101-5.078.301-8.32 2.973-12.867 7.1-4.833 4.387-11.31 11.31-21.798 11.31-10.488 0-17-6.923-21.799-11.31-4.833-4.42-7.986-7.129-13.64-7.129-5.656 0-8.809 2.742-13.641 7.13-4.833 4.386-11.31 11.31-21.799 11.31-10.487 0-17-6.924-21.798-11.31-4.545-4.16-7.605-6.802-12.658-7.101-5.078.301-8.32 2.973-12.867 7.1-4.833 4.387-11.31 11.31-21.798 11.31-10.488 0-17-6.923-21.799-11.31-4.833-4.42-7.986-7.129-13.64-7.129-5.656 0-8.809 2.742-13.641 7.13-4.833 4.386-11.31 11.31-21.799 11.31-10.487 0-17-6.924-21.798-11.31-4.545-4.16-7.605-6.802-12.658-7.101-5.078.301-8.32 2.973-12.867 7.1-4.833 4.387-11.31 11.31-21.798 11.31-10.488 0-17-6.923-21.799-11.31-4.833-4.42-7.986-7.129-13.64-7.129-5.656 0-8.809 2.742-13.641 7.13-4.833 4.386-11.31 11.31-21.799 11.31-10.487 0-17-6.924-21.798-11.31-4.545-4.16-7.605-6.802-12.658-7.101-5.078.301-8.32 2.973-12.867 7.1-4.833 4.387-11.31 11.31-21.798 11.31-10.488 0-17-6.923-21.799-11.31-4.833-4.42-7.986-7.129-13.64-7.129-5.656 0-8.809 2.742-13.641 7.13-4.833 4.386-11.31 11.31-21.799 11.31-10.487 0-17-6.924-21.798-11.31-4.545-4.16-7.605-6.802-12.658-7.101-5.078.301-8.32 2.973-12.867 7.1-4.833 4.387-11.31 11.31-21.798 11.31-10.488 0-17-6.923-21.799-11.31-4.833-4.42-7.986-7.129-13.64-7.129-5.656 0-8.809 2.742-13.641 7.13-4.833 4.386-11.31 11.31-21.799 11.31-10.487 0-17-6.924-21.798-11.31-4.832-4.422-7.985-7.13-13.64-7.13C4.38 99.805.2 95.83.2 91.202s4.18-8.602 8.602-8.397c11.756 0 19.913 6.718 25.157 11.55 5.244 4.834 7.986 6.924 10.488 6.924s5.038-2.09 10.282-6.923 13.436-11.55 25.157-11.55c11.722 0 19.708 6.717 25.157 11.55 5.244 4.833 7.986 6.923 10.488 6.923s5.038-2.09 10.282-6.923c4.475-4.125 11.097-9.622 20.228-11.145a7.441 7.441 0 0 1 2.761-.406c.366 0 .727.007 1.085.02.358-.013.718-.02 1.083-.02.82-.04 1.637.087 2.424.35 9.326 1.44 16.033 7.025 20.565 11.2 5.244 4.834 7.986 6.924 10.488 6.924s5.038-2.09 10.282-6.923 13.436-11.55 25.157-11.55c11.722 0 19.708 6.717 25.157 11.55 5.244 4.833 7.986 6.923 10.488 6.923s5.038-2.09 10.282-6.923c4.475-4.125 11.097-9.622 20.228-11.145a7.441 7.441 0 0 1 2.761-.406c.366 0 .727.007 1.085.02.358-.013.718-.02 1.083-.02.82-.04 1.637.087 2.424.35 9.326 1.44 16.033 7.025 20.565 11.2 5.244 4.834 7.986 6.924 10.488 6.924s5.038-2.09 10.282-6.923 13.436-11.55 25.157-11.55c11.722 0 19.708 6.717 25.157 11.55 5.244 4.833 7.986 6.923 10.488 6.923s5.038-2.09 10.282-6.923c4.475-4.125 11.097-9.622 20.228-11.145a7.441 7.441 0 0 1 2.761-.406c.366 0 .727.007 1.085.02.358-.013.718-.02 1.083-.02.82-.04 1.637.087 2.424.35 9.326 1.44 16.033 7.025 20.565 11.2 5.244 4.834 7.986 6.924 10.488 6.924s5.038-2.09 10.282-6.923 13.436-11.55 25.157-11.55c11.722 0 19.708 6.717 25.157 11.55 5.244 4.833 7.986 6.923 10.488 6.923s5.038-2.09 10.282-6.923c4.475-4.125 11.097-9.622 20.228-11.145a7.441 7.441 0 0 1 2.761-.406c.366 0 .727.007 1.085.02.358-.013.718-.02 1.083-.02.82-.04 1.637.087 2.424.35 9.326 1.44 16.033 7.025 20.565 11.2 5.244 4.834 7.986 6.924 10.488 6.924s5.038-2.09 10.282-6.923 13.436-11.55 25.157-11.55c11.722 0 19.708 6.717 25.157 11.55 5.244 4.833 7.986 6.923 10.488 6.923s5.038-2.09 10.282-6.923c4.475-4.125 11.097-9.622 20.228-11.145a7.441 7.441 0 0 1 2.761-.406c.366 0 .727.007 1.085.02.358-.013.718-.02 1.083-.02.82-.04 1.637.087 2.424.35 9.326 1.44 16.033 7.025 20.565 11.2 5.244 4.834 7.986 6.924 10.488 6.924s5.038-2.09 10.282-6.923 13.436-11.55 25.157-11.55c11.722 0 19.708 6.717 25.157 11.55 5.244 4.833 7.986 6.923 10.488 6.923s5.038-2.09 10.282-6.923c4.475-4.125 11.097-9.622 20.228-11.145a7.441 7.441 0 0 1 2.761-.406c.366 0 .727.007 1.085.02.358-.013.718-.02 1.083-.02.82-.04 1.637.087 2.424.35 9.326 1.44 16.033 7.025 20.565 11.2 5.244 4.834 7.986 6.924 10.488 6.924s5.038-2.09 10.282-6.923 13.436-11.55 25.157-11.55c11.722 0 19.708 6.717 25.157 11.55 5.244 4.833 7.986 6.923 10.488 6.923s5.038-2.09 10.282-6.923c4.475-4.125 11.097-9.622 20.228-11.145a7.441 7.441 0 0 1 2.761-.406c.366 0 .727.007 1.085.02.358-.013.718-.02 1.083-.02.82-.04 1.637.087 2.424.35 9.326 1.44 16.033 7.025 20.565 11.2 5.244 4.834 7.986 6.924 10.488 6.924s5.038-2.09 10.282-6.923 13.436-11.55 25.157-11.55c11.722 0 19.708 6.717 25.157 11.55 5.244 4.833 7.986 6.923 10.488 6.923s5.038-2.09 10.282-6.923c4.475-4.125 11.097-9.622 20.228-11.145a7.44 7.44 0 0 1 2.761-.406c.366 0 .727.007 1.085.02.358-.013.718-.02 1.083-.02.82-.04 1.637.087 2.424.35 9.326 1.44 16.033 7.025 20.565 11.2 5.244 4.834 7.986 6.924 10.488 6.924s5.038-2.09 10.282-6.923 13.436-11.55 25.157-11.55c11.722 0 19.708 6.717 25.157 11.55 5.244 4.833 7.986 6.923 10.488 6.923s5.038-2.09 10.282-6.923c4.475-4.125 11.097-9.622 20.228-11.145a7.44 7.44 0 0 1 2.761-.406c.366 0 .727.007 1.085.02.358-.013.718-.02 1.083-.02.82-.04 1.637.087 2.424.35 9.326 1.44 16.033 7.025 20.565 11.2 5.244 4.834 7.986 6.924 10.488 6.924s5.038-2.09 10.282-6.923 13.436-11.55 25.157-11.55c11.722 0 19.708 6.717 25.157 11.55 5.244 4.833 7.986 6.923 10.488 6.923s5.038-2.09 10.282-6.923c4.475-4.125 11.097-9.622 20.228-11.145z"/><path d="M2946.516 41.694a7.974 7.974 0 0 1 3.116-.654c11.722 0 19.913 6.718 25.157 11.55 2.742 2.297 4.627 4.182 6.306 5.245.446.205.857.41 1.269.616 1.062.652 2.125 1.063 2.947 1.063.206 0 .411-.206.823-.206 2.296-.411 4.798-2.742 9.425-6.923 5.038-4.387 12.578-10.488 23.066-11.31h2.09c11.723 0 19.914 6.717 25.158 11.55 3.153 3.119 5.449 5.004 7.334 6.066 1.063.652 2.125 1.063 2.948 1.063.205 0 .41-.206.822-.206 2.297-.411 4.799-2.742 9.425-6.923 5.039-4.387 12.579-10.488 23.067-11.31h2.09c4.628 0 8.809 4.181 8.844 8.602 0 4.422-4.182 8.397-8.603 8.397-.823 0-1.474.206-2.091.206-.617.206-1.269.206-1.885.411-.617.206-1.062.411-1.68.617-2.741 1.028-5.243 3.12-8.19 5.861-4.594 4.181-10.489 10.488-19.914 11.31h-1.885c-7.951 0-13.401-3.975-17.822-7.745-1.474-1.474-2.708-2.708-3.976-3.77-4.833-4.388-7.986-7.13-13.641-7.13-.823 0-1.474.206-2.09.206-.618.206-1.269.206-1.886.411-.617.206-1.062.412-1.68.617-2.741 1.029-5.243 3.12-8.19 5.861-4.593 4.182-10.488 10.488-19.914 11.31h-1.885c-10.488 0-16.965-6.889-21.798-11.31-3.981-3.614-6.823-6.112-10.863-6.88a7.478 7.478 0 0 1-.61.025c-.823 0-1.474.206-2.091.206-.617.206-1.269.206-1.885.411-.617.206-1.062.411-1.68.617-2.741 1.028-5.243 3.12-8.19 5.861-4.594 4.181-10.489 10.488-19.914 11.31h-1.885c-7.951 0-13.401-3.975-17.822-7.745-1.474-1.474-2.708-2.708-3.976-3.77-4.833-4.388-7.986-7.13-13.641-7.13-.823 0-1.474.206-2.09.206-.618.206-1.269.206-1.886.411-.617.206-1.062.412-1.68.617-2.741 1.029-5.243 3.12-8.19 5.861-4.593 4.182-10.488 10.488-19.914 11.31h-1.885c-10.488 0-16.965-6.889-21.798-11.31-3.981-3.614-6.823-6.112-10.863-6.88a7.478 7.478 0 0 1-.61.025c-.823 0-1.474.206-2.091.206-.617.206-1.269.206-1.885.411-.617.206-1.062.411-1.68.617-2.741 1.028-5.243 3.12-8.19 5.861-4.594 4.181-10.489 10.488-19.914 11.31h-1.885c-7.951 0-13.401-3.975-17.822-7.745-1.474-1.474-2.708-2.708-3.976-3.77-4.833-4.388-7.986-7.13-13.641-7.13-.823 0-1.474.206-2.09.206-.618.206-1.269.206-1.886.411-.617.206-1.062.412-1.68.617-2.741 1.029-5.243 3.12-8.19 5.861-4.593 4.182-10.488 10.488-19.914 11.31h-1.885c-10.488 0-16.965-6.889-21.798-11.31-3.981-3.614-6.823-6.112-10.863-6.88a7.478 7.478 0 0 1-.61.025c-.823 0-1.474.206-2.091.206-.617.206-1.269.206-1.885.411-.617.206-1.062.411-1.68.617-2.741 1.028-5.243 3.12-8.19 5.861-4.594 4.181-10.489 10.488-19.914 11.31h-1.885c-7.951 0-13.401-3.975-17.822-7.745-1.474-1.474-2.708-2.708-3.976-3.77-4.833-4.388-7.986-7.13-13.641-7.13-.823 0-1.474.206-2.09.206-.618.206-1.269.206-1.886.411-.617.206-1.062.412-1.68.617-2.741 1.029-5.243 3.12-8.19 5.861-4.593 4.182-10.488 10.488-19.914 11.31h-1.885c-10.488 0-16.965-6.889-21.798-11.31-3.981-3.614-6.823-6.112-10.863-6.88a7.478 7.478 0 0 1-.61.025c-.823 0-1.474.206-2.091.206-.617.206-1.269.206-1.885.411-.617.206-1.062.411-1.68.617-2.741 1.028-5.243 3.12-8.19 5.861-4.594 4.181-10.489 10.488-19.914 11.31h-1.885c-7.951 0-13.401-3.975-17.822-7.745-1.474-1.474-2.708-2.708-3.976-3.77-4.833-4.388-7.986-7.13-13.641-7.13-.823 0-1.474.206-2.09.206-.618.206-1.269.206-1.886.411-.617.206-1.062.412-1.68.617-2.741 1.029-5.243 3.12-8.19 5.861-4.593 4.182-10.488 10.488-19.914 11.31h-1.885c-10.488 0-16.965-6.889-21.798-11.31-3.981-3.614-6.823-6.112-10.863-6.88a7.478 7.478 0 0 1-.61.025c-.823 0-1.474.206-2.091.206-.617.206-1.269.206-1.885.411-.617.206-1.062.411-1.68.617-2.741 1.028-5.243 3.12-8.19 5.861-4.594 4.181-10.489 10.488-19.914 11.31h-1.885c-7.951 0-13.401-3.975-17.822-7.745-1.474-1.474-2.708-2.708-3.976-3.77-4.833-4.388-7.986-7.13-13.641-7.13-.823 0-1.474.206-2.09.206-.618.206-1.269.206-1.886.411-.617.206-1.062.412-1.68.617-2.741 1.029-5.243 3.12-8.19 5.861-4.593 4.182-10.488 10.488-19.914 11.31h-1.885c-10.488 0-16.965-6.889-21.798-11.31-3.981-3.614-6.823-6.112-10.863-6.88a7.478 7.478 0 0 1-.61.025c-.823 0-1.474.206-2.091.206-.617.206-1.269.206-1.885.411-.617.206-1.062.411-1.68.617-2.741 1.028-5.243 3.12-8.19 5.861-4.594 4.181-10.489 10.488-19.914 11.31h-1.885c-7.951 0-13.401-3.975-17.822-7.745-1.474-1.474-2.708-2.708-3.976-3.77-4.833-4.388-7.986-7.13-13.641-7.13-.823 0-1.474.206-2.09.206-.618.206-1.269.206-1.886.411-.617.206-1.062.412-1.68.617-2.741 1.029-5.243 3.12-8.19 5.861-4.593 4.182-10.488 10.488-19.914 11.31h-1.885c-10.488 0-16.965-6.889-21.798-11.31-3.981-3.614-6.823-6.112-10.863-6.88a7.478 7.478 0 0 1-.61.025c-.823 0-1.474.206-2.091.206-.617.206-1.269.206-1.885.411-.617.206-1.062.411-1.68.617-2.741 1.028-5.243 3.12-8.19 5.861-4.594 4.181-10.489 10.488-19.914 11.31h-1.885c-7.951 0-13.401-3.975-17.822-7.745-1.474-1.474-2.708-2.708-3.976-3.77-4.833-4.388-7.986-7.13-13.641-7.13-.823 0-1.474.206-2.09.206-.618.206-1.269.206-1.886.411-.617.206-1.062.412-1.68.617-2.741 1.029-5.243 3.12-8.19 5.861-4.593 4.182-10.488 10.488-19.914 11.31h-1.885c-10.488 0-16.965-6.889-21.798-11.31-3.981-3.614-6.823-6.112-10.863-6.88a7.478 7.478 0 0 1-.61.025c-.823 0-1.474.206-2.091.206-.617.206-1.269.206-1.885.411-.617.206-1.062.411-1.68.617-2.741 1.028-5.243 3.12-8.19 5.861-4.594 4.181-10.489 10.488-19.914 11.31h-1.885c-7.951 0-13.401-3.975-17.822-7.745-1.474-1.474-2.708-2.708-3.976-3.77-4.833-4.388-7.986-7.13-13.641-7.13-.823 0-1.474.206-2.09.206-.618.206-1.269.206-1.886.411-.617.206-1.062.412-1.68.617-2.741 1.029-5.243 3.12-8.19 5.861-4.593 4.182-10.488 10.488-19.914 11.31h-1.885c-10.488 0-16.965-6.889-21.798-11.31-3.981-3.614-6.823-6.112-10.863-6.88a7.478 7.478 0 0 1-.61.025c-.823 0-1.474.206-2.091.206-.617.206-1.269.206-1.885.411-.617.206-1.062.411-1.68.617-2.741 1.028-5.243 3.12-8.19 5.861-4.594 4.181-10.489 10.488-19.914 11.31h-1.885c-7.951 0-13.401-3.975-17.822-7.745-1.474-1.474-2.708-2.708-3.976-3.77-4.833-4.388-7.986-7.13-13.641-7.13-.823 0-1.474.206-2.09.206-.618.206-1.269.206-1.886.411-.617.206-1.062.412-1.68.617-2.741 1.029-5.243 3.12-8.19 5.861-4.593 4.182-10.488 10.488-19.914 11.31h-1.885c-10.488 0-16.965-6.889-21.798-11.31-3.981-3.614-6.823-6.112-10.863-6.88a7.478 7.478 0 0 1-.61.025c-.823 0-1.474.206-2.091.206-.617.206-1.269.206-1.885.411-.617.206-1.062.411-1.68.617-2.741 1.028-5.243 3.12-8.19 5.861-4.594 4.181-10.489 10.488-19.914 11.31h-1.885c-7.951 0-13.401-3.975-17.822-7.745-1.474-1.474-2.708-2.708-3.976-3.77-4.833-4.388-7.986-7.13-13.641-7.13-.823 0-1.474.206-2.09.206-.618.206-1.269.206-1.886.411-.617.206-1.062.412-1.68.617-2.741 1.029-5.243 3.12-8.19 5.861-4.593 4.182-10.488 10.488-19.914 11.31h-1.885c-10.488 0-16.965-6.889-21.798-11.31-4.832-4.387-7.986-7.129-13.64-7.129-4.422.206-8.604-3.77-8.604-8.397 0-4.627 4.182-8.603 8.603-8.603 11.722 0 19.913 6.718 25.157 11.55 2.742 2.297 4.627 4.182 6.306 5.245.446.205.857.41 1.269.616 1.062.652 2.125 1.063 2.947 1.063.206 0 .411-.206.823-.206 2.296-.411 4.798-2.742 9.425-6.923 5.038-4.387 12.578-10.488 23.066-11.31h2.09c11.723 0 19.914 6.717 25.158 11.55 3.153 3.119 5.449 5.004 7.334 6.066 1.063.652 2.125 1.063 2.948 1.063.205 0 .41-.206.822-.206 2.297-.411 4.799-2.742 9.425-6.923 4.553-3.964 11.148-9.327 20.114-10.931a7.974 7.974 0 0 1 3.116-.654c11.722 0 19.913 6.718 25.157 11.55 2.742 2.297 4.627 4.182 6.306 5.245.446.205.857.41 1.269.616 1.062.652 2.125 1.063 2.947 1.063.206 0 .411-.206.823-.206 2.296-.411 4.798-2.742 9.425-6.923 5.038-4.387 12.578-10.488 23.066-11.31h2.09c11.723 0 19.914 6.717 25.158 11.55 3.153 3.119 5.449 5.004 7.334 6.066 1.063.652 2.125 1.063 2.948 1.063.205 0 .41-.206.822-.206 2.297-.411 4.799-2.742 9.425-6.923 4.553-3.964 11.148-9.327 20.114-10.931a7.974 7.974 0 0 1 3.116-.654c11.722 0 19.913 6.718 25.157 11.55 2.742 2.297 4.627 4.182 6.306 5.245.446.205.857.41 1.269.616 1.062.652 2.125 1.063 2.947 1.063.206 0 .411-.206.823-.206 2.296-.411 4.798-2.742 9.425-6.923 5.038-4.387 12.578-10.488 23.066-11.31h2.09c11.723 0 19.914 6.717 25.158 11.55 3.153 3.119 5.449 5.004 7.334 6.066 1.063.652 2.125 1.063 2.948 1.063.205 0 .41-.206.822-.206 2.297-.411 4.799-2.742 9.425-6.923 4.553-3.964 11.148-9.327 20.114-10.931a7.974 7.974 0 0 1 3.116-.654c11.722 0 19.913 6.718 25.157 11.55 2.742 2.297 4.627 4.182 6.306 5.245.446.205.857.41 1.269.616 1.062.652 2.125 1.063 2.947 1.063.206 0 .411-.206.823-.206 2.296-.411 4.798-2.742 9.425-6.923 5.038-4.387 12.578-10.488 23.066-11.31h2.09c11.723 0 19.914 6.717 25.158 11.55 3.153 3.119 5.449 5.004 7.334 6.066 1.063.652 2.125 1.063 2.948 1.063.205 0 .41-.206.822-.206 2.297-.411 4.799-2.742 9.425-6.923 4.553-3.964 11.148-9.327 20.114-10.931a7.974 7.974 0 0 1 3.116-.654c11.722 0 19.913 6.718 25.157 11.55 2.742 2.297 4.627 4.182 6.306 5.245.446.205.857.41 1.269.616 1.062.652 2.125 1.063 2.947 1.063.206 0 .411-.206.823-.206 2.296-.411 4.798-2.742 9.425-6.923 5.038-4.387 12.578-10.488 23.066-11.31h2.09c11.723 0 19.914 6.717 25.158 11.55 3.153 3.119 5.449 5.004 7.334 6.066 1.063.652 2.125 1.063 2.948 1.063.205 0 .41-.206.822-.206 2.297-.411 4.799-2.742 9.425-6.923 4.553-3.964 11.148-9.327 20.114-10.931a7.974 7.974 0 0 1 3.116-.654c11.722 0 19.913 6.718 25.157 11.55 2.742 2.297 4.627 4.182 6.306 5.245.446.205.857.41 1.269.616 1.062.652 2.125 1.063 2.947 1.063.206 0 .411-.206.823-.206 2.296-.411 4.798-2.742 9.425-6.923 5.038-4.387 12.578-10.488 23.066-11.31h2.09c11.723 0 19.914 6.717 25.158 11.55 3.153 3.119 5.449 5.004 7.334 6.066 1.063.652 2.125 1.063 2.948 1.063.205 0 .41-.206.822-.206 2.297-.411 4.799-2.742 9.425-6.923 4.553-3.964 11.148-9.327 20.114-10.931a7.974 7.974 0 0 1 3.116-.654c11.722 0 19.913 6.718 25.157 11.55 2.742 2.297 4.627 4.182 6.306 5.245.446.205.857.41 1.269.616 1.062.652 2.125 1.063 2.947 1.063.206 0 .411-.206.823-.206 2.296-.411 4.798-2.742 9.425-6.923 5.038-4.387 12.578-10.488 23.066-11.31h2.09c11.723 0 19.914 6.717 25.158 11.55 3.153 3.119 5.449 5.004 7.334 6.066 1.063.652 2.125 1.063 2.948 1.063.205 0 .41-.206.822-.206 2.297-.411 4.799-2.742 9.425-6.923 4.553-3.964 11.148-9.327 20.114-10.931a7.974 7.974 0 0 1 3.116-.654c11.722 0 19.913 6.718 25.157 11.55 2.742 2.297 4.627 4.182 6.306 5.245.446.205.857.41 1.269.616 1.062.652 2.125 1.063 2.947 1.063.206 0 .411-.206.823-.206 2.296-.411 4.798-2.742 9.425-6.923 5.038-4.387 12.578-10.488 23.066-11.31h2.09c11.723 0 19.914 6.717 25.158 11.55 3.153 3.119 5.449 5.004 7.334 6.066 1.063.652 2.125 1.063 2.948 1.063.205 0 .41-.206.822-.206 2.297-.411 4.799-2.742 9.425-6.923 4.553-3.964 11.148-9.327 20.114-10.931a7.974 7.974 0 0 1 3.116-.654c11.722 0 19.913 6.718 25.157 11.55 2.742 2.297 4.627 4.182 6.306 5.245.446.205.857.41 1.269.616 1.062.652 2.125 1.063 2.947 1.063.206 0 .411-.206.823-.206 2.296-.411 4.798-2.742 9.425-6.923 5.038-4.387 12.578-10.488 23.066-11.31h2.09c11.723 0 19.914 6.717 25.158 11.55 3.153 3.119 5.449 5.004 7.334 6.066 1.063.652 2.125 1.063 2.948 1.063.205 0 .41-.206.822-.206 2.297-.411 4.799-2.742 9.425-6.923 4.553-3.964 11.148-9.327 20.114-10.931a7.974 7.974 0 0 1 3.116-.654c11.722 0 19.913 6.718 25.157 11.55 2.742 2.297 4.627 4.182 6.306 5.245.446.205.857.41 1.269.616 1.062.652 2.125 1.063 2.947 1.063.206 0 .411-.206.823-.206 2.296-.411 4.798-2.742 9.425-6.923 5.038-4.387 12.578-10.488 23.066-11.31h2.09c11.723 0 19.914 6.717 25.158 11.55 3.153 3.119 5.449 5.004 7.334 6.066 1.063.652 2.125 1.063 2.948 1.063.205 0 .41-.206.822-.206 2.297-.411 4.799-2.742 9.425-6.923 4.553-3.964 11.148-9.327 20.114-10.931zm3.124-24.714c-4.627.618-7.574 3.154-11.755 6.924-4.593 4.18-10.488 10.487-19.913 11.31h-1.885c-7.952 0-13.402-3.976-17.823-7.746-1.474-1.474-2.708-2.708-3.976-3.77-4.832-4.421-7.985-6.923-13.64-6.923-.823 0-1.474.205-2.091.205-4.627.617-7.575 3.153-11.756 6.924-4.593 4.18-10.488 10.487-19.913 11.31h-1.885c-10.488 0-16.966-6.89-21.798-11.31-4.811-4.402-7.958-6.901-13.565-6.924-4.627.618-7.574 3.154-11.755 6.924-4.593 4.18-10.488 10.487-19.913 11.31h-1.885c-7.952 0-13.402-3.976-17.823-7.746-1.474-1.474-2.708-2.708-3.976-3.77-4.832-4.421-7.985-6.923-13.64-6.923-.823 0-1.474.205-2.091.205-4.627.617-7.575 3.153-11.756 6.924-4.593 4.18-10.488 10.487-19.913 11.31h-1.885c-10.488 0-16.966-6.89-21.798-11.31-4.811-4.402-7.958-6.901-13.565-6.924-4.627.618-7.574 3.154-11.755 6.924-4.593 4.18-10.488 10.487-19.913 11.31h-1.885c-7.952 0-13.402-3.976-17.823-7.746-1.474-1.474-2.708-2.708-3.976-3.77-4.832-4.421-7.985-6.923-13.64-6.923-.823 0-1.474.205-2.091.205-4.627.617-7.575 3.153-11.756 6.924-4.593 4.18-10.488 10.487-19.913 11.31h-1.885c-10.488 0-16.966-6.89-21.798-11.31-4.811-4.402-7.958-6.901-13.565-6.924-4.627.618-7.574 3.154-11.755 6.924-4.593 4.18-10.488 10.487-19.913 11.31h-1.885c-7.952 0-13.402-3.976-17.823-7.746-1.474-1.474-2.708-2.708-3.976-3.77-4.832-4.421-7.985-6.923-13.64-6.923-.823 0-1.474.205-2.091.205-4.627.617-7.575 3.153-11.756 6.924-4.593 4.18-10.488 10.487-19.913 11.31h-1.885c-10.488 0-16.966-6.89-21.798-11.31-4.811-4.402-7.958-6.901-13.565-6.924-4.627.618-7.574 3.154-11.755 6.924-4.593 4.18-10.488 10.487-19.913 11.31h-1.885c-7.952 0-13.402-3.976-17.823-7.746-1.474-1.474-2.708-2.708-3.976-3.77-4.832-4.421-7.985-6.923-13.64-6.923-.823 0-1.474.205-2.091.205-4.627.617-7.575 3.153-11.756 6.924-4.593 4.18-10.488 10.487-19.913 11.31h-1.885c-10.488 0-16.966-6.89-21.798-11.31-4.811-4.402-7.958-6.901-13.565-6.924-4.627.618-7.574 3.154-11.755 6.924-4.593 4.18-10.488 10.487-19.913 11.31h-1.885c-7.952 0-13.402-3.976-17.823-7.746-1.474-1.474-2.708-2.708-3.976-3.77-4.832-4.421-7.985-6.923-13.64-6.923-.823 0-1.474.205-2.091.205-4.627.617-7.575 3.153-11.756 6.924-4.593 4.18-10.488 10.487-19.913 11.31h-1.885c-10.488 0-16.966-6.89-21.798-11.31-4.811-4.402-7.958-6.901-13.565-6.924-4.627.618-7.574 3.154-11.755 6.924-4.593 4.18-10.488 10.487-19.913 11.31h-1.885c-7.952 0-13.402-3.976-17.823-7.746-1.474-1.474-2.708-2.708-3.976-3.77-4.832-4.421-7.985-6.923-13.64-6.923-.823 0-1.474.205-2.091.205-4.627.617-7.575 3.153-11.756 6.924-4.593 4.18-10.488 10.487-19.913 11.31h-1.885c-10.488 0-16.966-6.89-21.798-11.31-4.811-4.402-7.958-6.901-13.565-6.924-4.627.618-7.574 3.154-11.755 6.924-4.593 4.18-10.488 10.487-19.913 11.31h-1.885c-7.952 0-13.402-3.976-17.823-7.746-1.474-1.474-2.708-2.708-3.976-3.77-4.832-4.421-7.985-6.923-13.64-6.923-.823 0-1.474.205-2.091.205-4.627.617-7.575 3.153-11.756 6.924-4.593 4.18-10.488 10.487-19.913 11.31h-1.885c-10.488 0-16.966-6.89-21.798-11.31-4.811-4.402-7.958-6.901-13.565-6.924-4.627.618-7.574 3.154-11.755 6.924-4.593 4.18-10.488 10.487-19.913 11.31h-1.885c-7.952 0-13.402-3.976-17.823-7.746-1.474-1.474-2.708-2.708-3.976-3.77-4.832-4.421-7.985-6.923-13.64-6.923-.823 0-1.474.205-2.091.205-4.627.617-7.575 3.153-11.756 6.924-4.593 4.18-10.488 10.487-19.913 11.31h-1.885c-10.488 0-16.966-6.89-21.798-11.31-4.811-4.402-7.958-6.901-13.565-6.924-4.627.618-7.574 3.154-11.755 6.924-4.593 4.18-10.488 10.487-19.913 11.31h-1.885c-7.952 0-13.402-3.976-17.823-7.746-1.474-1.474-2.708-2.708-3.976-3.77-4.832-4.421-7.985-6.923-13.64-6.923-.823 0-1.474.205-2.091.205-4.627.617-7.575 3.153-11.756 6.924-4.593 4.18-10.488 10.487-19.913 11.31h-1.885c-10.488 0-16.966-6.89-21.798-11.31-4.833-4.422-7.986-6.924-13.641-6.924-4.422.206-8.809-3.564-8.534-7.951-.411-4.387 3.565-8.603 7.986-8.809h.823c11.721 0 19.913 6.478 25.156 11.31 2.742 2.297 4.627 4.182 6.307 5.245.822.445 1.68 1.062 2.296 1.268.617.205 1.268.411 1.885.411.206 0 .411-.206.823-.206 2.296-.41 4.798-2.742 9.425-6.923 5.038-4.593 12.579-10.488 23.066-11.31h2.091c11.722 0 19.913 6.477 25.157 11.31a38.034 38.034 0 0 0 3.564 3.153c1.885 1.885 3.565 2.948 4.833 3.565.617.205 1.268.411 1.885.411.206 0 .411-.206.823-.206 2.296-.41 4.798-2.742 9.425-6.923 5.038-4.593 12.578-10.488 23.066-11.31h2.091c.617 0 1.062 0 1.68.205.616 0 1.062.206 1.679.412.065.02.128.043.189.067 8.867 1.585 15.324 6.785 19.715 10.832 2.742 2.296 4.627 4.181 6.307 5.244.822.445 1.68 1.062 2.296 1.268.617.205 1.268.411 1.885.411.206 0 .411-.206.823-.206 2.296-.41 4.798-2.742 9.425-6.923 5.038-4.593 12.579-10.488 23.066-11.31h2.091c11.722 0 19.913 6.477 25.157 11.31a38.034 38.034 0 0 0 3.564 3.153c1.885 1.885 3.565 2.948 4.833 3.565.617.205 1.268.411 1.885.411.206 0 .411-.206.823-.206 2.296-.41 4.798-2.742 9.425-6.923 5.038-4.593 12.578-10.488 23.066-11.31h2.091c.617 0 1.062 0 1.68.205.616 0 1.062.206 1.679.412.065.02.128.043.189.067 8.867 1.585 15.324 6.785 19.715 10.832 2.742 2.296 4.627 4.181 6.307 5.244.822.445 1.68 1.062 2.296 1.268.617.205 1.268.411 1.885.411.206 0 .411-.206.823-.206 2.296-.41 4.798-2.742 9.425-6.923 5.038-4.593 12.579-10.488 23.066-11.31h2.091c11.722 0 19.913 6.477 25.157 11.31a38.034 38.034 0 0 0 3.564 3.153c1.885 1.885 3.565 2.948 4.833 3.565.617.205 1.268.411 1.885.411.206 0 .411-.206.823-.206 2.296-.41 4.798-2.742 9.425-6.923 5.038-4.593 12.578-10.488 23.066-11.31h2.091c.617 0 1.062 0 1.68.205.616 0 1.062.206 1.679.412.065.02.128.043.189.067 8.867 1.585 15.324 6.785 19.715 10.832 2.742 2.296 4.627 4.181 6.307 5.244.822.445 1.68 1.062 2.296 1.268.617.205 1.268.411 1.885.411.206 0 .411-.206.823-.206 2.296-.41 4.798-2.742 9.425-6.923 5.038-4.593 12.579-10.488 23.066-11.31h2.091c11.722 0 19.913 6.477 25.157 11.31a38.034 38.034 0 0 0 3.564 3.153c1.885 1.885 3.565 2.948 4.833 3.565.617.205 1.268.411 1.885.411.206 0 .411-.206.823-.206 2.296-.41 4.798-2.742 9.425-6.923 5.038-4.593 12.578-10.488 23.066-11.31h2.091c.617 0 1.062 0 1.68.205.616 0 1.062.206 1.679.412.065.02.128.043.189.067 8.867 1.585 15.324 6.785 19.715 10.832 2.742 2.296 4.627 4.181 6.307 5.244.822.445 1.68 1.062 2.296 1.268.617.205 1.268.411 1.885.411.206 0 .411-.206.823-.206 2.296-.41 4.798-2.742 9.425-6.923 5.038-4.593 12.579-10.488 23.066-11.31h2.091c11.722 0 19.913 6.477 25.157 11.31a38.034 38.034 0 0 0 3.564 3.153c1.885 1.885 3.565 2.948 4.833 3.565.617.205 1.268.411 1.885.411.206 0 .411-.206.823-.206 2.296-.41 4.798-2.742 9.425-6.923 5.038-4.593 12.578-10.488 23.066-11.31h2.091c.617 0 1.062 0 1.68.205.616 0 1.062.206 1.679.412.065.02.128.043.189.067 8.867 1.585 15.324 6.785 19.715 10.832 2.742 2.296 4.627 4.181 6.307 5.244.822.445 1.68 1.062 2.296 1.268.617.205 1.268.411 1.885.411.206 0 .411-.206.823-.206 2.296-.41 4.798-2.742 9.425-6.923 5.038-4.593 12.579-10.488 23.066-11.31h2.091c11.722 0 19.913 6.477 25.157 11.31a38.034 38.034 0 0 0 3.564 3.153c1.885 1.885 3.565 2.948 4.833 3.565.617.205 1.268.411 1.885.411.206 0 .411-.206.823-.206 2.296-.41 4.798-2.742 9.425-6.923 5.038-4.593 12.578-10.488 23.066-11.31h2.091c.617 0 1.062 0 1.68.205.616 0 1.062.206 1.679.412.065.02.128.043.189.067 8.867 1.585 15.324 6.785 19.715 10.832 2.742 2.296 4.627 4.181 6.307 5.244.822.445 1.68 1.062 2.296 1.268.617.205 1.268.411 1.885.411.206 0 .411-.206.823-.206 2.296-.41 4.798-2.742 9.425-6.923 5.038-4.593 12.579-10.488 23.066-11.31h2.091c11.722 0 19.913 6.477 25.157 11.31a38.034 38.034 0 0 0 3.564 3.153c1.885 1.885 3.565 2.948 4.833 3.565.617.205 1.268.411 1.885.411.206 0 .411-.206.823-.206 2.296-.41 4.798-2.742 9.425-6.923 5.038-4.593 12.578-10.488 23.066-11.31h2.091c.617 0 1.062 0 1.68.205.616 0 1.062.206 1.679.412.065.02.128.043.189.067 8.867 1.585 15.324 6.785 19.715 10.832 2.742 2.296 4.627 4.181 6.307 5.244.822.445 1.68 1.062 2.296 1.268.617.205 1.268.411 1.885.411.206 0 .411-.206.823-.206 2.296-.41 4.798-2.742 9.425-6.923 5.038-4.593 12.579-10.488 23.066-11.31h2.091c11.722 0 19.913 6.477 25.157 11.31a38.034 38.034 0 0 0 3.564 3.153c1.885 1.885 3.565 2.948 4.833 3.565.617.205 1.268.411 1.885.411.206 0 .411-.206.823-.206 2.296-.41 4.798-2.742 9.425-6.923 5.038-4.593 12.578-10.488 23.066-11.31h2.091c.617 0 1.062 0 1.68.205.616 0 1.062.206 1.679.412.065.02.128.043.189.067 8.867 1.585 15.324 6.785 19.715 10.832 2.742 2.296 4.627 4.181 6.307 5.244.822.445 1.68 1.062 2.296 1.268.617.205 1.268.411 1.885.411.206 0 .411-.206.823-.206 2.296-.41 4.798-2.742 9.425-6.923 5.038-4.593 12.579-10.488 23.066-11.31h2.091c11.722 0 19.913 6.477 25.157 11.31a38.034 38.034 0 0 0 3.564 3.153c1.885 1.885 3.565 2.948 4.833 3.565.617.205 1.268.411 1.885.411.206 0 .411-.206.823-.206 2.296-.41 4.798-2.742 9.425-6.923 5.038-4.593 12.578-10.488 23.066-11.31h2.091c.617 0 1.062 0 1.68.205.616 0 1.062.206 1.679.412.065.02.128.043.189.067 8.867 1.585 15.324 6.785 19.715 10.832 2.742 2.296 4.627 4.181 6.307 5.244.822.445 1.68 1.062 2.296 1.268.617.205 1.268.411 1.885.411.206 0 .411-.206.823-.206 2.296-.41 4.798-2.742 9.425-6.923 5.038-4.593 12.579-10.488 23.066-11.31h2.091c11.722 0 19.913 6.477 25.157 11.31a38.034 38.034 0 0 0 3.564 3.153c1.885 1.885 3.565 2.948 4.833 3.565.617.205 1.268.411 1.885.411.206 0 .411-.206.823-.206 2.296-.41 4.798-2.742 9.425-6.923 5.038-4.593 12.578-10.488 23.066-11.31h2.091c.617 0 1.062 0 1.68.205.616 0 1.062.206 1.679.412.065.02.128.043.189.067 8.867 1.585 15.324 6.785 19.715 10.832 2.742 2.296 4.627 4.181 6.307 5.244.822.445 1.68 1.062 2.296 1.268.617.205 1.268.411 1.885.411.206 0 .411-.206.823-.206 2.296-.41 4.798-2.742 9.425-6.923 5.038-4.593 12.579-10.488 23.066-11.31h2.091c11.722 0 19.913 6.477 25.157 11.31a38.034 38.034 0 0 0 3.564 3.153c1.885 1.885 3.565 2.948 4.833 3.565.617.205 1.268.411 1.885.411.206 0 .411-.206.823-.206 2.296-.41 4.798-2.742 9.425-6.923 5.038-4.593 12.578-10.488 23.066-11.31h2.091c.617 0 1.062 0 1.68.205.616 0 1.062.206 1.679.412.65.205 1.062.617 1.473.822.446.24.857.651 1.269 1.063.822.857 1.473 1.68 1.885 2.742.41.856.617 2.09.617 3.153 0 2.742-1.68 5.45-3.976 6.923-.412.411-1.063.617-1.474.823-.857.411-2.09.617-3.153.617-.823 0-1.474.205-2.091.205-4.627.617-7.575 3.153-11.756 6.924-4.593 4.18-10.488 10.487-19.913 11.31h-1.885c-7.952 0-13.402-3.976-17.823-7.746-1.474-1.474-2.708-2.708-3.976-3.77-4.832-4.421-7.985-6.923-13.64-6.923-.823 0-1.474.205-2.091.205-4.627.617-7.575 3.153-11.756 6.924-4.593 4.18-10.488 10.487-19.913 11.31h-1.885c-10.488 0-16.966-6.89-21.798-11.31-4.811-4.402-7.958-6.901-13.565-6.924zm-2.598 66.246a7.441 7.441 0 0 1 2.761-.406c.365 0 .727.007 1.085.02.358-.013.718-.02 1.082-.02.82-.04 1.638.087 2.425.35 9.326 1.44 16.033 7.024 20.565 11.2 5.244 4.833 7.986 6.924 10.488 6.924s5.038-2.091 10.282-6.924c5.244-4.832 13.435-11.55 25.157-11.55s19.707 6.718 25.157 11.55c5.244 4.833 7.986 6.924 10.488 6.924s5.038-2.091 10.282-6.924c5.244-4.832 13.435-11.55 25.156-11.55 4.217-.206 8.398 4.01 8.398 8.397 0 4.421-4.181 8.603-8.603 8.603-5.655 0-9.014 2.742-13.847 7.13-4.832 4.386-11.31 11.31-21.798 11.31-10.487 0-17-6.924-21.798-11.31-4.833-4.422-7.986-7.13-13.64-7.13-5.656 0-8.809 2.742-13.642 7.13-4.832 4.386-11.31 11.31-21.798 11.31-10.488 0-17-6.924-21.798-11.31-4.545-4.16-7.605-6.802-12.658-7.101-5.078.301-8.32 2.972-12.868 7.1-4.832 4.387-11.31 11.31-21.798 11.31-10.487 0-17-6.923-21.798-11.31-4.833-4.421-7.986-7.129-13.64-7.129-5.656 0-8.809 2.742-13.642 7.13-4.832 4.386-11.31 11.31-21.798 11.31-10.488 0-17-6.924-21.798-11.31-4.545-4.16-7.605-6.802-12.658-7.101-5.078.301-8.32 2.972-12.868 7.1-4.832 4.387-11.31 11.31-21.798 11.31-10.487 0-17-6.923-21.798-11.31-4.833-4.421-7.986-7.129-13.64-7.129-5.656 0-8.809 2.742-13.642 7.13-4.832 4.386-11.31 11.31-21.798 11.31-10.488 0-17-6.924-21.798-11.31-4.545-4.16-7.605-6.802-12.658-7.101-5.078.301-8.32 2.972-12.868 7.1-4.832 4.387-11.31 11.31-21.798 11.31-10.487 0-17-6.923-21.798-11.31-4.833-4.421-7.986-7.129-13.64-7.129-5.656 0-8.809 2.742-13.642 7.13-4.832 4.386-11.31 11.31-21.798 11.31-10.488 0-17-6.924-21.798-11.31-4.545-4.16-7.605-6.802-12.658-7.101-5.078.301-8.32 2.972-12.868 7.1-4.832 4.387-11.31 11.31-21.798 11.31-10.487 0-17-6.923-21.798-11.31-4.833-4.421-7.986-7.129-13.64-7.129-5.656 0-8.809 2.742-13.642 7.13-4.832 4.386-11.31 11.31-21.798 11.31-10.488 0-17-6.924-21.798-11.31-4.545-4.16-7.605-6.802-12.658-7.101-5.078.301-8.32 2.972-12.868 7.1-4.832 4.387-11.31 11.31-21.798 11.31-10.487 0-17-6.923-21.798-11.31-4.833-4.421-7.986-7.129-13.64-7.129-5.656 0-8.809 2.742-13.642 7.13-4.832 4.386-11.31 11.31-21.798 11.31-10.488 0-17-6.924-21.798-11.31-4.545-4.16-7.605-6.802-12.658-7.101-5.078.301-8.32 2.972-12.868 7.1-4.832 4.387-11.31 11.31-21.798 11.31-10.487 0-17-6.923-21.798-11.31-4.833-4.421-7.986-7.129-13.64-7.129-5.656 0-8.809 2.742-13.642 7.13-4.832 4.386-11.31 11.31-21.798 11.31-10.488 0-17-6.924-21.798-11.31-4.545-4.16-7.605-6.802-12.658-7.101-5.078.301-8.32 2.972-12.868 7.1-4.832 4.387-11.31 11.31-21.798 11.31-10.487 0-17-6.923-21.798-11.31-4.833-4.421-7.986-7.129-13.64-7.129-5.656 0-8.809 2.742-13.642 7.13-4.832 4.386-11.31 11.31-21.798 11.31-10.488 0-17-6.924-21.798-11.31-4.545-4.16-7.605-6.802-12.658-7.101-5.078.301-8.32 2.972-12.868 7.1-4.832 4.387-11.31 11.31-21.798 11.31-10.487 0-17-6.923-21.798-11.31-4.833-4.421-7.986-7.129-13.64-7.129-5.656 0-8.809 2.742-13.642 7.13-4.832 4.386-11.31 11.31-21.798 11.31-10.488 0-17-6.924-21.798-11.31-4.545-4.16-7.605-6.802-12.658-7.101-5.078.301-8.32 2.972-12.868 7.1-4.832 4.387-11.31 11.31-21.798 11.31-10.487 0-17-6.923-21.798-11.31-4.833-4.421-7.986-7.129-13.64-7.129-5.656 0-8.809 2.742-13.642 7.13-4.832 4.386-11.31 11.31-21.798 11.31-10.488 0-17-6.924-21.798-11.31-4.545-4.16-7.605-6.802-12.658-7.101-5.078.301-8.32 2.972-12.868 7.1-4.832 4.387-11.31 11.31-21.798 11.31-10.487 0-17-6.923-21.798-11.31-4.833-4.421-7.986-7.129-13.64-7.129-5.656 0-8.809 2.742-13.642 7.13-4.832 4.386-11.31 11.31-21.798 11.31-10.488 0-17-6.924-21.798-11.31-4.832-4.422-7.986-7.13-13.64-7.13-4.422 0-8.604-3.976-8.604-8.603s4.182-8.603 8.603-8.397c11.756 0 19.913 6.718 25.157 11.55 5.244 4.833 7.986 6.924 10.488 6.924s5.038-2.091 10.282-6.924c5.244-4.832 13.435-11.55 25.157-11.55s19.707 6.718 25.157 11.55c5.244 4.833 7.986 6.924 10.488 6.924s5.038-2.091 10.282-6.924c4.475-4.124 11.097-9.621 20.228-11.144a7.441 7.441 0 0 1 2.761-.406c.365 0 .727.007 1.085.02.358-.013.718-.02 1.082-.02.82-.04 1.638.087 2.425.35 9.326 1.44 16.033 7.024 20.565 11.2 5.244 4.833 7.986 6.924 10.488 6.924s5.038-2.091 10.282-6.924c5.244-4.832 13.435-11.55 25.157-11.55s19.707 6.718 25.157 11.55c5.244 4.833 7.986 6.924 10.488 6.924s5.038-2.091 10.282-6.924c4.475-4.124 11.097-9.621 20.228-11.144a7.441 7.441 0 0 1 2.761-.406c.365 0 .727.007 1.085.02.358-.013.718-.02 1.082-.02.82-.04 1.638.087 2.425.35 9.326 1.44 16.033 7.024 20.565 11.2 5.244 4.833 7.986 6.924 10.488 6.924s5.038-2.091 10.282-6.924c5.244-4.832 13.435-11.55 25.157-11.55s19.707 6.718 25.157 11.55c5.244 4.833 7.986 6.924 10.488 6.924s5.038-2.091 10.282-6.924c4.475-4.124 11.097-9.621 20.228-11.144a7.441 7.441 0 0 1 2.761-.406c.365 0 .727.007 1.085.02.358-.013.718-.02 1.082-.02.82-.04 1.638.087 2.425.35 9.326 1.44 16.033 7.024 20.565 11.2 5.244 4.833 7.986 6.924 10.488 6.924s5.038-2.091 10.282-6.924c5.244-4.832 13.435-11.55 25.157-11.55s19.707 6.718 25.157 11.55c5.244 4.833 7.986 6.924 10.488 6.924s5.038-2.091 10.282-6.924c4.475-4.124 11.097-9.621 20.228-11.144a7.441 7.441 0 0 1 2.761-.406c.365 0 .727.007 1.085.02.358-.013.718-.02 1.082-.02.82-.04 1.638.087 2.425.35 9.326 1.44 16.033 7.024 20.565 11.2 5.244 4.833 7.986 6.924 10.488 6.924s5.038-2.091 10.282-6.924c5.244-4.832 13.435-11.55 25.157-11.55s19.707 6.718 25.157 11.55c5.244 4.833 7.986 6.924 10.488 6.924s5.038-2.091 10.282-6.924c4.475-4.124 11.097-9.621 20.228-11.144a7.441 7.441 0 0 1 2.761-.406c.365 0 .727.007 1.085.02.358-.013.718-.02 1.082-.02.82-.04 1.638.087 2.425.35 9.326 1.44 16.033 7.024 20.565 11.2 5.244 4.833 7.986 6.924 10.488 6.924s5.038-2.091 10.282-6.924c5.244-4.832 13.435-11.55 25.157-11.55s19.707 6.718 25.157 11.55c5.244 4.833 7.986 6.924 10.488 6.924s5.038-2.091 10.282-6.924c4.475-4.124 11.097-9.621 20.228-11.144a7.441 7.441 0 0 1 2.761-.406c.365 0 .727.007 1.085.02.358-.013.718-.02 1.082-.02.82-.04 1.638.087 2.425.35 9.326 1.44 16.033 7.024 20.565 11.2 5.244 4.833 7.986 6.924 10.488 6.924s5.038-2.091 10.282-6.924c5.244-4.832 13.435-11.55 25.157-11.55s19.707 6.718 25.157 11.55c5.244 4.833 7.986 6.924 10.488 6.924s5.038-2.091 10.282-6.924c4.475-4.124 11.097-9.621 20.228-11.144a7.441 7.441 0 0 1 2.761-.406c.365 0 .727.007 1.085.02.358-.013.718-.02 1.082-.02.82-.04 1.638.087 2.425.35 9.326 1.44 16.033 7.024 20.565 11.2 5.244 4.833 7.986 6.924 10.488 6.924s5.038-2.091 10.282-6.924c5.244-4.832 13.435-11.55 25.157-11.55s19.707 6.718 25.157 11.55c5.244 4.833 7.986 6.924 10.488 6.924s5.038-2.091 10.282-6.924c4.475-4.124 11.097-9.621 20.228-11.144a7.441 7.441 0 0 1 2.761-.406c.365 0 .727.007 1.085.02.358-.013.718-.02 1.082-.02.82-.04 1.638.087 2.425.35 9.326 1.44 16.033 7.024 20.565 11.2 5.244 4.833 7.986 6.924 10.488 6.924s5.038-2.091 10.282-6.924c5.244-4.832 13.435-11.55 25.157-11.55s19.707 6.718 25.157 11.55c5.244 4.833 7.986 6.924 10.488 6.924s5.038-2.091 10.282-6.924c4.475-4.124 11.097-9.621 20.228-11.144a7.441 7.441 0 0 1 2.761-.406c.365 0 .727.007 1.085.02.358-.013.718-.02 1.082-.02.82-.04 1.638.087 2.425.35 9.326 1.44 16.033 7.024 20.565 11.2 5.244 4.833 7.986 6.924 10.488 6.924s5.038-2.091 10.282-6.924c5.244-4.832 13.435-11.55 25.157-11.55s19.707 6.718 25.157 11.55c5.244 4.833 7.986 6.924 10.488 6.924s5.038-2.091 10.282-6.924c4.475-4.124 11.097-9.621 20.228-11.144z"/></g></svg>