<svg width="3129" height="117" xmlns="http://www.w3.org/2000/svg"><g fill="#5E35B1" fill-rule="evenodd"><path d="M2995.647 32.025a5.328 5.328 0 0 1 1.184-.129h126.634c1.428 0 2.666.522 3.711 1.566 1.044 1.045 1.567 2.28 1.567 3.71v10.554c0 1.428-.523 2.666-1.567 3.71-1.045 1.044-2.283 1.567-3.71 1.567H2996.83c-.41 0-.805-.043-1.183-.13a5.27 5.27 0 0 1-1.183.13H2867.83a5.048 5.048 0 0 1-2.183-.474 5.05 5.05 0 0 1-2.183.474H2736.83c-.41 0-.805-.043-1.183-.13a5.27 5.27 0 0 1-1.183.13H2607.83c-.595 0-1.156-.09-1.683-.271a5.157 5.157 0 0 1-1.683.27H2477.83c-.41 0-.805-.042-1.183-.128a5.328 5.328 0 0 1-1.183.129H2348.83a5.048 5.048 0 0 1-2.183-.474 5.05 5.05 0 0 1-2.183.474H2217.83c-.41 0-.805-.043-1.183-.13a5.27 5.27 0 0 1-1.183.13H2088.83c-.595 0-1.156-.09-1.683-.271a5.157 5.157 0 0 1-1.683.27H1958.83c-.41 0-.805-.042-1.183-.128a5.328 5.328 0 0 1-1.183.129H1829.83a5.048 5.048 0 0 1-2.183-.474 5.05 5.05 0 0 1-2.183.474H1698.83c-.41 0-.805-.043-1.183-.13a5.27 5.27 0 0 1-1.183.13H1569.83c-1.43 0-2.666-.523-3.711-1.568-1.045-1.043-1.566-2.28-1.566-3.71V37.173c0-1.429.521-2.666 1.566-3.71 1.044-1.044 2.28-1.566 3.71-1.566h126.635c.41 0 .804.043 1.182.129a5.328 5.328 0 0 1 1.184-.129h126.634a5.06 5.06 0 0 1 2.182.473 5.055 5.055 0 0 1 2.184-.473h126.634c.41 0 .804.043 1.182.129a5.328 5.328 0 0 1 1.184-.129h126.634c.594 0 1.155.09 1.682.27a5.168 5.168 0 0 1 1.684-.27h126.634c.41 0 .804.043 1.182.129a5.328 5.328 0 0 1 1.184-.129h126.634a5.06 5.06 0 0 1 2.182.473 5.055 5.055 0 0 1 2.184-.473h126.634c.41 0 .804.043 1.182.129a5.328 5.328 0 0 1 1.184-.129h126.634c.594 0 1.155.09 1.682.27a5.168 5.168 0 0 1 1.684-.27h126.634c.41 0 .804.043 1.182.129a5.328 5.328 0 0 1 1.184-.129h126.634a5.06 5.06 0 0 1 2.182.473 5.055 5.055 0 0 1 2.184-.473h126.634c.41 0 .804.043 1.182.129zm-1.181 84.295H1559.277c-1.428 0-2.665-.523-3.71-1.565-1.045-1.046-1.567-2.283-1.567-3.712V100.49c0-1.43.522-2.666 1.566-3.71 1.045-1.044 2.281-1.567 3.71-1.567h1564.19c1.427 0 2.665.522 3.71 1.567 1.044 1.044 1.567 2.28 1.567 3.71v10.553c0 1.429-.523 2.666-1.567 3.712-1.044 1.042-2.283 1.565-3.71 1.565h-129zm-1298-52.766c1.427 0 2.665.522 3.71 1.568 1.044 1.043 1.567 2.282 1.567 3.71v10.553c0 1.429-.523 2.667-1.567 3.71-1.045 1.044-2.283 1.568-3.71 1.568h-105.53c-1.429 0-2.665-.524-3.71-1.569-1.045-1.042-1.567-2.28-1.567-3.71V68.833c0-1.429.522-2.667 1.567-3.71 1.044-1.045 2.28-1.568 3.71-1.568h105.53zm3.71-61.752c1.044 1.046 1.566 2.282 1.567 3.71v10.554c0 1.43-.523 2.666-1.567 3.71-1.045 1.044-2.283 1.567-3.71 1.567h-94.976c-1.43 0-2.666-.523-3.71-1.567-1.045-1.044-1.568-2.28-1.568-3.71V5.513c0-1.429.523-2.666 1.567-3.71s2.28-1.567 3.71-1.567h94.976c1.428 0 2.667.523 3.711 1.566zm125.29 61.752c1.427 0 2.665.522 3.71 1.568 1.044 1.043 1.567 2.282 1.567 3.71v10.553c0 1.429-.523 2.667-1.567 3.71-1.045 1.044-2.283 1.568-3.71 1.568h-105.53c-1.429 0-2.665-.524-3.71-1.569-1.045-1.042-1.567-2.28-1.567-3.71V68.833c0-1.429.522-2.667 1.567-3.71 1.044-1.045 2.28-1.568 3.71-1.568h105.53zm3.71-61.752c1.044 1.046 1.566 2.282 1.567 3.71v10.554c0 1.43-.523 2.666-1.567 3.71-1.045 1.044-2.283 1.567-3.71 1.567h-94.976c-1.43 0-2.666-.523-3.71-1.567-1.045-1.044-1.568-2.28-1.568-3.71V5.513c0-1.429.523-2.666 1.567-3.71s2.28-1.567 3.71-1.567h94.976c1.428 0 2.667.523 3.711 1.566zm127.29 61.752c1.427 0 2.665.522 3.71 1.568 1.044 1.043 1.567 2.282 1.567 3.71v10.553c0 1.429-.523 2.667-1.567 3.71-1.045 1.044-2.283 1.568-3.71 1.568h-105.53c-1.429 0-2.665-.524-3.71-1.569-1.045-1.042-1.567-2.28-1.567-3.71V68.833c0-1.429.522-2.667 1.567-3.71 1.044-1.045 2.28-1.568 3.71-1.568h105.53zm3.71-61.752c1.044 1.046 1.566 2.282 1.567 3.71v10.554c0 1.43-.523 2.666-1.567 3.71-1.045 1.044-2.283 1.567-3.71 1.567h-94.976c-1.43 0-2.666-.523-3.71-1.567-1.045-1.044-1.568-2.28-1.568-3.71V5.513c0-1.429.523-2.666 1.567-3.71s2.28-1.567 3.71-1.567h94.976c1.428 0 2.667.523 3.711 1.566zm125.29 61.752c1.427 0 2.665.522 3.71 1.568 1.044 1.043 1.567 2.282 1.567 3.71v10.553c0 1.429-.523 2.667-1.567 3.71-1.045 1.044-2.283 1.568-3.71 1.568h-105.53c-1.429 0-2.665-.524-3.71-1.569-1.045-1.042-1.567-2.28-1.567-3.71V68.833c0-1.429.522-2.667 1.567-3.71 1.044-1.045 2.28-1.568 3.71-1.568h105.53zm3.71-61.752c1.044 1.046 1.566 2.282 1.567 3.71v10.554c0 1.43-.523 2.666-1.567 3.71-1.045 1.044-2.283 1.567-3.71 1.567h-94.976c-1.43 0-2.666-.523-3.71-1.567-1.045-1.044-1.568-2.28-1.568-3.71V5.513c0-1.429.523-2.666 1.567-3.71s2.28-1.567 3.71-1.567h94.976c1.428 0 2.667.523 3.711 1.566zm126.29 61.752c1.427 0 2.665.522 3.71 1.568 1.044 1.043 1.567 2.282 1.567 3.71v10.553c0 1.429-.523 2.667-1.567 3.71-1.045 1.044-2.283 1.568-3.71 1.568h-105.53c-1.429 0-2.665-.524-3.71-1.569-1.045-1.042-1.567-2.28-1.567-3.71V68.833c0-1.429.522-2.667 1.567-3.71 1.044-1.045 2.28-1.568 3.71-1.568h105.53zm3.71-61.752c1.044 1.046 1.566 2.282 1.567 3.71v10.554c0 1.43-.523 2.666-1.567 3.71-1.045 1.044-2.283 1.567-3.71 1.567h-94.976c-1.43 0-2.666-.523-3.71-1.567-1.045-1.044-1.568-2.28-1.568-3.71V5.513c0-1.429.523-2.666 1.567-3.71s2.28-1.567 3.71-1.567h94.976c1.428 0 2.667.523 3.711 1.566zm125.29 61.752c1.427 0 2.665.522 3.71 1.568 1.044 1.043 1.567 2.282 1.567 3.71v10.553c0 1.429-.523 2.667-1.567 3.71-1.045 1.044-2.283 1.568-3.71 1.568h-105.53c-1.429 0-2.665-.524-3.71-1.569-1.045-1.042-1.567-2.28-1.567-3.71V68.833c0-1.429.522-2.667 1.567-3.71 1.044-1.045 2.28-1.568 3.71-1.568h105.53zm3.71-61.752c1.044 1.046 1.566 2.282 1.567 3.71v10.554c0 1.43-.523 2.666-1.567 3.71-1.045 1.044-2.283 1.567-3.71 1.567h-94.976c-1.43 0-2.666-.523-3.71-1.567-1.045-1.044-1.568-2.28-1.568-3.71V5.513c0-1.429.523-2.666 1.567-3.71s2.28-1.567 3.71-1.567h94.976c1.428 0 2.667.523 3.711 1.566zm127.29 61.752c1.427 0 2.665.522 3.71 1.568 1.044 1.043 1.567 2.282 1.567 3.71v10.553c0 1.429-.523 2.667-1.567 3.71-1.045 1.044-2.283 1.568-3.71 1.568h-105.53c-1.429 0-2.665-.524-3.71-1.569-1.045-1.042-1.567-2.28-1.567-3.71V68.833c0-1.429.522-2.667 1.567-3.71 1.044-1.045 2.28-1.568 3.71-1.568h105.53zm3.71-61.752c1.044 1.046 1.566 2.282 1.567 3.71v10.554c0 1.43-.523 2.666-1.567 3.71-1.045 1.044-2.283 1.567-3.71 1.567h-94.976c-1.43 0-2.666-.523-3.71-1.567-1.045-1.044-1.568-2.28-1.568-3.71V5.513c0-1.429.523-2.666 1.567-3.71s2.28-1.567 3.71-1.567h94.976c1.428 0 2.667.523 3.711 1.566zm125.29 61.752c1.427 0 2.665.522 3.71 1.568 1.044 1.043 1.567 2.282 1.567 3.71v10.553c0 1.429-.523 2.667-1.567 3.71-1.045 1.044-2.283 1.568-3.71 1.568h-105.53c-1.429 0-2.665-.524-3.71-1.569-1.045-1.042-1.567-2.28-1.567-3.71V68.833c0-1.429.522-2.667 1.567-3.71 1.044-1.045 2.28-1.568 3.71-1.568h105.53zm3.71-61.752c1.044 1.046 1.566 2.282 1.567 3.71v10.554c0 1.43-.523 2.666-1.567 3.71-1.045 1.044-2.283 1.567-3.71 1.567h-94.976c-1.43 0-2.666-.523-3.71-1.567-1.045-1.044-1.568-2.28-1.568-3.71V5.513c0-1.429.523-2.666 1.567-3.71s2.28-1.567 3.71-1.567h94.976c1.428 0 2.667.523 3.711 1.566zm126.29 61.752c1.427 0 2.665.522 3.71 1.568 1.044 1.043 1.567 2.282 1.567 3.71v10.553c0 1.429-.523 2.667-1.567 3.71-1.045 1.044-2.283 1.568-3.71 1.568h-105.53c-1.429 0-2.665-.524-3.71-1.569-1.045-1.042-1.567-2.28-1.567-3.71V68.833c0-1.429.522-2.667 1.567-3.71 1.044-1.045 2.28-1.568 3.71-1.568h105.53zm3.71-61.752c1.044 1.046 1.566 2.282 1.567 3.71v10.554c0 1.43-.523 2.666-1.567 3.71-1.045 1.044-2.283 1.567-3.71 1.567h-94.976c-1.43 0-2.666-.523-3.71-1.567-1.045-1.044-1.568-2.28-1.568-3.71V5.513c0-1.429.523-2.666 1.567-3.71s2.28-1.567 3.71-1.567h94.976c1.428 0 2.667.523 3.711 1.566zm125.29 61.752c1.427 0 2.665.522 3.71 1.568 1.044 1.043 1.567 2.282 1.567 3.71v10.553c0 1.429-.523 2.667-1.567 3.71-1.045 1.044-2.283 1.568-3.71 1.568h-105.53c-1.429 0-2.665-.524-3.71-1.569-1.045-1.042-1.567-2.28-1.567-3.71V68.833c0-1.429.522-2.667 1.567-3.71 1.044-1.045 2.28-1.568 3.71-1.568h105.53zm3.71-61.752c1.044 1.046 1.566 2.282 1.567 3.71v10.554c0 1.43-.523 2.666-1.567 3.71-1.045 1.044-2.283 1.567-3.71 1.567h-94.976c-1.43 0-2.666-.523-3.71-1.567-1.045-1.044-1.568-2.28-1.568-3.71V5.513c0-1.429.523-2.666 1.567-3.71s2.28-1.567 3.71-1.567h94.976c1.428 0 2.667.523 3.711 1.566zm127.29 61.752c1.427 0 2.665.522 3.71 1.568 1.044 1.043 1.567 2.282 1.567 3.71v10.553c0 1.429-.523 2.667-1.567 3.71-1.045 1.044-2.283 1.568-3.71 1.568h-105.53c-1.429 0-2.665-.524-3.71-1.569-1.045-1.042-1.567-2.28-1.567-3.71V68.833c0-1.429.522-2.667 1.567-3.71 1.044-1.045 2.28-1.568 3.71-1.568h105.53zm3.71-61.752c1.044 1.046 1.566 2.282 1.567 3.71v10.554c0 1.43-.523 2.666-1.567 3.71-1.045 1.044-2.283 1.567-3.71 1.567h-94.976c-1.43 0-2.666-.523-3.71-1.567-1.045-1.044-1.568-2.28-1.568-3.71V5.513c0-1.429.523-2.666 1.567-3.71s2.28-1.567 3.71-1.567h94.976c1.428 0 2.667.523 3.711 1.566zm125.29 61.752c1.427 0 2.665.522 3.71 1.568 1.044 1.043 1.567 2.282 1.567 3.71v10.553c0 1.429-.523 2.667-1.567 3.71-1.045 1.044-2.283 1.568-3.71 1.568h-105.53c-1.429 0-2.665-.524-3.71-1.569-1.045-1.042-1.567-2.28-1.567-3.71V68.833c0-1.429.522-2.667 1.567-3.71 1.044-1.045 2.28-1.568 3.71-1.568h105.53zm3.71-61.752c1.044 1.046 1.566 2.282 1.567 3.71v10.554c0 1.43-.523 2.666-1.567 3.71-1.045 1.044-2.283 1.567-3.71 1.567h-94.976c-1.43 0-2.666-.523-3.71-1.567-1.045-1.044-1.568-2.28-1.568-3.71V5.513c0-1.429.523-2.666 1.567-3.71s2.28-1.567 3.71-1.567h94.976c1.428 0 2.667.523 3.711 1.566z"/><path d="M1441.647 31.79a5.328 5.328 0 0 1 1.184-.13h126.634c1.428 0 2.666.522 3.711 1.567 1.044 1.044 1.567 2.28 1.567 3.71V47.49c0 1.428-.523 2.666-1.567 3.71-1.045 1.044-2.283 1.567-3.71 1.567H1442.83c-.41 0-.805-.043-1.183-.13a5.27 5.27 0 0 1-1.183.13H1313.83a5.048 5.048 0 0 1-2.183-.474 5.05 5.05 0 0 1-2.183.474H1182.83c-.41 0-.805-.043-1.183-.13a5.27 5.27 0 0 1-1.183.13H1053.83c-.595 0-1.156-.09-1.683-.271a5.157 5.157 0 0 1-1.683.27H923.831c-.41 0-.805-.042-1.183-.128a5.328 5.328 0 0 1-1.183.129H794.831a5.048 5.048 0 0 1-2.183-.474 5.05 5.05 0 0 1-2.183.474H663.831c-.41 0-.805-.043-1.183-.13a5.27 5.27 0 0 1-1.183.13H534.831c-.595 0-1.156-.09-1.683-.271a5.157 5.157 0 0 1-1.683.27H404.831c-.41 0-.805-.042-1.183-.128a5.328 5.328 0 0 1-1.183.129H275.831a5.048 5.048 0 0 1-2.183-.474 5.05 5.05 0 0 1-2.183.474H144.831c-.41 0-.805-.043-1.183-.13a5.27 5.27 0 0 1-1.183.13H15.831c-1.43 0-2.666-.523-3.711-1.568-1.045-1.043-1.566-2.28-1.566-3.71V36.937c0-1.429.521-2.666 1.566-3.71 1.044-1.044 2.28-1.566 3.71-1.566h126.635c.41 0 .804.043 1.182.13a5.328 5.328 0 0 1 1.184-.13h126.634a5.06 5.06 0 0 1 2.182.473 5.055 5.055 0 0 1 2.184-.473h126.634c.41 0 .804.043 1.182.13a5.328 5.328 0 0 1 1.184-.13h126.634c.594 0 1.155.09 1.682.27a5.168 5.168 0 0 1 1.684-.27h126.634c.41 0 .804.043 1.182.13a5.328 5.328 0 0 1 1.184-.13h126.634a5.06 5.06 0 0 1 2.182.473 5.055 5.055 0 0 1 2.184-.473h126.634c.41 0 .804.043 1.182.13a5.328 5.328 0 0 1 1.184-.13h126.634c.594 0 1.155.09 1.682.27a5.168 5.168 0 0 1 1.684-.27h126.634c.41 0 .804.043 1.182.13a5.328 5.328 0 0 1 1.184-.13h126.634a5.06 5.06 0 0 1 2.182.473 5.055 5.055 0 0 1 2.184-.473h126.634c.41 0 .804.043 1.182.13zm-1.181 84.294H5.277c-1.428 0-2.665-.523-3.71-1.565C.521 113.473 0 112.236 0 110.807v-10.553c0-1.43.522-2.666 1.566-3.71 1.045-1.044 2.281-1.567 3.71-1.567h1564.19c1.427 0 2.665.522 3.71 1.567 1.044 1.044 1.567 2.28 1.567 3.71v10.553c0 1.429-.523 2.666-1.567 3.712-1.044 1.042-2.283 1.565-3.71 1.565h-129zm-1298-52.766c1.427 0 2.665.522 3.71 1.568 1.044 1.043 1.567 2.282 1.567 3.71v10.553c0 1.429-.523 2.667-1.567 3.71-1.045 1.044-2.283 1.568-3.71 1.568H36.935c-1.429 0-2.665-.524-3.71-1.568-1.045-1.043-1.567-2.281-1.567-3.71V68.596c0-1.429.522-2.667 1.567-3.71 1.044-1.045 2.28-1.568 3.71-1.568h105.53zm3.71-61.752c1.044 1.046 1.566 2.282 1.567 3.71v10.555c0 1.429-.523 2.665-1.567 3.71-1.045 1.043-2.283 1.566-3.71 1.566H47.49c-1.43 0-2.666-.522-3.71-1.567-1.045-1.044-1.568-2.28-1.568-3.71V5.278c0-1.429.523-2.666 1.567-3.71S46.06 0 47.49 0h94.976c1.428 0 2.667.523 3.711 1.566zm125.29 61.752c1.427 0 2.665.522 3.71 1.568 1.044 1.043 1.567 2.282 1.567 3.71v10.553c0 1.429-.523 2.667-1.567 3.71-1.045 1.044-2.283 1.568-3.71 1.568h-105.53c-1.429 0-2.665-.524-3.71-1.568-1.045-1.043-1.567-2.281-1.567-3.71V68.596c0-1.429.522-2.667 1.567-3.71 1.044-1.045 2.28-1.568 3.71-1.568h105.53zm3.71-61.752c1.044 1.046 1.566 2.282 1.567 3.71v10.555c0 1.429-.523 2.665-1.567 3.71-1.045 1.043-2.283 1.566-3.71 1.566H176.49c-1.43 0-2.666-.522-3.71-1.567-1.045-1.044-1.568-2.28-1.568-3.71V5.278c0-1.429.523-2.666 1.567-3.71S175.06 0 176.49 0h94.976c1.428 0 2.667.523 3.711 1.566zm127.29 61.752c1.427 0 2.665.522 3.71 1.568 1.044 1.043 1.567 2.282 1.567 3.71v10.553c0 1.429-.523 2.667-1.567 3.71-1.045 1.044-2.283 1.568-3.71 1.568h-105.53c-1.429 0-2.665-.524-3.71-1.568-1.045-1.043-1.567-2.281-1.567-3.71V68.596c0-1.429.522-2.667 1.567-3.71 1.044-1.045 2.28-1.568 3.71-1.568h105.53zm3.71-61.752c1.044 1.046 1.566 2.282 1.567 3.71v10.555c0 1.429-.523 2.665-1.567 3.71-1.045 1.043-2.283 1.566-3.71 1.566H307.49c-1.43 0-2.666-.522-3.71-1.567-1.045-1.044-1.568-2.28-1.568-3.71V5.278c0-1.429.523-2.666 1.567-3.71S306.06 0 307.49 0h94.976c1.428 0 2.667.523 3.711 1.566zm125.29 61.752c1.427 0 2.665.522 3.71 1.568 1.044 1.043 1.567 2.282 1.567 3.71v10.553c0 1.429-.523 2.667-1.567 3.71-1.045 1.044-2.283 1.568-3.71 1.568h-105.53c-1.429 0-2.665-.524-3.71-1.568-1.045-1.043-1.567-2.281-1.567-3.71V68.596c0-1.429.522-2.667 1.567-3.71 1.044-1.045 2.28-1.568 3.71-1.568h105.53zm3.71-61.752c1.044 1.046 1.566 2.282 1.567 3.71v10.555c0 1.429-.523 2.665-1.567 3.71-1.045 1.043-2.283 1.566-3.71 1.566H436.49c-1.43 0-2.666-.522-3.71-1.567-1.045-1.044-1.568-2.28-1.568-3.71V5.278c0-1.429.523-2.666 1.567-3.71S435.06 0 436.49 0h94.976c1.428 0 2.667.523 3.711 1.566zm126.29 61.752c1.427 0 2.665.522 3.71 1.568 1.044 1.043 1.567 2.282 1.567 3.71v10.553c0 1.429-.523 2.667-1.567 3.71-1.045 1.044-2.283 1.568-3.71 1.568h-105.53c-1.429 0-2.665-.524-3.71-1.568-1.045-1.043-1.567-2.281-1.567-3.71V68.596c0-1.429.522-2.667 1.567-3.71 1.044-1.045 2.28-1.568 3.71-1.568h105.53zm3.71-61.752c1.044 1.046 1.566 2.282 1.567 3.71v10.555c0 1.429-.523 2.665-1.567 3.71-1.045 1.043-2.283 1.566-3.71 1.566H566.49c-1.43 0-2.666-.522-3.71-1.567-1.045-1.044-1.568-2.28-1.568-3.71V5.278c0-1.429.523-2.666 1.567-3.71S565.06 0 566.49 0h94.976c1.428 0 2.667.523 3.711 1.566zm125.29 61.752c1.427 0 2.665.522 3.71 1.568 1.044 1.043 1.567 2.282 1.567 3.71v10.553c0 1.429-.523 2.667-1.567 3.71-1.045 1.044-2.283 1.568-3.71 1.568h-105.53c-1.429 0-2.665-.524-3.71-1.568-1.045-1.043-1.567-2.281-1.567-3.71V68.596c0-1.429.522-2.667 1.567-3.71 1.044-1.045 2.28-1.568 3.71-1.568h105.53zm3.71-61.752c1.044 1.046 1.566 2.282 1.567 3.71v10.555c0 1.429-.523 2.665-1.567 3.71-1.045 1.043-2.283 1.566-3.71 1.566H695.49c-1.43 0-2.666-.522-3.71-1.567-1.045-1.044-1.568-2.28-1.568-3.71V5.278c0-1.429.523-2.666 1.567-3.71S694.06 0 695.49 0h94.976c1.428 0 2.667.523 3.711 1.566zm127.29 61.752c1.427 0 2.665.522 3.71 1.568 1.044 1.043 1.567 2.282 1.567 3.71v10.553c0 1.429-.523 2.667-1.567 3.71-1.045 1.044-2.283 1.568-3.71 1.568h-105.53c-1.429 0-2.665-.524-3.71-1.568-1.045-1.043-1.567-2.281-1.567-3.71V68.596c0-1.429.522-2.667 1.567-3.71 1.044-1.045 2.28-1.568 3.71-1.568h105.53zm3.71-61.752c1.044 1.046 1.566 2.282 1.567 3.71v10.555c0 1.429-.523 2.665-1.567 3.71-1.045 1.043-2.283 1.566-3.71 1.566H826.49c-1.43 0-2.666-.522-3.71-1.567-1.045-1.044-1.568-2.28-1.568-3.71V5.278c0-1.429.523-2.666 1.567-3.71S825.06 0 826.49 0h94.976c1.428 0 2.667.523 3.711 1.566zm125.29 61.752c1.427 0 2.665.522 3.71 1.568 1.044 1.043 1.567 2.282 1.567 3.71v10.553c0 1.429-.523 2.667-1.567 3.71-1.045 1.044-2.283 1.568-3.71 1.568h-105.53c-1.429 0-2.665-.524-3.71-1.568-1.045-1.043-1.567-2.281-1.567-3.71V68.596c0-1.429.522-2.667 1.567-3.71 1.044-1.045 2.28-1.568 3.71-1.568h105.53zm3.71-61.752c1.044 1.046 1.566 2.282 1.567 3.71v10.555c0 1.429-.523 2.665-1.567 3.71-1.045 1.043-2.283 1.566-3.71 1.566H955.49c-1.43 0-2.666-.522-3.71-1.567-1.045-1.044-1.568-2.28-1.568-3.71V5.278c0-1.429.523-2.666 1.567-3.71S954.06 0 955.49 0h94.976c1.428 0 2.667.523 3.711 1.566zm126.29 61.752c1.427 0 2.665.522 3.71 1.568 1.044 1.043 1.567 2.282 1.567 3.71v10.553c0 1.429-.523 2.667-1.567 3.71-1.045 1.044-2.283 1.568-3.71 1.568h-105.53c-1.429 0-2.665-.524-3.71-1.568-1.045-1.043-1.567-2.281-1.567-3.71V68.596c0-1.429.522-2.667 1.567-3.71 1.044-1.045 2.28-1.568 3.71-1.568h105.53zm3.71-61.752c1.044 1.046 1.566 2.282 1.567 3.71v10.555c0 1.429-.523 2.665-1.567 3.71-1.045 1.043-2.283 1.566-3.71 1.566h-94.976c-1.43 0-2.666-.522-3.71-1.567-1.045-1.044-1.568-2.28-1.568-3.71V5.278c0-1.429.523-2.666 1.567-3.71S1084.06 0 1085.49 0h94.976c1.428 0 2.667.523 3.711 1.566zm125.29 61.752c1.427 0 2.665.522 3.71 1.568 1.044 1.043 1.567 2.282 1.567 3.71v10.553c0 1.429-.523 2.667-1.567 3.71-1.045 1.044-2.283 1.568-3.71 1.568h-105.53c-1.429 0-2.665-.524-3.71-1.568-1.045-1.043-1.567-2.281-1.567-3.71V68.596c0-1.429.522-2.667 1.567-3.71 1.044-1.045 2.28-1.568 3.71-1.568h105.53zm3.71-61.752c1.044 1.046 1.566 2.282 1.567 3.71v10.555c0 1.429-.523 2.665-1.567 3.71-1.045 1.043-2.283 1.566-3.71 1.566h-94.976c-1.43 0-2.666-.522-3.71-1.567-1.045-1.044-1.568-2.28-1.568-3.71V5.278c0-1.429.523-2.666 1.567-3.71S1213.06 0 1214.49 0h94.976c1.428 0 2.667.523 3.711 1.566zm127.29 61.752c1.427 0 2.665.522 3.71 1.568 1.044 1.043 1.567 2.282 1.567 3.71v10.553c0 1.429-.523 2.667-1.567 3.71-1.045 1.044-2.283 1.568-3.71 1.568h-105.53c-1.429 0-2.665-.524-3.71-1.568-1.045-1.043-1.567-2.281-1.567-3.71V68.596c0-1.429.522-2.667 1.567-3.71 1.044-1.045 2.28-1.568 3.71-1.568h105.53zm3.71-61.752c1.044 1.046 1.566 2.282 1.567 3.71v10.555c0 1.429-.523 2.665-1.567 3.71-1.045 1.043-2.283 1.566-3.71 1.566h-94.976c-1.43 0-2.666-.522-3.71-1.567-1.045-1.044-1.568-2.28-1.568-3.71V5.278c0-1.429.523-2.666 1.567-3.71S1344.06 0 1345.49 0h94.976c1.428 0 2.667.523 3.711 1.566zm125.29 61.752c1.427 0 2.665.522 3.71 1.568 1.044 1.043 1.567 2.282 1.567 3.71v10.553c0 1.429-.523 2.667-1.567 3.71-1.045 1.044-2.283 1.568-3.71 1.568h-105.53c-1.429 0-2.665-.524-3.71-1.568-1.045-1.043-1.567-2.281-1.567-3.71V68.596c0-1.429.522-2.667 1.567-3.71 1.044-1.045 2.28-1.568 3.71-1.568h105.53zm3.71-61.752c1.044 1.046 1.566 2.282 1.567 3.71v10.555c0 1.429-.523 2.665-1.567 3.71-1.045 1.043-2.283 1.566-3.71 1.566h-94.976c-1.43 0-2.666-.522-3.71-1.567-1.045-1.044-1.568-2.28-1.568-3.71V5.278c0-1.429.523-2.666 1.567-3.71S1473.06 0 1474.49 0h94.976c1.428 0 2.667.523 3.711 1.566z"/></g></svg>