<svg width="3003" height="156" xmlns="http://www.w3.org/2000/svg"><g fill="#FDD835" fill-rule="evenodd"><path d="M2715.157 26.232c23.254-17.86 56.828-16.17 78.13 5.121 14.327 14.315 37.623 14.304 51.938 0 .413-.412.848-.786 1.303-1.121a11.5 11.5 0 0 1 .793-.879c23.138-23.126 60.806-23.149 83.966 0 14.327 14.315 37.623 14.304 51.938 0a11.313 11.313 0 0 1 16.014 0 11.313 11.313 0 0 1 0 16.014c-11.563 11.563-26.773 17.35-41.983 17.35-15.198 0-30.408-5.787-41.983-17.35-14.338-14.326-37.634-14.315-51.938 0-.412.413-.848.786-1.303 1.122-.246.303-.51.596-.793.878-11.563 11.563-26.773 17.35-41.983 17.35-15.198 0-30.408-5.787-41.983-17.35-14.338-14.326-37.634-14.315-51.938 0a11.341 11.341 0 0 1-2.926 2.119c-10.612 8.152-23.382 12.232-36.153 12.232-15.198 0-30.408-5.788-41.983-17.35-14.338-14.327-37.634-14.316-51.938 0a11.48 11.48 0 0 1-1.028.911c-11.441 10.956-26.246 16.439-41.05 16.439-15.2 0-30.41-5.788-41.984-17.35-14.338-14.327-37.634-14.316-51.938 0a11.341 11.341 0 0 1-2.926 2.118c-10.612 8.152-23.382 12.232-36.153 12.232-15.198 0-30.408-5.788-41.983-17.35-14.338-14.327-37.634-14.316-51.938 0-.412.412-.848.785-1.303 1.12-.246.304-.51.597-.793.88-11.563 11.562-26.773 17.35-41.983 17.35-15.198 0-30.408-5.788-41.983-17.35-14.338-14.327-37.634-14.316-51.938 0a11.341 11.341 0 0 1-2.926 2.118c-10.612 8.152-23.382 12.232-36.153 12.232-15.198 0-30.408-5.788-41.983-17.35-14.338-14.327-37.634-14.316-51.938 0-.303.302-.618.584-.945.846l-.15.153c-11.564 11.563-26.774 17.35-41.984 17.35-15.198 0-30.408-5.787-41.983-17.35-14.338-14.326-37.634-14.315-51.938 0a11.341 11.341 0 0 1-2.926 2.119c-10.612 8.152-23.382 12.232-36.153 12.232-15.198 0-30.408-5.788-41.983-17.35-14.338-14.327-37.634-14.316-51.938 0-.412.412-.848.785-1.303 1.12-.246.304-.51.597-.793.88-11.563 11.562-26.773 17.35-41.983 17.35-15.198 0-30.408-5.788-41.983-17.35-14.338-14.327-37.634-14.316-51.938 0a11.341 11.341 0 0 1-2.926 2.118c-10.612 8.152-23.382 12.232-36.153 12.232-15.198 0-30.408-5.788-41.983-17.35-14.338-14.327-37.634-14.316-51.938 0a11.313 11.313 0 0 1-16.014 0 11.313 11.313 0 0 1 0-16.015c23.138-23.126 60.806-23.149 83.966 0 14.327 14.315 37.623 14.304 51.938 0a11.34 11.34 0 0 1 2.932-2.12c23.254-17.86 56.828-16.171 78.13 5.12 14.327 14.315 37.623 14.304 51.938 0 .413-.412.848-.786 1.303-1.121a11.5 11.5 0 0 1 .793-.879c23.138-23.126 60.806-23.149 83.966 0 14.327 14.315 37.623 14.304 51.938 0a11.34 11.34 0 0 1 2.932-2.12c23.254-17.86 56.828-16.171 78.13 5.12 14.327 14.315 37.623 14.304 51.938 0 .303-.303.619-.585.945-.846l.151-.154c23.138-23.126 60.806-23.149 83.966 0 14.327 14.315 37.623 14.304 51.938 0a11.34 11.34 0 0 1 2.932-2.12c23.254-17.86 56.828-16.171 78.13 5.12 14.327 14.315 37.623 14.304 51.938 0 .413-.412.848-.786 1.303-1.121a11.5 11.5 0 0 1 .793-.879c23.138-23.126 60.806-23.149 83.966 0 14.327 14.315 37.623 14.304 51.938 0a11.34 11.34 0 0 1 2.932-2.12c23.254-17.86 56.828-16.171 78.13 5.12 14.327 14.315 37.623 14.304 51.938 0a11.9 11.9 0 0 1 1.03-.914c23.207-22.209 60.181-21.926 83.032.914 14.327 14.315 37.623 14.304 51.938 0a11.34 11.34 0 0 1 2.932-2.12zm-.008 45.306c23.254-17.872 56.834-16.167 78.138 5.117 14.327 14.315 37.623 14.304 51.938 0 .413-.413.848-.786 1.303-1.122a11.5 11.5 0 0 1 .793-.878c23.138-23.138 60.806-23.138 83.966 0 14.327 14.315 37.623 14.304 51.938 0a11.313 11.313 0 0 1 16.014 0 11.313 11.313 0 0 1 0 16.014c-11.563 11.563-26.773 17.35-41.983 17.35-15.198 0-30.408-5.787-41.983-17.35-14.338-14.327-37.634-14.316-51.938 0-.412.412-.848.786-1.303 1.121-.246.303-.51.596-.793.879-11.563 11.563-26.773 17.35-41.983 17.35-15.198 0-30.408-5.787-41.983-17.35-14.338-14.327-37.634-14.316-51.938 0a11.341 11.341 0 0 1-2.926 2.118c-10.612 8.153-23.382 12.232-36.153 12.232-15.198 0-30.408-5.787-41.983-17.35-14.338-14.327-37.634-14.316-51.938 0a11.48 11.48 0 0 1-1.028.912c-11.441 10.955-26.246 16.438-41.05 16.438-15.2 0-30.41-5.787-41.984-17.35-14.338-14.327-37.634-14.316-51.938 0a11.341 11.341 0 0 1-2.926 2.118c-10.612 8.153-23.382 12.232-36.153 12.232-15.198 0-30.408-5.787-41.983-17.35-14.338-14.327-37.634-14.316-51.938 0-.412.412-.848.786-1.303 1.121-.246.303-.51.596-.793.879-11.563 11.563-26.773 17.35-41.983 17.35-15.198 0-30.408-5.787-41.983-17.35-14.338-14.327-37.634-14.316-51.938 0a11.341 11.341 0 0 1-2.926 2.118c-10.612 8.153-23.382 12.232-36.153 12.232-15.198 0-30.408-5.787-41.983-17.35-14.338-14.327-37.634-14.316-51.938 0-.303.303-.618.585-.945.846l-.15.154c-11.564 11.563-26.774 17.35-41.984 17.35-15.198 0-30.408-5.787-41.983-17.35-14.338-14.327-37.634-14.316-51.938 0a11.341 11.341 0 0 1-2.926 2.118c-10.612 8.153-23.382 12.232-36.153 12.232-15.198 0-30.408-5.787-41.983-17.35-14.338-14.327-37.634-14.316-51.938 0-.412.412-.848.786-1.303 1.121-.246.303-.51.596-.793.879-11.563 11.563-26.773 17.35-41.983 17.35-15.198 0-30.408-5.787-41.983-17.35-14.338-14.327-37.634-14.316-51.938 0a11.306 11.306 0 0 1-3.907 2.554c-10.413 7.661-22.792 11.495-35.172 11.495-15.198 0-30.408-5.788-41.983-17.35-14.338-14.327-37.634-14.316-51.938 0a11.313 11.313 0 0 1-16.014 0 11.313 11.313 0 0 1 0-16.015c23.138-23.137 60.806-23.137 83.966 0 14.327 14.315 37.623 14.304 51.938 0 1.15-1.149 2.483-2 3.904-2.553 23.21-17.083 56.152-15.131 77.158 5.855 14.327 14.315 37.623 14.304 51.938 0 .413-.413.848-.786 1.303-1.122a11.5 11.5 0 0 1 .793-.878c23.138-23.138 60.806-23.138 83.966 0 14.327 14.315 37.623 14.304 51.938 0a11.34 11.34 0 0 1 2.924-2.117c23.254-17.872 56.834-16.167 78.138 5.117 14.327 14.315 37.623 14.304 51.938 0 .303-.303.619-.585.945-.847l.151-.153c23.138-23.138 60.806-23.138 83.966 0 14.327 14.315 37.623 14.304 51.938 0a11.34 11.34 0 0 1 2.924-2.117c23.254-17.872 56.834-16.167 78.138 5.117 14.327 14.315 37.623 14.304 51.938 0 .413-.413.848-.786 1.303-1.122a11.5 11.5 0 0 1 .793-.878c23.138-23.138 60.806-23.138 83.966 0 14.327 14.315 37.623 14.304 51.938 0a11.34 11.34 0 0 1 2.924-2.117c23.254-17.872 56.834-16.167 78.138 5.117 14.327 14.315 37.623 14.304 51.938 0a11.48 11.48 0 0 1 1.028-.912c23.206-22.222 60.182-21.918 83.034.912 14.327 14.315 37.623 14.304 51.938 0a11.34 11.34 0 0 1 2.924-2.117zm0 45.301c23.254-17.872 56.834-16.166 78.138 5.117 14.327 14.315 37.623 14.304 51.938 0 .413-.412.848-.786 1.303-1.121a11.5 11.5 0 0 1 .793-.879c23.138-23.138 60.806-23.138 83.966 0 14.327 14.315 37.623 14.304 51.938 0a11.313 11.313 0 0 1 16.014 0 11.313 11.313 0 0 1 0 16.014c-11.563 11.563-26.773 17.35-41.983 17.35-15.198 0-30.408-5.787-41.983-17.35-14.338-14.326-37.634-14.315-51.938 0-.412.412-.848.786-1.303 1.122-.246.303-.51.596-.793.878-11.563 11.563-26.773 17.35-41.983 17.35-15.198 0-30.408-5.787-41.983-17.35-14.338-14.326-37.634-14.315-51.938 0a11.341 11.341 0 0 1-2.926 2.118c-10.612 8.153-23.382 12.232-36.153 12.232-15.198 0-30.408-5.787-41.983-17.35-14.338-14.326-37.634-14.315-51.938 0a11.48 11.48 0 0 1-1.028.912c-11.441 10.956-26.246 16.438-41.05 16.438-15.2 0-30.41-5.787-41.984-17.35-14.338-14.326-37.634-14.315-51.938 0a11.341 11.341 0 0 1-2.926 2.118c-10.612 8.153-23.382 12.232-36.153 12.232-15.198 0-30.408-5.787-41.983-17.35-14.338-14.326-37.634-14.315-51.938 0-.412.412-.848.786-1.303 1.122-.246.303-.51.596-.793.878-11.563 11.563-26.773 17.35-41.983 17.35-15.198 0-30.408-5.787-41.983-17.35-14.338-14.326-37.634-14.315-51.938 0a11.341 11.341 0 0 1-2.926 2.118c-10.612 8.153-23.382 12.232-36.153 12.232-15.198 0-30.408-5.787-41.983-17.35-14.338-14.326-37.634-14.315-51.938 0-.303.303-.618.585-.945.846l-.15.154c-11.564 11.563-26.774 17.35-41.984 17.35-15.198 0-30.408-5.787-41.983-17.35-14.338-14.326-37.634-14.315-51.938 0a11.341 11.341 0 0 1-2.926 2.118c-10.612 8.153-23.382 12.232-36.153 12.232-15.198 0-30.408-5.787-41.983-17.35-14.338-14.326-37.634-14.315-51.938 0-.412.412-.848.786-1.303 1.122-.246.303-.51.596-.793.878-11.563 11.563-26.773 17.35-41.983 17.35-15.198 0-30.408-5.787-41.983-17.35-13.385-13.375-34.578-14.253-48.973-2.664l-.06.061c-11.564 11.563-26.774 17.35-41.984 17.35-15.198 0-30.408-5.787-41.983-17.35-14.338-14.326-37.634-14.315-51.938 0a11.313 11.313 0 0 1-16.014 0 11.313 11.313 0 0 1 0-16.014c23.138-23.137 60.806-23.137 83.966 0 13.381 13.37 34.587 14.243 48.992 2.645l.042-.042c23.138-23.138 60.806-23.138 83.966 0 14.327 14.315 37.623 14.304 51.938 0 .413-.412.848-.786 1.303-1.121a11.5 11.5 0 0 1 .793-.879c23.138-23.138 60.806-23.138 83.966 0 14.327 14.315 37.623 14.304 51.938 0a11.34 11.34 0 0 1 2.924-2.117c23.254-17.872 56.834-16.166 78.138 5.117 14.327 14.315 37.623 14.304 51.938 0 .303-.303.619-.585.945-.846l.151-.154c23.138-23.138 60.806-23.138 83.966 0 14.327 14.315 37.623 14.304 51.938 0a11.34 11.34 0 0 1 2.924-2.117c23.254-17.872 56.834-16.166 78.138 5.117 14.327 14.315 37.623 14.304 51.938 0 .413-.412.848-.786 1.303-1.121a11.5 11.5 0 0 1 .793-.879c23.138-23.138 60.806-23.138 83.966 0 14.327 14.315 37.623 14.304 51.938 0a11.34 11.34 0 0 1 2.924-2.117c23.254-17.872 56.834-16.166 78.138 5.117 14.327 14.315 37.623 14.304 51.938 0a11.48 11.48 0 0 1 1.028-.912c23.206-22.222 60.182-21.918 83.034.912 14.327 14.315 37.623 14.304 51.938 0a11.34 11.34 0 0 1 2.924-2.117z"/><path d="M1223.157 22.232c23.254-17.86 56.828-16.17 78.13 5.121 14.327 14.315 37.623 14.304 51.938 0 .413-.412.848-.786 1.303-1.121a11.5 11.5 0 0 1 .793-.879c23.138-23.126 60.806-23.149 83.966 0 14.327 14.315 37.623 14.304 51.938 0a11.313 11.313 0 0 1 16.014 0 11.313 11.313 0 0 1 0 16.014c-11.563 11.563-26.773 17.35-41.983 17.35-15.198 0-30.408-5.787-41.983-17.35-14.338-14.326-37.634-14.315-51.938 0-.412.413-.848.786-1.303 1.122-.246.303-.51.596-.793.878-11.563 11.563-26.773 17.35-41.983 17.35-15.198 0-30.408-5.787-41.983-17.35-14.338-14.326-37.634-14.315-51.938 0a11.341 11.341 0 0 1-2.926 2.119c-10.612 8.152-23.382 12.232-36.153 12.232-15.198 0-30.408-5.788-41.983-17.35-14.338-14.327-37.634-14.316-51.938 0a11.48 11.48 0 0 1-1.028.911c-11.441 10.956-26.246 16.439-41.05 16.439-15.2 0-30.41-5.788-41.984-17.35-14.338-14.327-37.634-14.316-51.938 0a11.34 11.34 0 0 1-2.926 2.118c-10.612 8.152-23.382 12.232-36.153 12.232-15.198 0-30.408-5.788-41.983-17.35-14.338-14.327-37.634-14.316-51.938 0-.412.412-.848.785-1.303 1.12-.246.304-.51.597-.793.88-11.563 11.562-26.773 17.35-41.983 17.35-15.198 0-30.408-5.788-41.983-17.35-14.338-14.327-37.634-14.316-51.938 0a11.34 11.34 0 0 1-2.926 2.118c-10.612 8.152-23.382 12.232-36.153 12.232-15.198 0-30.408-5.788-41.983-17.35-14.338-14.327-37.634-14.316-51.938 0a11.49 11.49 0 0 1-.945.846l-.15.153c-11.564 11.563-26.774 17.35-41.984 17.35-15.198 0-30.408-5.787-41.983-17.35-14.338-14.326-37.634-14.315-51.938 0a11.34 11.34 0 0 1-2.926 2.119c-10.612 8.152-23.382 12.232-36.153 12.232-15.198 0-30.408-5.788-41.983-17.35-14.338-14.327-37.634-14.316-51.938 0-.412.412-.848.785-1.303 1.12-.246.304-.51.597-.793.88-11.563 11.562-26.773 17.35-41.983 17.35-15.198 0-30.408-5.788-41.983-17.35-14.338-14.327-37.634-14.316-51.938 0a11.34 11.34 0 0 1-2.926 2.118c-10.612 8.152-23.382 12.232-36.153 12.232-15.198 0-30.408-5.788-41.983-17.35-14.338-14.327-37.634-14.316-51.938 0a11.313 11.313 0 0 1-16.014 0 11.313 11.313 0 0 1 0-16.015c23.138-23.126 60.806-23.149 83.966 0 14.327 14.315 37.623 14.304 51.938 0a11.34 11.34 0 0 1 2.932-2.12c23.254-17.86 56.828-16.171 78.13 5.12 14.327 14.315 37.623 14.304 51.938 0 .413-.412.848-.786 1.303-1.121.247-.303.51-.597.793-.879 23.138-23.126 60.806-23.149 83.966 0 14.327 14.315 37.623 14.304 51.938 0a11.34 11.34 0 0 1 2.932-2.12c23.254-17.86 56.828-16.171 78.13 5.12 14.327 14.315 37.623 14.304 51.938 0 .303-.303.619-.585.945-.846l.151-.154c23.138-23.126 60.806-23.149 83.966 0 14.327 14.315 37.623 14.304 51.938 0a11.34 11.34 0 0 1 2.932-2.12c23.254-17.86 56.828-16.171 78.13 5.12 14.327 14.315 37.623 14.304 51.938 0 .413-.412.848-.786 1.303-1.121.247-.303.51-.597.793-.879 23.138-23.126 60.806-23.149 83.966 0 14.327 14.315 37.623 14.304 51.938 0a11.34 11.34 0 0 1 2.932-2.12c23.254-17.86 56.828-16.171 78.13 5.12 14.327 14.315 37.623 14.304 51.938 0a11.9 11.9 0 0 1 1.03-.914c23.207-22.209 60.181-21.926 83.032.914 14.327 14.315 37.623 14.304 51.938 0a11.34 11.34 0 0 1 2.932-2.12zm-.008 45.306c23.254-17.872 56.834-16.167 78.138 5.117 14.327 14.315 37.623 14.304 51.938 0 .413-.413.848-.786 1.303-1.122a11.5 11.5 0 0 1 .793-.878c23.138-23.138 60.806-23.138 83.966 0 14.327 14.315 37.623 14.304 51.938 0a11.313 11.313 0 0 1 16.014 0 11.313 11.313 0 0 1 0 16.014c-11.563 11.563-26.773 17.35-41.983 17.35-15.198 0-30.408-5.787-41.983-17.35-14.338-14.327-37.634-14.316-51.938 0-.412.412-.848.786-1.303 1.121-.246.303-.51.596-.793.879-11.563 11.563-26.773 17.35-41.983 17.35-15.198 0-30.408-5.787-41.983-17.35-14.338-14.327-37.634-14.316-51.938 0a11.341 11.341 0 0 1-2.926 2.118c-10.612 8.153-23.382 12.232-36.153 12.232-15.198 0-30.408-5.787-41.983-17.35-14.338-14.327-37.634-14.316-51.938 0a11.48 11.48 0 0 1-1.028.912c-11.441 10.955-26.246 16.438-41.05 16.438-15.2 0-30.41-5.787-41.984-17.35-14.338-14.327-37.634-14.316-51.938 0a11.34 11.34 0 0 1-2.926 2.118c-10.612 8.153-23.382 12.232-36.153 12.232-15.198 0-30.408-5.787-41.983-17.35-14.338-14.327-37.634-14.316-51.938 0-.412.412-.848.786-1.303 1.121-.246.303-.51.596-.793.879-11.563 11.563-26.773 17.35-41.983 17.35-15.198 0-30.408-5.787-41.983-17.35-14.338-14.327-37.634-14.316-51.938 0a11.34 11.34 0 0 1-2.926 2.118c-10.612 8.153-23.382 12.232-36.153 12.232-15.198 0-30.408-5.787-41.983-17.35-14.338-14.327-37.634-14.316-51.938 0a11.49 11.49 0 0 1-.945.846l-.15.154c-11.564 11.563-26.774 17.35-41.984 17.35-15.198 0-30.408-5.787-41.983-17.35-14.338-14.327-37.634-14.316-51.938 0a11.34 11.34 0 0 1-2.926 2.118c-10.612 8.153-23.382 12.232-36.153 12.232-15.198 0-30.408-5.787-41.983-17.35-14.338-14.327-37.634-14.316-51.938 0-.412.412-.848.786-1.303 1.121-.246.303-.51.596-.793.879-11.563 11.563-26.773 17.35-41.983 17.35-15.198 0-30.408-5.787-41.983-17.35-14.338-14.327-37.634-14.316-51.938 0a11.306 11.306 0 0 1-3.907 2.554c-10.413 7.661-22.792 11.495-35.172 11.495-15.198 0-30.408-5.788-41.983-17.35-14.338-14.327-37.634-14.316-51.938 0a11.313 11.313 0 0 1-16.014 0 11.313 11.313 0 0 1 0-16.015c23.138-23.137 60.806-23.137 83.966 0 14.327 14.315 37.623 14.304 51.938 0 1.15-1.149 2.483-2 3.904-2.553 23.21-17.083 56.152-15.131 77.158 5.855 14.327 14.315 37.623 14.304 51.938 0 .413-.413.848-.786 1.303-1.122.247-.303.51-.596.793-.878 23.138-23.138 60.806-23.138 83.966 0 14.327 14.315 37.623 14.304 51.938 0a11.33 11.33 0 0 1 2.924-2.117c23.254-17.872 56.834-16.167 78.138 5.117 14.327 14.315 37.623 14.304 51.938 0 .303-.303.619-.585.945-.847l.151-.153c23.138-23.138 60.806-23.138 83.966 0 14.327 14.315 37.623 14.304 51.938 0a11.33 11.33 0 0 1 2.924-2.117c23.254-17.872 56.834-16.167 78.138 5.117 14.327 14.315 37.623 14.304 51.938 0 .413-.413.848-.786 1.303-1.122.247-.303.51-.596.793-.878 23.138-23.138 60.806-23.138 83.966 0 14.327 14.315 37.623 14.304 51.938 0a11.33 11.33 0 0 1 2.924-2.117c23.254-17.872 56.834-16.167 78.138 5.117 14.327 14.315 37.623 14.304 51.938 0a11.48 11.48 0 0 1 1.028-.912c23.206-22.222 60.182-21.918 83.034.912 14.327 14.315 37.623 14.304 51.938 0a11.34 11.34 0 0 1 2.924-2.117zm0 45.301c23.254-17.872 56.834-16.166 78.138 5.117 14.327 14.315 37.623 14.304 51.938 0 .413-.412.848-.786 1.303-1.121a11.5 11.5 0 0 1 .793-.879c23.138-23.138 60.806-23.138 83.966 0 14.327 14.315 37.623 14.304 51.938 0a11.313 11.313 0 0 1 16.014 0 11.313 11.313 0 0 1 0 16.014c-11.563 11.563-26.773 17.35-41.983 17.35-15.198 0-30.408-5.787-41.983-17.35-14.338-14.326-37.634-14.315-51.938 0-.412.412-.848.786-1.303 1.122-.246.303-.51.596-.793.878-11.563 11.563-26.773 17.35-41.983 17.35-15.198 0-30.408-5.787-41.983-17.35-14.338-14.326-37.634-14.315-51.938 0a11.341 11.341 0 0 1-2.926 2.118c-10.612 8.153-23.382 12.232-36.153 12.232-15.198 0-30.408-5.787-41.983-17.35-14.338-14.326-37.634-14.315-51.938 0a11.48 11.48 0 0 1-1.028.912c-11.441 10.956-26.246 16.438-41.05 16.438-15.2 0-30.41-5.787-41.984-17.35-14.338-14.326-37.634-14.315-51.938 0a11.34 11.34 0 0 1-2.926 2.118c-10.612 8.153-23.382 12.232-36.153 12.232-15.198 0-30.408-5.787-41.983-17.35-14.338-14.326-37.634-14.315-51.938 0-.412.412-.848.786-1.303 1.122-.246.303-.51.596-.793.878-11.563 11.563-26.773 17.35-41.983 17.35-15.198 0-30.408-5.787-41.983-17.35-14.338-14.326-37.634-14.315-51.938 0a11.34 11.34 0 0 1-2.926 2.118c-10.612 8.153-23.382 12.232-36.153 12.232-15.198 0-30.408-5.787-41.983-17.35-14.338-14.326-37.634-14.315-51.938 0a11.49 11.49 0 0 1-.945.846l-.15.154c-11.564 11.563-26.774 17.35-41.984 17.35-15.198 0-30.408-5.787-41.983-17.35-14.338-14.326-37.634-14.315-51.938 0a11.34 11.34 0 0 1-2.926 2.118c-10.612 8.153-23.382 12.232-36.153 12.232-15.198 0-30.408-5.787-41.983-17.35-14.338-14.326-37.634-14.315-51.938 0-.412.412-.848.786-1.303 1.122-.246.303-.51.596-.793.878-11.563 11.563-26.773 17.35-41.983 17.35-15.198 0-30.408-5.787-41.983-17.35-13.385-13.375-34.578-14.253-48.973-2.664l-.06.061c-11.564 11.563-26.774 17.35-41.984 17.35-15.198 0-30.408-5.787-41.983-17.35-14.338-14.326-37.634-14.315-51.938 0a11.313 11.313 0 0 1-16.014 0 11.313 11.313 0 0 1 0-16.014c23.138-23.137 60.806-23.137 83.966 0 13.381 13.37 34.587 14.243 48.992 2.645l.042-.042c23.138-23.138 60.806-23.138 83.966 0 14.327 14.315 37.623 14.304 51.938 0 .413-.412.848-.786 1.303-1.121.247-.303.51-.597.793-.879 23.138-23.138 60.806-23.138 83.966 0 14.327 14.315 37.623 14.304 51.938 0 .881-.88 1.87-1.586 2.924-2.117 23.254-17.872 56.834-16.166 78.138 5.117 14.327 14.315 37.623 14.304 51.938 0 .303-.303.619-.585.945-.846l.151-.154c23.138-23.138 60.806-23.138 83.966 0 14.327 14.315 37.623 14.304 51.938 0 .881-.88 1.87-1.586 2.924-2.117 23.254-17.872 56.834-16.166 78.138 5.117 14.327 14.315 37.623 14.304 51.938 0 .413-.412.848-.786 1.303-1.121.247-.303.51-.597.793-.879 23.138-23.138 60.806-23.138 83.966 0 14.327 14.315 37.623 14.304 51.938 0 .881-.88 1.87-1.586 2.924-2.117 23.254-17.872 56.834-16.166 78.138 5.117 14.327 14.315 37.623 14.304 51.938 0a11.48 11.48 0 0 1 1.028-.912c23.206-22.222 60.182-21.918 83.034.912 14.327 14.315 37.623 14.304 51.938 0a11.34 11.34 0 0 1 2.924-2.117z"/></g></svg>