<svg width="3137" height="117" xmlns="http://www.w3.org/2000/svg"><g fill="#3949AB" fill-rule="evenodd"><path d="M2742.314 115.19c-1.124.581-2.433.918-3.898.918a8.535 8.535 0 0 1-.03 0c-1.465 0-2.775-.337-3.899-.918a9.06 9.06 0 0 1-3.56-3.115l-12.963-21.604-8.065 10.946c-3.745 4.897-11.234 4.609-14.403-.576l-17.571-29.67-15.267 19.876c-3.745 4.897-10.946 4.32-14.115-.576l-40.142-65.599-40.143 65.599c-3.168 4.897-10.37 5.473-14.114.576l-15.267-19.876-17.572 29.67c-3.168 5.185-10.658 5.473-14.402.576l-8.066-10.946-12.962 21.604a9.06 9.06 0 0 1-3.56 3.115c-1.125.581-2.434.918-3.9.918a8.535 8.535 0 0 1-.03 0c-1.464 0-2.774-.337-3.898-.918a9.06 9.06 0 0 1-3.56-3.115l-12.963-21.604-8.065 10.946c-3.745 4.897-11.234 4.609-14.403-.576l-17.571-29.67-15.267 19.876c-3.745 4.897-10.946 4.32-14.115-.576l-40.142-65.599-40.143 65.599c-3.168 4.897-10.37 5.473-14.114.576l-15.267-19.876-17.572 29.67c-3.168 5.185-10.658 5.473-14.402.576l-8.066-10.946-12.962 21.604a9.06 9.06 0 0 1-3.56 3.115c-1.125.581-2.434.918-3.9.918a8.535 8.535 0 0 1-.03 0c-1.464 0-2.774-.337-3.898-.918a9.06 9.06 0 0 1-3.56-3.115l-12.963-21.604-8.065 10.946c-3.745 4.897-11.234 4.609-14.403-.576l-17.571-29.67-15.267 19.876c-3.745 4.897-10.946 4.32-14.115-.576l-40.142-65.599-40.143 65.599c-3.168 4.897-10.37 5.473-14.114.576l-15.267-19.876-17.572 29.67c-3.168 5.185-10.658 5.473-14.402.576l-8.066-10.946-12.962 21.604a9.06 9.06 0 0 1-3.56 3.115c-1.125.581-2.434.918-3.9.918a8.535 8.535 0 0 1-.03 0c-1.464 0-2.774-.337-3.898-.918a9.06 9.06 0 0 1-3.56-3.115l-12.963-21.604-8.065 10.946c-3.745 4.897-11.234 4.609-14.403-.576l-17.571-29.67-15.267 19.876c-3.745 4.897-10.946 4.32-14.115-.576l-40.142-65.599-40.143 65.599c-3.168 4.897-10.37 5.473-14.114.576l-15.267-19.876-17.572 29.67c-3.168 5.185-10.658 5.473-14.402.576l-8.066-10.946-12.962 21.604a9.06 9.06 0 0 1-3.56 3.115c-1.125.581-2.434.918-3.9.918a8.535 8.535 0 0 1-.03 0c-1.464 0-2.774-.337-3.898-.918a9.06 9.06 0 0 1-3.56-3.115l-12.963-21.604-8.065 10.946c-3.745 4.897-11.234 4.609-14.403-.576l-17.571-29.67-15.267 19.876c-3.745 4.897-10.946 4.32-14.115-.576l-47.24-77.198c-2.593-4.033-1.153-9.218 2.88-11.81 4.033-2.593 9.218-1.153 11.81 2.88l40.616 66.252 15.267-19.875c3.744-4.897 10.946-4.61 14.114.576l17.571 29.381 8.066-10.658c3.745-4.897 11.234-4.609 14.403.576l12.37 20.558 12.372-20.558c3.168-5.185 10.658-5.473 14.402-.576l8.066 10.658 17.571-29.381c3.169-5.185 10.37-5.473 14.115-.576l15.267 19.875 40.615-66.252c1.74-2.707 4.649-4.246 7.593-4.181 2.944-.065 5.852 1.474 7.592 4.181l40.616 66.252 15.267-19.875c3.744-4.897 10.946-4.61 14.114.576l17.571 29.381 8.066-10.658c3.745-4.897 11.234-4.609 14.403.576l12.37 20.558 12.372-20.558c3.168-5.185 10.658-5.473 14.402-.576l8.066 10.658 17.571-29.381c3.169-5.185 10.37-5.473 14.115-.576l15.267 19.875 40.615-66.252c1.74-2.707 4.649-4.246 7.593-4.181 2.944-.065 5.852 1.474 7.592 4.181l40.616 66.252 15.267-19.875c3.744-4.897 10.946-4.61 14.114.576l17.571 29.381 8.066-10.658c3.745-4.897 11.234-4.609 14.403.576l12.37 20.558 12.372-20.558c3.168-5.185 10.658-5.473 14.402-.576l8.066 10.658 17.571-29.381c3.169-5.185 10.37-5.473 14.115-.576l15.267 19.875 40.615-66.252c1.74-2.707 4.649-4.246 7.593-4.181 2.944-.065 5.852 1.474 7.592 4.181l40.616 66.252 15.267-19.875c3.744-4.897 10.946-4.61 14.114.576l17.571 29.381 8.066-10.658c3.745-4.897 11.234-4.609 14.403.576l12.37 20.558 12.372-20.558c3.168-5.185 10.658-5.473 14.402-.576l8.066 10.658 17.571-29.381c3.169-5.185 10.37-5.473 14.115-.576l15.267 19.875 40.615-66.252c1.74-2.707 4.649-4.246 7.593-4.181 2.944-.065 5.852 1.474 7.592 4.181l40.616 66.252 15.267-19.875c3.744-4.897 10.946-4.61 14.114.576l17.571 29.381 8.066-10.658c3.745-4.897 11.234-4.609 14.403.576l12.37 20.558 12.372-20.558c3.168-5.185 10.658-5.473 14.402-.576l8.066 10.658 17.571-29.381c3.169-5.185 10.37-5.473 14.115-.576l15.267 19.875 40.615-66.252c1.74-2.707 4.649-4.246 7.593-4.181 2.944-.065 5.852 1.474 7.592 4.181l40.616 66.252 15.267-19.875c3.744-4.897 10.946-4.61 14.114.576l17.571 29.381 8.066-10.658c3.745-4.897 11.234-4.609 14.403.576l12.37 20.558 12.372-20.558c3.168-5.185 10.658-5.473 14.402-.576l8.066 10.658 17.571-29.381c3.169-5.185 10.37-5.473 14.115-.576l15.267 19.875 40.615-66.252c2.593-4.033 7.778-5.473 11.81-2.88 4.033 2.592 5.473 7.777 2.88 11.81l-47.24 77.198c-3.168 4.897-10.37 5.473-14.114.576l-15.267-19.876-17.572 29.67c-3.168 5.185-10.658 5.473-14.402.576l-8.066-10.946-12.962 21.604a9.06 9.06 0 0 1-3.56 3.115c-1.125.581-2.434.918-3.9.918a8.535 8.535 0 0 1-.03 0c-1.464 0-2.774-.337-3.898-.918a9.06 9.06 0 0 1-3.56-3.115l-12.963-21.604-8.065 10.946c-3.745 4.897-11.234 4.609-14.403-.576l-17.571-29.67-15.267 19.876c-3.745 4.897-10.946 4.32-14.115-.576l-40.142-65.599-40.143 65.599c-3.168 4.897-10.37 5.473-14.114.576l-15.267-19.876-17.572 29.67c-3.168 5.185-10.658 5.473-14.402.576l-8.066-10.946-12.962 21.604a9.06 9.06 0 0 1-3.56 3.115z"/><path d="M1182.314 115.03c-1.124.581-2.434.918-3.898.918a8.535 8.535 0 0 1-.03 0c-1.465 0-2.775-.337-3.899-.918a9.06 9.06 0 0 1-3.56-3.115l-12.963-21.604-8.065 10.946c-3.745 4.897-11.235 4.609-14.403-.576l-17.571-29.67-15.267 19.876c-3.745 4.897-10.946 4.32-14.115-.576l-40.142-65.599-40.143 65.599c-3.169 4.897-10.37 5.473-14.115.576l-15.266-19.876-17.572 29.67c-3.168 5.185-10.658 5.473-14.402.576l-8.066-10.946-12.962 21.604a9.06 9.06 0 0 1-3.56 3.115c-1.125.581-2.435.918-3.9.918a8.537 8.537 0 0 1-.03 0c-1.464 0-2.774-.337-3.898-.918a9.06 9.06 0 0 1-3.56-3.115L897.963 90.31l-8.065 10.946c-3.745 4.897-11.235 4.609-14.403-.576l-17.571-29.67-15.267 19.876c-3.745 4.897-10.946 4.32-14.115-.576L788.4 24.711 748.257 90.31c-3.169 4.897-10.37 5.473-14.115.576L718.876 71.01l-17.572 29.67c-3.168 5.185-10.658 5.473-14.402.576l-8.066-10.946-12.962 21.604a9.06 9.06 0 0 1-3.56 3.115c-1.125.581-2.435.918-3.9.918a8.537 8.537 0 0 1-.03 0c-1.464 0-2.774-.337-3.898-.918a9.06 9.06 0 0 1-3.56-3.115L637.963 90.31l-8.065 10.946c-3.745 4.897-11.235 4.609-14.403-.576l-17.571-29.67-15.267 19.876c-3.745 4.897-10.946 4.32-14.115-.576L528.4 24.711 488.257 90.31c-3.169 4.897-10.37 5.473-14.115.576L458.876 71.01l-17.572 29.67c-3.168 5.185-10.658 5.473-14.402.576l-8.066-10.946-12.962 21.604a9.06 9.06 0 0 1-3.56 3.115c-1.125.581-2.435.918-3.9.918a8.537 8.537 0 0 1-.03 0c-1.464 0-2.774-.337-3.898-.918a9.06 9.06 0 0 1-3.56-3.115L377.963 90.31l-8.065 10.946c-3.745 4.897-11.235 4.609-14.403-.576l-17.571-29.67-15.267 19.876c-3.745 4.897-10.946 4.32-14.115-.576L268.4 24.711 228.257 90.31c-3.169 4.897-10.37 5.473-14.115.576L198.876 71.01l-17.572 29.67c-3.168 5.185-10.658 5.473-14.402.576l-8.066-10.946-12.962 21.604a9.06 9.06 0 0 1-3.56 3.115c-1.125.581-2.435.918-3.9.918a8.537 8.537 0 0 1-.03 0c-1.464 0-2.774-.337-3.898-.918a9.06 9.06 0 0 1-3.56-3.115L117.963 90.31l-8.065 10.946c-3.745 4.897-11.235 4.609-14.403-.576l-17.57-29.67-15.267 19.877c-3.745 4.897-10.946 4.32-14.115-.576L1.303 13.113C-1.29 9.08.15 3.895 4.182 1.303 8.216-1.29 13.401.15 15.993 4.182L56.61 70.435 71.875 50.56c3.745-4.897 10.947-4.61 14.115.576l17.571 29.381 8.066-10.658c3.745-4.897 11.234-4.609 14.402.576l12.372 20.558 12.37-20.558c3.17-5.185 10.659-5.473 14.403-.576l8.066 10.658 17.571-29.381c3.169-5.185 10.37-5.473 14.115-.576l15.267 19.875 40.615-66.252c1.74-2.707 4.649-4.246 7.593-4.181 2.944-.065 5.852 1.474 7.592 4.181l40.616 66.252 15.266-19.875c3.745-4.897 10.947-4.61 14.115.576l17.571 29.381 8.066-10.658c3.745-4.897 11.234-4.609 14.402.576l12.372 20.558 12.37-20.558c3.17-5.185 10.659-5.473 14.403-.576l8.066 10.658 17.571-29.381c3.169-5.185 10.37-5.473 14.115-.576l15.267 19.875 40.615-66.252c1.74-2.707 4.649-4.246 7.593-4.181 2.944-.065 5.852 1.474 7.592 4.181l40.616 66.252 15.266-19.875c3.745-4.897 10.947-4.61 14.115.576l17.571 29.381 8.066-10.658c3.745-4.897 11.234-4.609 14.402.576l12.372 20.558 12.37-20.558c3.17-5.185 10.659-5.473 14.403-.576l8.066 10.658 17.571-29.381c3.169-5.185 10.37-5.473 14.115-.576l15.267 19.875 40.615-66.252c1.74-2.707 4.649-4.246 7.593-4.181 2.944-.065 5.852 1.474 7.592 4.181l40.616 66.252 15.266-19.875c3.745-4.897 10.947-4.61 14.115.576l17.571 29.381 8.066-10.658c3.745-4.897 11.234-4.609 14.402.576l12.372 20.558 12.37-20.558c3.17-5.185 10.659-5.473 14.403-.576l8.066 10.658 17.571-29.381c3.169-5.185 10.37-5.473 14.115-.576l15.267 19.875 40.615-66.252c1.74-2.707 4.649-4.246 7.593-4.181 2.944-.065 5.852 1.474 7.592 4.181l40.616 66.252 15.266-19.875c3.745-4.897 10.947-4.61 14.115.576l17.571 29.381 8.066-10.658c3.745-4.897 11.234-4.609 14.403.576l12.37 20.558 12.372-20.558c3.168-5.185 10.658-5.473 14.402-.576l8.066 10.658 17.571-29.381c3.169-5.185 10.37-5.473 14.115-.576l15.267 19.875 40.615-66.252c1.74-2.707 4.649-4.246 7.593-4.181 2.944-.065 5.852 1.474 7.592 4.181l40.616 66.252 15.266-19.875c3.745-4.897 10.947-4.61 14.115.576l17.571 29.381 8.066-10.658c3.745-4.897 11.234-4.609 14.403.576l12.37 20.558 12.372-20.558c3.168-5.185 10.658-5.473 14.402-.576l8.066 10.658 17.571-29.381c3.169-5.185 10.37-5.473 14.115-.576l15.267 19.875 40.615-66.252c2.593-4.033 7.777-5.473 11.81-2.88 4.033 2.592 5.473 7.777 2.88 11.81l-47.24 77.198c-3.169 4.897-10.37 5.473-14.115.576l-15.266-19.876-17.572 29.67c-3.168 5.185-10.658 5.473-14.402.576l-8.066-10.946-12.962 21.604a9.06 9.06 0 0 1-3.56 3.115c-1.125.581-2.435.918-3.9.918a8.535 8.535 0 0 1-.03 0c-1.464 0-2.774-.337-3.898-.918a9.06 9.06 0 0 1-3.56-3.115l-12.963-21.604-8.065 10.946c-3.745 4.897-11.235 4.609-14.403-.576l-17.571-29.67-15.267 19.876c-3.745 4.897-10.946 4.32-14.115-.576l-40.142-65.599-40.143 65.599c-3.169 4.897-10.37 5.473-14.115.576l-15.266-19.876-17.572 29.67c-3.168 5.185-10.658 5.473-14.402.576l-8.066-10.946-12.962 21.604a9.06 9.06 0 0 1-3.56 3.115z"/></g></svg>