<svg width="2981" height="181" xmlns="http://www.w3.org/2000/svg"><g fill="#D81B60" fill-rule="evenodd"><path d="M11.304 33.913c6.243 0 11.305 5.06 11.305 11.304v90.435c0 6.243-5.062 11.305-11.305 11.305C5.062 146.957 0 141.895 0 135.652V45.217c0-6.243 5.062-11.304 11.304-11.304zm33.913 22.609c6.243 0 11.305 5.06 11.305 11.304v45.217c0 6.243-5.062 11.305-11.305 11.305-6.242 0-11.304-5.062-11.304-11.305V67.826c0-6.243 5.062-11.304 11.304-11.304zM79.13 0c6.243 0 11.305 5.06 11.305 11.304v158.261c0 6.243-5.062 11.305-11.305 11.305-6.242 0-11.304-5.062-11.304-11.305V11.305C67.826 5.06 72.888 0 79.13 0zm33.913 28.26c6.243 0 11.305 5.062 11.305 11.305v101.74c0 6.242-5.062 11.304-11.305 11.304-6.242 0-11.304-5.062-11.304-11.305V39.565c0-6.243 5.062-11.304 11.304-11.304zm33.914 28.262c6.242 0 11.304 5.06 11.304 11.304v45.217c0 6.243-5.062 11.305-11.304 11.305-6.243 0-11.305-5.062-11.305-11.305V67.826c0-6.243 5.062-11.304 11.305-11.304zm34.347-22.609c6.243 0 11.305 5.06 11.305 11.304v90.435c0 6.243-5.062 11.305-11.305 11.305-6.242 0-11.304-5.062-11.304-11.305V45.217c0-6.243 5.062-11.304 11.304-11.304zm33.913 22.609c6.243 0 11.305 5.06 11.305 11.304v45.217c0 6.243-5.062 11.305-11.305 11.305-6.242 0-11.304-5.062-11.304-11.305V67.826c0-6.243 5.062-11.304 11.304-11.304zM249.13 0c6.243 0 11.305 5.06 11.305 11.304v158.261c0 6.243-5.062 11.305-11.305 11.305-6.242 0-11.304-5.062-11.304-11.305V11.305C237.826 5.06 242.888 0 249.13 0zm33.913 28.26c6.243 0 11.305 5.062 11.305 11.305v101.74c0 6.242-5.062 11.304-11.305 11.304-6.242 0-11.304-5.062-11.304-11.305V39.565c0-6.243 5.062-11.304 11.304-11.304zm33.914 28.262c6.242 0 11.304 5.06 11.304 11.304v45.217c0 6.243-5.062 11.305-11.304 11.305-6.243 0-11.305-5.062-11.305-11.305V67.826c0-6.243 5.062-11.304 11.305-11.304zm34.347-22.609c6.243 0 11.305 5.06 11.305 11.304v90.435c0 6.243-5.062 11.305-11.305 11.305-6.242 0-11.304-5.062-11.304-11.305V45.217c0-6.243 5.062-11.304 11.304-11.304zm33.913 22.609c6.243 0 11.305 5.06 11.305 11.304v45.217c0 6.243-5.062 11.305-11.305 11.305-6.242 0-11.304-5.062-11.304-11.305V67.826c0-6.243 5.062-11.304 11.304-11.304zM419.13 0c6.243 0 11.305 5.06 11.305 11.304v158.261c0 6.243-5.062 11.305-11.305 11.305-6.242 0-11.304-5.062-11.304-11.305V11.305C407.826 5.06 412.888 0 419.13 0zm33.913 28.26c6.243 0 11.305 5.062 11.305 11.305v101.74c0 6.242-5.062 11.304-11.305 11.304-6.242 0-11.304-5.062-11.304-11.305V39.565c0-6.243 5.062-11.304 11.304-11.304zm33.914 28.262c6.242 0 11.304 5.06 11.304 11.304v45.217c0 6.243-5.062 11.305-11.304 11.305-6.243 0-11.305-5.062-11.305-11.305V67.826c0-6.243 5.062-11.304 11.305-11.304zm34.347-22.609c6.243 0 11.305 5.06 11.305 11.304v90.435c0 6.243-5.062 11.305-11.305 11.305-6.242 0-11.304-5.062-11.304-11.305V45.217c0-6.243 5.062-11.304 11.304-11.304zm33.913 22.609c6.243 0 11.305 5.06 11.305 11.304v45.217c0 6.243-5.062 11.305-11.305 11.305-6.242 0-11.304-5.062-11.304-11.305V67.826c0-6.243 5.062-11.304 11.304-11.304zM589.13 0c6.243 0 11.305 5.06 11.305 11.304v158.261c0 6.243-5.062 11.305-11.305 11.305-6.242 0-11.304-5.062-11.304-11.305V11.305C577.826 5.06 582.888 0 589.13 0zm33.913 28.26c6.243 0 11.305 5.062 11.305 11.305v101.74c0 6.242-5.062 11.304-11.305 11.304-6.242 0-11.304-5.062-11.304-11.305V39.565c0-6.243 5.062-11.304 11.304-11.304zm33.914 28.262c6.242 0 11.304 5.06 11.304 11.304v45.217c0 6.243-5.062 11.305-11.304 11.305-6.243 0-11.305-5.062-11.305-11.305V67.826c0-6.243 5.062-11.304 11.305-11.304zm34.347-22.609c6.243 0 11.305 5.06 11.305 11.304v90.435c0 6.243-5.062 11.305-11.305 11.305-6.242 0-11.304-5.062-11.304-11.305V45.217c0-6.243 5.062-11.304 11.304-11.304zm33.913 22.609c6.243 0 11.305 5.06 11.305 11.304v45.217c0 6.243-5.062 11.305-11.305 11.305-6.242 0-11.304-5.062-11.304-11.305V67.826c0-6.243 5.062-11.304 11.304-11.304zM759.13 0c6.243 0 11.305 5.06 11.305 11.304v158.261c0 6.243-5.062 11.305-11.305 11.305-6.242 0-11.304-5.062-11.304-11.305V11.305C747.826 5.06 752.888 0 759.13 0zm33.913 28.26c6.243 0 11.305 5.062 11.305 11.305v101.74c0 6.242-5.062 11.304-11.305 11.304-6.242 0-11.304-5.062-11.304-11.305V39.565c0-6.243 5.062-11.304 11.304-11.304zm33.914 28.262c6.242 0 11.304 5.06 11.304 11.304v45.217c0 6.243-5.062 11.305-11.304 11.305-6.243 0-11.305-5.062-11.305-11.305V67.826c0-6.243 5.062-11.304 11.305-11.304zm34.347-22.609c6.243 0 11.305 5.06 11.305 11.304v90.435c0 6.243-5.062 11.305-11.305 11.305-6.242 0-11.304-5.062-11.304-11.305V45.217c0-6.243 5.062-11.304 11.304-11.304zm33.913 22.609c6.243 0 11.305 5.06 11.305 11.304v45.217c0 6.243-5.062 11.305-11.305 11.305-6.242 0-11.304-5.062-11.304-11.305V67.826c0-6.243 5.062-11.304 11.304-11.304zM929.13 0c6.243 0 11.305 5.06 11.305 11.304v158.261c0 6.243-5.062 11.305-11.305 11.305-6.242 0-11.304-5.062-11.304-11.305V11.305C917.826 5.06 922.888 0 929.13 0zm33.913 28.26c6.243 0 11.305 5.062 11.305 11.305v101.74c0 6.242-5.062 11.304-11.305 11.304-6.242 0-11.304-5.062-11.304-11.305V39.565c0-6.243 5.062-11.304 11.304-11.304zm33.914 28.262c6.242 0 11.304 5.06 11.304 11.304v45.217c0 6.243-5.062 11.305-11.304 11.305-6.243 0-11.305-5.062-11.305-11.305V67.826c0-6.243 5.062-11.304 11.305-11.304zm34.347-22.609c6.243 0 11.305 5.06 11.305 11.304v90.435c0 6.243-5.062 11.305-11.305 11.305-6.242 0-11.304-5.062-11.304-11.305V45.217c0-6.243 5.062-11.304 11.304-11.304zm33.913 22.609c6.243 0 11.305 5.06 11.305 11.304v45.217c0 6.243-5.062 11.305-11.305 11.305-6.242 0-11.304-5.062-11.304-11.305V67.826c0-6.243 5.062-11.304 11.304-11.304zM1099.13 0c6.243 0 11.305 5.06 11.305 11.304v158.261c0 6.243-5.062 11.305-11.305 11.305-6.242 0-11.304-5.062-11.304-11.305V11.305c0-6.244 5.062-11.305 11.304-11.305zm33.913 28.26c6.243 0 11.305 5.062 11.305 11.305v101.74c0 6.242-5.062 11.304-11.305 11.304-6.242 0-11.304-5.062-11.304-11.305V39.565c0-6.243 5.062-11.304 11.304-11.304zm33.914 28.262c6.242 0 11.304 5.06 11.304 11.304v45.217c0 6.243-5.062 11.305-11.304 11.305-6.243 0-11.305-5.062-11.305-11.305V67.826c0-6.243 5.062-11.304 11.305-11.304zm34.347-22.609c6.243 0 11.305 5.06 11.305 11.304v90.435c0 6.243-5.062 11.305-11.305 11.305-6.242 0-11.304-5.062-11.304-11.305V45.217c0-6.243 5.062-11.304 11.304-11.304zm33.913 22.609c6.243 0 11.305 5.06 11.305 11.304v45.217c0 6.243-5.062 11.305-11.305 11.305-6.242 0-11.304-5.062-11.304-11.305V67.826c0-6.243 5.062-11.304 11.304-11.304zM1269.13 0c6.243 0 11.305 5.06 11.305 11.304v158.261c0 6.243-5.062 11.305-11.305 11.305-6.242 0-11.304-5.062-11.304-11.305V11.305c0-6.244 5.062-11.305 11.304-11.305zm33.913 28.26c6.243 0 11.305 5.062 11.305 11.305v101.74c0 6.242-5.062 11.304-11.305 11.304-6.242 0-11.304-5.062-11.304-11.305V39.565c0-6.243 5.062-11.304 11.304-11.304zm33.914 28.262c6.242 0 11.304 5.06 11.304 11.304v45.217c0 6.243-5.062 11.305-11.304 11.305-6.243 0-11.305-5.062-11.305-11.305V67.826c0-6.243 5.062-11.304 11.305-11.304zm34.347-22.609c6.243 0 11.305 5.06 11.305 11.304v90.435c0 6.243-5.062 11.305-11.305 11.305-6.242 0-11.304-5.062-11.304-11.305V45.217c0-6.243 5.062-11.304 11.304-11.304zm33.913 22.609c6.243 0 11.305 5.06 11.305 11.304v45.217c0 6.243-5.062 11.305-11.305 11.305-6.242 0-11.304-5.062-11.304-11.305V67.826c0-6.243 5.062-11.304 11.304-11.304zM1439.13 0c6.243 0 11.305 5.06 11.305 11.304v158.261c0 6.243-5.062 11.305-11.305 11.305-6.242 0-11.304-5.062-11.304-11.305V11.305c0-6.244 5.062-11.305 11.304-11.305zm33.913 28.26c6.243 0 11.305 5.062 11.305 11.305v101.74c0 6.242-5.062 11.304-11.305 11.304-6.242 0-11.304-5.062-11.304-11.305V39.565c0-6.243 5.062-11.304 11.304-11.304zm33.914 28.262c6.242 0 11.304 5.06 11.304 11.304v45.217c0 6.243-5.062 11.305-11.304 11.305-6.243 0-11.305-5.062-11.305-11.305V67.826c0-6.243 5.062-11.304 11.305-11.304z"/><path d="M1473.304 33.913c6.243 0 11.305 5.06 11.305 11.304v90.435c0 6.243-5.062 11.305-11.305 11.305-6.242 0-11.304-5.062-11.304-11.305V45.217c0-6.243 5.062-11.304 11.304-11.304zm33.913 22.609c6.243 0 11.305 5.06 11.305 11.304v45.217c0 6.243-5.062 11.305-11.305 11.305-6.242 0-11.304-5.062-11.304-11.305V67.826c0-6.243 5.062-11.304 11.304-11.304zM1541.13 0c6.243 0 11.305 5.06 11.305 11.304v158.261c0 6.243-5.062 11.305-11.305 11.305-6.242 0-11.304-5.062-11.304-11.305V11.305c0-6.244 5.062-11.305 11.304-11.305zm33.913 28.26c6.243 0 11.305 5.062 11.305 11.305v101.74c0 6.242-5.062 11.304-11.305 11.304-6.242 0-11.304-5.062-11.304-11.305V39.565c0-6.243 5.062-11.304 11.304-11.304zm33.914 28.262c6.242 0 11.304 5.06 11.304 11.304v45.217c0 6.243-5.062 11.305-11.304 11.305-6.243 0-11.305-5.062-11.305-11.305V67.826c0-6.243 5.062-11.304 11.305-11.304zm34.347-22.609c6.243 0 11.305 5.06 11.305 11.304v90.435c0 6.243-5.062 11.305-11.305 11.305-6.242 0-11.304-5.062-11.304-11.305V45.217c0-6.243 5.062-11.304 11.304-11.304zm33.913 22.609c6.243 0 11.305 5.06 11.305 11.304v45.217c0 6.243-5.062 11.305-11.305 11.305-6.242 0-11.304-5.062-11.304-11.305V67.826c0-6.243 5.062-11.304 11.304-11.304zM1711.13 0c6.243 0 11.305 5.06 11.305 11.304v158.261c0 6.243-5.062 11.305-11.305 11.305-6.242 0-11.304-5.062-11.304-11.305V11.305c0-6.244 5.062-11.305 11.304-11.305zm33.913 28.26c6.243 0 11.305 5.062 11.305 11.305v101.74c0 6.242-5.062 11.304-11.305 11.304-6.242 0-11.304-5.062-11.304-11.305V39.565c0-6.243 5.062-11.304 11.304-11.304zm33.914 28.262c6.242 0 11.304 5.06 11.304 11.304v45.217c0 6.243-5.062 11.305-11.304 11.305-6.243 0-11.305-5.062-11.305-11.305V67.826c0-6.243 5.062-11.304 11.305-11.304zm34.347-22.609c6.243 0 11.305 5.06 11.305 11.304v90.435c0 6.243-5.062 11.305-11.305 11.305-6.242 0-11.304-5.062-11.304-11.305V45.217c0-6.243 5.062-11.304 11.304-11.304zm33.913 22.609c6.243 0 11.305 5.06 11.305 11.304v45.217c0 6.243-5.062 11.305-11.305 11.305-6.242 0-11.304-5.062-11.304-11.305V67.826c0-6.243 5.062-11.304 11.304-11.304zM1881.13 0c6.243 0 11.305 5.06 11.305 11.304v158.261c0 6.243-5.062 11.305-11.305 11.305-6.242 0-11.304-5.062-11.304-11.305V11.305c0-6.244 5.062-11.305 11.304-11.305zm33.913 28.26c6.243 0 11.305 5.062 11.305 11.305v101.74c0 6.242-5.062 11.304-11.305 11.304-6.242 0-11.304-5.062-11.304-11.305V39.565c0-6.243 5.062-11.304 11.304-11.304zm33.914 28.262c6.242 0 11.304 5.06 11.304 11.304v45.217c0 6.243-5.062 11.305-11.304 11.305-6.243 0-11.305-5.062-11.305-11.305V67.826c0-6.243 5.062-11.304 11.305-11.304zm34.347-22.609c6.243 0 11.305 5.06 11.305 11.304v90.435c0 6.243-5.062 11.305-11.305 11.305-6.242 0-11.304-5.062-11.304-11.305V45.217c0-6.243 5.062-11.304 11.304-11.304zm33.913 22.609c6.243 0 11.305 5.06 11.305 11.304v45.217c0 6.243-5.062 11.305-11.305 11.305-6.242 0-11.304-5.062-11.304-11.305V67.826c0-6.243 5.062-11.304 11.304-11.304zM2051.13 0c6.243 0 11.305 5.06 11.305 11.304v158.261c0 6.243-5.062 11.305-11.305 11.305-6.242 0-11.304-5.062-11.304-11.305V11.305c0-6.244 5.062-11.305 11.304-11.305zm33.913 28.26c6.243 0 11.305 5.062 11.305 11.305v101.74c0 6.242-5.062 11.304-11.305 11.304-6.242 0-11.304-5.062-11.304-11.305V39.565c0-6.243 5.062-11.304 11.304-11.304zm33.914 28.262c6.242 0 11.304 5.06 11.304 11.304v45.217c0 6.243-5.062 11.305-11.304 11.305-6.243 0-11.305-5.062-11.305-11.305V67.826c0-6.243 5.062-11.304 11.305-11.304zm34.347-22.609c6.243 0 11.305 5.06 11.305 11.304v90.435c0 6.243-5.062 11.305-11.305 11.305-6.242 0-11.304-5.062-11.304-11.305V45.217c0-6.243 5.062-11.304 11.304-11.304zm33.913 22.609c6.243 0 11.305 5.06 11.305 11.304v45.217c0 6.243-5.062 11.305-11.305 11.305-6.242 0-11.304-5.062-11.304-11.305V67.826c0-6.243 5.062-11.304 11.304-11.304zM2221.13 0c6.243 0 11.305 5.06 11.305 11.304v158.261c0 6.243-5.062 11.305-11.305 11.305-6.242 0-11.304-5.062-11.304-11.305V11.305c0-6.244 5.062-11.305 11.304-11.305zm33.913 28.26c6.243 0 11.305 5.062 11.305 11.305v101.74c0 6.242-5.062 11.304-11.305 11.304-6.242 0-11.304-5.062-11.304-11.305V39.565c0-6.243 5.062-11.304 11.304-11.304zm33.914 28.262c6.242 0 11.304 5.06 11.304 11.304v45.217c0 6.243-5.062 11.305-11.304 11.305-6.243 0-11.305-5.062-11.305-11.305V67.826c0-6.243 5.062-11.304 11.305-11.304zm34.347-22.609c6.243 0 11.305 5.06 11.305 11.304v90.435c0 6.243-5.062 11.305-11.305 11.305-6.242 0-11.304-5.062-11.304-11.305V45.217c0-6.243 5.062-11.304 11.304-11.304zm33.913 22.609c6.243 0 11.305 5.06 11.305 11.304v45.217c0 6.243-5.062 11.305-11.305 11.305-6.242 0-11.304-5.062-11.304-11.305V67.826c0-6.243 5.062-11.304 11.304-11.304zM2391.13 0c6.243 0 11.305 5.06 11.305 11.304v158.261c0 6.243-5.062 11.305-11.305 11.305-6.242 0-11.304-5.062-11.304-11.305V11.305c0-6.244 5.062-11.305 11.304-11.305zm33.913 28.26c6.243 0 11.305 5.062 11.305 11.305v101.74c0 6.242-5.062 11.304-11.305 11.304-6.242 0-11.304-5.062-11.304-11.305V39.565c0-6.243 5.062-11.304 11.304-11.304zm33.914 28.262c6.242 0 11.304 5.06 11.304 11.304v45.217c0 6.243-5.062 11.305-11.304 11.305-6.243 0-11.305-5.062-11.305-11.305V67.826c0-6.243 5.062-11.304 11.305-11.304zm34.347-22.609c6.243 0 11.305 5.06 11.305 11.304v90.435c0 6.243-5.062 11.305-11.305 11.305-6.242 0-11.304-5.062-11.304-11.305V45.217c0-6.243 5.062-11.304 11.304-11.304zm33.913 22.609c6.243 0 11.305 5.06 11.305 11.304v45.217c0 6.243-5.062 11.305-11.305 11.305-6.242 0-11.304-5.062-11.304-11.305V67.826c0-6.243 5.062-11.304 11.304-11.304zM2561.13 0c6.243 0 11.305 5.06 11.305 11.304v158.261c0 6.243-5.062 11.305-11.305 11.305-6.242 0-11.304-5.062-11.304-11.305V11.305c0-6.244 5.062-11.305 11.304-11.305zm33.913 28.26c6.243 0 11.305 5.062 11.305 11.305v101.74c0 6.242-5.062 11.304-11.305 11.304-6.242 0-11.304-5.062-11.304-11.305V39.565c0-6.243 5.062-11.304 11.304-11.304zm33.914 28.262c6.242 0 11.304 5.06 11.304 11.304v45.217c0 6.243-5.062 11.305-11.304 11.305-6.243 0-11.305-5.062-11.305-11.305V67.826c0-6.243 5.062-11.304 11.305-11.304zm34.347-22.609c6.243 0 11.305 5.06 11.305 11.304v90.435c0 6.243-5.062 11.305-11.305 11.305-6.242 0-11.304-5.062-11.304-11.305V45.217c0-6.243 5.062-11.304 11.304-11.304zm33.913 22.609c6.243 0 11.305 5.06 11.305 11.304v45.217c0 6.243-5.062 11.305-11.305 11.305-6.242 0-11.304-5.062-11.304-11.305V67.826c0-6.243 5.062-11.304 11.304-11.304zM2731.13 0c6.243 0 11.305 5.06 11.305 11.304v158.261c0 6.243-5.062 11.305-11.305 11.305-6.242 0-11.304-5.062-11.304-11.305V11.305c0-6.244 5.062-11.305 11.304-11.305zm33.913 28.26c6.243 0 11.305 5.062 11.305 11.305v101.74c0 6.242-5.062 11.304-11.305 11.304-6.242 0-11.304-5.062-11.304-11.305V39.565c0-6.243 5.062-11.304 11.304-11.304zm33.914 28.262c6.242 0 11.304 5.06 11.304 11.304v45.217c0 6.243-5.062 11.305-11.304 11.305-6.243 0-11.305-5.062-11.305-11.305V67.826c0-6.243 5.062-11.304 11.305-11.304zm34.347-22.609c6.243 0 11.305 5.06 11.305 11.304v90.435c0 6.243-5.062 11.305-11.305 11.305-6.242 0-11.304-5.062-11.304-11.305V45.217c0-6.243 5.062-11.304 11.304-11.304zm33.913 22.609c6.243 0 11.305 5.06 11.305 11.304v45.217c0 6.243-5.062 11.305-11.305 11.305-6.242 0-11.304-5.062-11.304-11.305V67.826c0-6.243 5.062-11.304 11.304-11.304zM2901.13 0c6.243 0 11.305 5.06 11.305 11.304v158.261c0 6.243-5.062 11.305-11.305 11.305-6.242 0-11.304-5.062-11.304-11.305V11.305c0-6.244 5.062-11.305 11.304-11.305zm33.913 28.26c6.243 0 11.305 5.062 11.305 11.305v101.74c0 6.242-5.062 11.304-11.305 11.304-6.242 0-11.304-5.062-11.304-11.305V39.565c0-6.243 5.062-11.304 11.304-11.304zm33.914 28.262c6.242 0 11.304 5.06 11.304 11.304v45.217c0 6.243-5.062 11.305-11.304 11.305-6.243 0-11.305-5.062-11.305-11.305V67.826c0-6.243 5.062-11.304 11.305-11.304z"/></g></svg>