<svg width="16" height="24" xmlns="http://www.w3.org/2000/svg"><g fill-rule="evenodd"><path d="M7.886 0C3.549 0 .02 3.526.02 7.86c0 4.165 7.147 15.436 7.452 15.913a.49.49 0 0 0 .826 0c.304-.477 7.452-11.748 7.452-15.913C15.75 3.526 12.222 0 7.886 0zm0 22.586a118.327 118.327 0 0 1-3.26-5.613C2.254 12.593 1 9.443 1 7.86 1 4.066 4.09.98 7.886.98c3.796 0 6.885 3.086 6.885 6.88 0 1.582-1.254 4.734-3.626 9.113-1.3 2.4-2.612 4.566-3.26 5.613z"/><path d="M7.886 3.726c-2.052 0-3.72 1.624-3.72 3.62 0 1.995 1.668 3.618 3.72 3.618 2.051 0 3.72-1.623 3.72-3.619 0-1.995-1.669-3.62-3.72-3.62zm0 6.259c-1.512 0-2.741-1.184-2.741-2.64 0-1.455 1.23-2.64 2.74-2.64 1.512 0 2.742 1.185 2.742 2.64 0 1.456-1.23 2.64-2.741 2.64z"/></g></svg>