<svg width="24" height="23" xmlns="http://www.w3.org/2000/svg"><g fill-rule="evenodd"><path d="M20.208 1.557h-2.994V.81c0-.45-.3-.749-.748-.749-.45 0-.749.3-.749.749v.748H8.233V.81c0-.45-.3-.749-.749-.749s-.748.3-.748.749v.748H3.742A3.706 3.706 0 0 0 0 5.3v13.472a3.706 3.706 0 0 0 3.742 3.742h16.466a3.706 3.706 0 0 0 3.742-3.742V5.3a3.706 3.706 0 0 0-3.742-3.742zM1.497 5.3c0-1.197 1.048-2.245 2.245-2.245h2.994v.748c0 .45.3.749.748.749.45 0 .749-.3.749-.749v-.748h7.484v.748c0 .45.3.749.749.749s.748-.3.748-.749v-.748h2.994c1.197 0 2.245 1.048 2.245 2.245v2.246H1.497V5.299zm20.956 13.472c0 1.198-1.048 2.246-2.245 2.246H3.742c-1.197 0-2.245-1.048-2.245-2.246v-9.73h20.956v9.73z"/><path d="M5.24 18.771c.448 0 .748-.15 1.047-.449.3-.3.449-.748.449-1.048 0-.299-.15-.748-.45-1.047-.598-.6-1.496-.6-2.095 0-.3.299-.449.598-.449 1.047 0 .3.15.749.45 1.048.299.3.598.45 1.047.45zm0-4.491c.448 0 .748-.15 1.047-.448.3-.3.449-.749.449-1.048 0-.3-.15-.749-.45-1.048-.598-.599-1.496-.599-2.095 0-.3.3-.449.599-.449 1.048 0 .449.15.748.45 1.048.299.299.598.449 1.047.449zm4.49 4.491c.449 0 .748-.15 1.048-.449.299-.3.449-.748.449-1.048 0-.299-.15-.748-.45-1.047-.598-.6-1.496-.6-2.095 0-.3.299-.45.748-.45 1.047 0 .3.15.749.45 1.048.3.3.599.45 1.048.45zm0-4.491c.449 0 .748-.15 1.048-.448.299-.3.449-.749.449-1.048 0-.3-.15-.749-.45-1.048-.598-.599-1.496-.599-2.095 0-.3.3-.45.748-.45 1.048 0 .3.15.748.45 1.048.3.299.599.449 1.048.449zm4.49 4.491c.45 0 .749-.15 1.048-.449.3-.3.45-.598.45-1.048 0-.449-.15-.748-.45-1.047-.599-.6-1.497-.6-2.096 0a1.617 1.617 0 0 0-.449 1.047c0 .3.15.749.45 1.048.299.3.598.45 1.047.45zm0-4.491c.45 0 .749-.15 1.048-.448.3-.3.45-.6.45-1.048 0-.3-.15-.749-.45-1.048-.599-.599-1.497-.599-2.096 0a1.62 1.62 0 0 0-.449 1.048c0 .3.15.748.45 1.048.299.299.598.449 1.047.449zm4.491 4.491c.449 0 .748-.15 1.048-.449.3-.3.449-.748.449-1.048 0-.299-.15-.748-.45-1.047-.598-.6-1.496-.6-2.095 0-.3.299-.449.598-.449 1.047 0 .3.15.749.45 1.048.298.3.598.45 1.047.45zm0-4.491c.449 0 .748-.15 1.048-.448.3-.3.449-.6.449-1.048 0-.3-.15-.749-.45-1.048-.598-.599-1.496-.599-2.095 0-.3.3-.449.748-.449 1.048 0 .3.15.748.45 1.048.298.299.598.449 1.047.449z"/></g></svg>