<svg width="24" height="23" xmlns="http://www.w3.org/2000/svg"><path d="M23.959 7.035c-.35-3.856-3.08-6.653-6.495-6.653-2.275 0-4.359 1.224-5.53 3.187C10.77 1.58 8.773.38 6.533.38 3.12.381.39 3.18.04 7.034c-.028.17-.141 1.067.204 2.529.498 2.108 1.647 4.026 3.323 5.544l8.36 7.587 8.505-7.586c1.676-1.52 2.825-3.437 3.322-5.545.346-1.462.232-2.358.205-2.528zM22.856 9.35c-.454 1.926-1.507 3.68-3.042 5.07l-7.88 7.032-7.747-7.03c-1.537-1.393-2.59-3.147-3.044-5.072C.816 7.968.95 7.186.95 7.18l.007-.047c.3-3.378 2.645-5.83 5.576-5.83 2.164 0 4.068 1.33 4.972 3.469l.425 1.007.425-1.007c.89-2.107 2.894-3.468 5.109-3.468 2.93 0 5.276 2.452 5.582 5.874.001.007.136.789-.191 2.172z" fill-rule="evenodd"/></svg>