<svg width="24" height="23" xmlns="http://www.w3.org/2000/svg"><path d="M12.376.428l2.485 7.715 8.112-.01a.61.61 0 0 1 .615.607c0 .199-.104.38-.251.493l-6.571 4.754 2.52 7.713a.602.602 0 0 1-.39.762.621.621 0 0 1-.589-.112l-6.511-4.754-6.554 4.78a.606.606 0 0 1-.935-.676H4.3l2.528-7.713L.256 9.233a.602.602 0 0 1-.139-.849.588.588 0 0 1 .537-.25l8.069.008L11.216.428a.613.613 0 0 1 .762-.399c.2.07.337.217.398.4zm1.463 8.51l-2.043-6.345-2.052 6.346a.606.606 0 0 1-.58.424l-6.666-.009L7.9 13.259a.608.608 0 0 1 .216.684L6.047 20.28l5.377-3.922a.623.623 0 0 1 .727-.009l5.385 3.93-2.06-6.31a.612.612 0 0 1 .207-.711l5.41-3.905-6.648.009a.602.602 0 0 1-.606-.425z" fill="#1E201D" fill-rule="evenodd"/></svg>