<svg width="20" height="23" xmlns="http://www.w3.org/2000/svg"><path d="M1.429 4.286C.639 4.286 0 4.926 0 5.714v11.429a1.429 1.429 0 0 0 2.857 0V5.714c0-.789-.64-1.428-1.428-1.428zm4.285 2.857c-.789 0-1.428.64-1.428 1.428v5.715a1.429 1.429 0 0 0 2.857 0V8.57c0-.789-.64-1.428-1.429-1.428zM10 0a1.43 1.43 0 0 0-1.429 1.429v20a1.429 1.429 0 0 0 2.858 0v-20C11.429.639 10.789 0 10 0zm4.286 3.571c-.79 0-1.429.64-1.429 1.429v12.857a1.429 1.429 0 0 0 2.857 0V5a1.43 1.43 0 0 0-1.428-1.429zm4.285 3.572c-.789 0-1.428.64-1.428 1.428v5.715a1.429 1.429 0 0 0 2.857 0V8.57c0-.789-.64-1.428-1.429-1.428z" fill-rule="evenodd"/></svg>