<svg width="24" height="24" xmlns="http://www.w3.org/2000/svg"><path d="M1.851 15.193a.852.852 0 0 0-.851.85v5.678a.851.851 0 0 0 1.703 0v-5.678a.85.85 0 0 0-.852-.85zm3.384-5.677a.851.851 0 0 0-.852.851v11.354a.852.852 0 1 0 1.703 0V10.367a.851.851 0 0 0-.851-.851zm3.382 2.838a.852.852 0 0 0-.851.851v8.516a.851.851 0 0 0 1.703 0v-8.515a.852.852 0 0 0-.852-.852zM12 6.677a.851.851 0 0 0-.85.852V21.72a.851.851 0 1 0 1.702 0V7.529A.851.851 0 0 0 12 6.677zM15.384 1a.852.852 0 0 0-.852.851v19.87a.851.851 0 0 0 1.703 0V1.851A.852.852 0 0 0 15.384 1zm3.382 8.516a.851.851 0 0 0-.85.851v11.354a.851.851 0 1 0 1.701 0V10.367a.85.85 0 0 0-.85-.851zm3.383 8.515a.85.85 0 0 0-.851.85v2.84a.85.85 0 1 0 1.702 0v-2.839a.85.85 0 0 0-.851-.851z" stroke="#000" fill-rule="evenodd"/></svg>