<svg width="20" height="15" xmlns="http://www.w3.org/2000/svg"><path d="M19.996 11.443c0 .555-.525 1.08-1.08 1.08-.71 0-1.13.344-1.737.894-.606.55-1.42 1.42-2.735 1.42-1.316 0-2.133-.87-2.735-1.42-.606-.555-1.002-.895-1.712-.895s-1.105.345-1.711.895c-.606.55-1.42 1.42-2.735 1.42-1.316 0-2.133-.87-2.735-1.42-.606-.555-1.002-.895-1.712-.895-.554 0-1.079-.498-1.079-1.079 0-.58.525-1.08 1.08-1.053 1.474 0 2.498.842 3.156 1.449.658.606 1.002.868 1.316.868.314 0 .632-.262 1.29-.868.658-.607 1.686-1.45 3.156-1.45 1.47 0 2.473.843 3.157 1.45.658.606 1.002.868 1.316.868.313 0 .632-.262 1.29-.868.658-.607 1.685-1.45 3.156-1.45.529-.025 1.054.504 1.054 1.054zM1.074 2.13c.71 0 1.106.314 1.712.868.606.555 1.419 1.42 2.735 1.42h.236c1.183-.104 1.923-.895 2.499-1.42.524-.473.894-.79 1.475-.868.077 0 .159-.026.262-.026.71 0 1.105.314 1.712.869.159.133.314.288.499.473.554.473 1.238.971 2.236.971h.236c1.183-.103 1.922-.894 2.499-1.419.524-.473.894-.79 1.475-.868.077 0 .159-.026.262-.026a.984.984 0 0 0 .396-.078c.051-.025.133-.051.185-.103.288-.185.498-.524.498-.868a.984.984 0 0 0-.077-.396 1.028 1.028 0 0 0-.236-.344.749.749 0 0 0-.16-.133c-.051-.026-.103-.078-.185-.104-.077-.025-.133-.051-.21-.051C19.045 0 18.989 0 18.913 0h-.263c-1.316.103-2.262.843-2.894 1.42-.58.524-.895.816-1.183.868-.052 0-.077.026-.103.026a.78.78 0 0 1-.237-.052 2.237 2.237 0 0 1-.606-.447 4.772 4.772 0 0 1-.447-.396C12.522.813 11.494 0 10.023 0h-.262C8.445.103 7.499.843 6.867 1.42c-.58.524-.895.816-1.183.868-.051 0-.077.026-.103.026a.78.78 0 0 1-.236-.052c-.078-.026-.185-.103-.288-.16-.211-.132-.448-.369-.792-.657C3.607.839 2.58.025 1.11.025h-.103C.45.053-.048.582.004 1.132c-.035.55.516 1.023 1.07.998zM18.89 5.182h-.262c-1.316.103-2.262.869-2.894 1.419-.58.525-.894.817-1.183.869-.051 0-.077.025-.103.025-.103 0-.236-.051-.37-.133-.236-.133-.524-.37-.92-.761-.658-.606-1.686-1.45-3.156-1.45h-.263c-1.315.104-2.261.87-2.894 1.42-.58.524-.894.817-1.182.869-.052 0-.078.025-.103.025a.77.77 0 0 1-.37-.133c-.052-.026-.103-.052-.16-.077-.21-.134-.447-.37-.79-.658-.659-.607-1.686-1.45-3.157-1.45-.555 0-1.08.5-1.08 1.08 0 .58.525 1.08 1.08 1.053.71 0 1.105.344 1.711.895.607.555 1.42 1.419 2.735 1.419h.237c1.183-.103 1.922-.895 2.498-1.42.37-.343.684-.605 1.028-.734.078-.026.134-.052.21-.078.078-.026.16-.026.237-.052.078 0 .16-.025.263-.025.71 0 1.105.344 1.711.894.16.133.314.288.5.473.554.473 1.238.972 2.235.972h.237c1.182-.103 1.922-.894 2.498-1.419.37-.344.684-.606 1.028-.735.077-.026.133-.052.21-.078.078-.026.16-.026.237-.051.078 0 .16-.026.263-.026.554 0 1.079-.499 1.079-1.054-.004-.555-.529-1.08-1.11-1.08z" fill-rule="evenodd"/></svg>