<svg width="20" height="16" xmlns="http://www.w3.org/2000/svg"><path d="M19.269 12.878H.714c-.194 0-.36.07-.502.212a.686.686 0 0 0-.212.502v1.427c0 .193.07.36.212.502a.687.687 0 0 0 .502.212h18.555a.69.69 0 0 0 .502-.212.687.687 0 0 0 .212-.502v-1.427c0-.194-.07-.36-.212-.502a.687.687 0 0 0-.502-.212zm0-4.282H4.996c-.194 0-.36.07-.502.212a.685.685 0 0 0-.212.502v1.427c0 .193.07.36.212.502a.686.686 0 0 0 .502.212h14.273c.193 0 .36-.07.502-.212a.686.686 0 0 0 .212-.502V9.31c0-.193-.07-.36-.212-.502a.686.686 0 0 0-.502-.212zm0-4.282H2.141c-.193 0-.36.07-.502.212a.686.686 0 0 0-.212.502v1.427c0 .193.071.36.212.502a.686.686 0 0 0 .502.212H19.27c.193 0 .36-.07.502-.212a.686.686 0 0 0 .212-.502V5.028c0-.194-.07-.36-.212-.502a.686.686 0 0 0-.502-.212zm.502-4.07a.687.687 0 0 0-.502-.212H6.423c-.193 0-.36.07-.502.212a.686.686 0 0 0-.212.502v1.427c0 .193.071.36.212.502a.686.686 0 0 0 .502.212H19.27a.69.69 0 0 0 .502-.212.686.686 0 0 0 .212-.502V.746c0-.194-.07-.36-.212-.502z" fill-rule="evenodd"/></svg>