<svg width="20" height="18" xmlns="http://www.w3.org/2000/svg"><path d="M14.114 17.356c-1.84 0-3.682-.7-5.084-2.1a4.452 4.452 0 0 0-6.289 0 1.37 1.37 0 0 1-1.94 0 1.37 1.37 0 0 1 0-1.94c2.803-2.802 7.364-2.802 10.169 0a4.454 4.454 0 0 0 6.289 0 1.37 1.37 0 0 1 1.94 0 1.37 1.37 0 0 1 0 1.94 7.168 7.168 0 0 1-5.085 2.1zm0-5.485A7.175 7.175 0 0 1 9.03 9.77a4.452 4.452 0 0 0-6.289 0 1.37 1.37 0 0 1-1.94 0 1.37 1.37 0 0 1 0-1.94c2.803-2.801 7.364-2.801 10.169 0a4.454 4.454 0 0 0 6.289 0 1.37 1.37 0 0 1 1.94 0 1.37 1.37 0 0 1 0 1.94 7.168 7.168 0 0 1-5.085 2.1zm0-5.486c-1.84 0-3.682-.7-5.084-2.101a4.452 4.452 0 0 0-6.289 0 1.37 1.37 0 0 1-1.94 0 1.37 1.37 0 0 1 0-1.94c2.803-2.8 7.364-2.803 10.169 0a4.454 4.454 0 0 0 6.289 0 1.37 1.37 0 0 1 1.94 0 1.37 1.37 0 0 1 0 1.94 7.168 7.168 0 0 1-5.085 2.1z" fill="#030104" fill-rule="evenodd"/></svg>