<svg width="22" height="21" xmlns="http://www.w3.org/2000/svg"><path d="M1.893.08A1.893 1.893 0 0 0 0 1.973v16.66a1.893 1.893 0 0 0 3.786 0V1.973A1.893 1.893 0 0 0 1.893.08zm4.544 3.787A1.893 1.893 0 0 0 4.544 5.76v12.873a1.893 1.893 0 0 0 3.786 0V5.76a1.893 1.893 0 0 0-1.893-1.893zm4.543 6.815a1.893 1.893 0 0 0-1.893 1.893v6.058a1.893 1.893 0 0 0 3.786 0v-6.058a1.893 1.893 0 0 0-1.893-1.893zm4.543-4.544a1.893 1.893 0 0 0-1.893 1.893v10.602a1.893 1.893 0 1 0 3.786 0V8.03a1.893 1.893 0 0 0-1.893-1.893zM20.067.08a1.893 1.893 0 0 0-1.893 1.893v16.66a1.893 1.893 0 0 0 3.786 0V1.973A1.893 1.893 0 0 0 20.067.08z" fill-rule="evenodd"/></svg>