<svg width="25" height="24" xmlns="http://www.w3.org/2000/svg"><path d="M.935 6.556A.935.935 0 0 0 0 7.49v9.01a.935.935 0 1 0 1.87 0V7.49a.935.935 0 0 0-.935-.935zm4.466-2.702a.935.935 0 0 0-.935.935v14.413a.935.935 0 1 0 1.87 0V4.79a.935.935 0 0 0-.935-.935zM9.867.094a.935.935 0 0 0-.935.934v21.935a.935.935 0 1 0 1.87 0V1.028a.935.935 0 0 0-.935-.935zm4.465 5.45a.935.935 0 0 0-.935.935v11.033a.935.935 0 1 0 1.87 0V6.48a.935.935 0 0 0-.935-.935zm4.466 1.012a.935.935 0 0 0-.935.935v9.01a.935.935 0 1 0 1.87 0V7.49a.935.935 0 0 0-.935-.935zm4.466 2.994a.935.935 0 0 0-.935.935v3.021a.935.935 0 1 0 1.87 0v-3.02a.935.935 0 0 0-.935-.936z" fill-rule="evenodd"/></svg>