<svg width="24" height="16" xmlns="http://www.w3.org/2000/svg"><path d="M1.325 10.6C.593 10.6 0 11.193 0 11.924v2.65a1.325 1.325 0 0 0 2.65 0v-2.65c0-.731-.595-1.324-1.325-1.324zm5.297-2.65c-.73 0-1.324.593-1.324 1.324v5.298a1.325 1.325 0 0 0 2.649 0V9.275c0-.731-.594-1.324-1.325-1.324zm5.298-2.649c-.731 0-1.324.593-1.324 1.325v7.946a1.325 1.325 0 0 0 2.649 0V6.626c0-.73-.594-1.324-1.325-1.324zm5.298-2.649c-.73 0-1.325.594-1.325 1.325v10.595a1.326 1.326 0 0 0 2.65 0V3.978c0-.732-.594-1.325-1.325-1.325zM22.516.005c-.731 0-1.325.593-1.325 1.324v13.244a1.326 1.326 0 0 0 2.65 0V1.33c0-.731-.594-1.324-1.325-1.324z" fill-rule="evenodd"/></svg>