<svg width="24" height="23" xmlns="http://www.w3.org/2000/svg"><path d="M2.629 13.169V7.91A1.314 1.314 0 1 0 0 7.91v5.258a1.314 1.314 0 1 0 2.629 0zm4.236 5.477V3.31a1.314 1.314 0 1 0-2.63 0v15.336a1.314 1.314 0 1 0 2.63 0zm4.235-2.264V7.911a1.314 1.314 0 1 0-2.629 0v8.471a1.314 1.314 0 1 0 2.63 0zm11.538-7.156c-.726 0-1.314.588-1.314 1.314v7.304a1.314 1.314 0 1 0 2.629 0V10.54c0-.726-.588-1.314-1.315-1.314zM18.403.024c-.726 0-1.314.588-1.314 1.314v19.937a1.314 1.314 0 1 0 2.629 0V1.338c0-.725-.59-1.314-1.315-1.314zm-4.236 19.134c.727 0 1.315-.588 1.315-1.315V5.173a1.314 1.314 0 1 0-2.63 0v12.67c0 .727.59 1.315 1.315 1.315z" fill-rule="evenodd"/></svg>