<svg width="24" height="23" xmlns="http://www.w3.org/2000/svg"><path d="M20.044 11.057c-.39 0-.692.3-.692.692v9.455h-4.905v-3.86a.683.683 0 0 0-.667-.68h-3.546a.7.7 0 0 0-.704.68v3.86H4.637v-9.14a.678.678 0 0 0-.692-.669.672.672 0 0 0-.666.668v9.834c0 .364.302.668.666.668h6.289a.672.672 0 0 0 .666-.668v-3.861h2.189v3.86c0 .365.302.669.691.669h6.264a.672.672 0 0 0 .666-.668V11.749a.676.676 0 0 0-.666-.692zm3.76.54l-5.458-5.482V2.377a.692.692 0 0 0-.704-.69.676.676 0 0 0-.667.69v2.367L12.472.214A.661.661 0 0 0 12.007 0a.684.684 0 0 0-.49.215L.21 11.52c-.271.271-.289.706 0 .955.252.29.685.271.956 0L12.007 1.661l10.816 10.917c.113.113.277.177.49.177a.76.76 0 0 0 .491-.177.713.713 0 0 0 0-.982z" fill-rule="evenodd"/></svg>