<svg width="24" height="24" xmlns="http://www.w3.org/2000/svg"><path d="M15.634 2.679C12.063-.893 6.25-.893 2.68 2.679c-3.57 3.572-3.57 9.384 0 12.956 3.18 3.18 8.133 3.52 11.702 1.037.076.356.247.695.524.971l5.2 5.201a1.934 1.934 0 0 0 2.738 0 1.933 1.933 0 0 0 0-2.737l-5.201-5.202a1.935 1.935 0 0 0-.97-.522c2.484-3.57 2.143-8.522-1.038-11.704zm-1.642 11.314c-2.666 2.666-7.006 2.666-9.671 0a6.85 6.85 0 0 1 0-9.671c2.665-2.666 7.005-2.666 9.671 0a6.846 6.846 0 0 1 0 9.67z" fill-rule="evenodd"/></svg>