<svg width="24" height="22" xmlns="http://www.w3.org/2000/svg"><path d="M23.841 8.426L22.69 6.78l-.021.015a2.885 2.885 0 1 1-3.31-4.726l.02-.014L18.227.409a.877.877 0 0 0-1.22-.215l-4.56 3.194.997 1.425-1.082.757-.997-1.424-10.99 7.698a.876.876 0 0 0-.215 1.22l5.615 8.017a.876.876 0 0 0 1.22.215l10.99-7.698L17 12.191l1.082-.758.985 1.408 4.56-3.195a.877.877 0 0 0 .215-1.22zm-10.71-1.81l1.082-.757 1.295 1.849-1.083.757-1.294-1.848zm3.17 4.578L15.106 9.49l1.082-.757 1.195 1.705-1.082.757z" fill-rule="evenodd"/></svg>