<svg width="24" height="24" xmlns="http://www.w3.org/2000/svg"><g fill-rule="evenodd"><path d="M17.759 13.79c-.047-.022-1.797-.883-2.108-.995a1.21 1.21 0 0 0-.407-.09c-.236 0-.435.117-.59.349-.174.26-.703.878-.867 1.063-.021.024-.05.053-.068.053a5.98 5.98 0 0 1-.368-.147c-1.877-.815-3.302-2.776-3.497-3.106-.028-.048-.03-.07-.03-.07a.564.564 0 0 1 .103-.12c.095-.095.199-.22.299-.34l.14-.167c.146-.169.21-.3.285-.451l.04-.08a.816.816 0 0 0-.024-.767c-.042-.083-.78-1.866-.86-2.053-.188-.452-.438-.663-.784-.663-.033 0 0 0-.135.006-.165.007-1.06.125-1.455.374-.42.265-1.13 1.108-1.13 2.591 0 1.335.847 2.595 1.21 3.074.01.012.026.037.05.072 1.393 2.034 3.13 3.541 4.89 4.244 1.694.677 2.496.756 2.952.756.192 0 .346-.015.48-.029l.087-.008c.585-.052 1.871-.718 2.164-1.532.23-.64.291-1.34.138-1.594-.105-.172-.286-.26-.515-.37z"/><path d="M12.213 0C5.713 0 .425 5.248.425 11.7c0 2.086.558 4.128 1.616 5.916L.017 23.588a.312.312 0 0 0 .39.397l6.227-1.979a11.862 11.862 0 0 0 5.58 1.392C18.711 23.398 24 18.15 24 11.699 24 5.25 18.712 0 12.213 0zm0 20.96a9.35 9.35 0 0 1-5.138-1.531.311.311 0 0 0-.265-.037l-3.12.992 1.007-2.971a.312.312 0 0 0-.043-.284 9.135 9.135 0 0 1-1.778-5.43c0-5.107 4.188-9.262 9.337-9.262 5.148 0 9.336 4.155 9.336 9.262s-4.188 9.262-9.336 9.262z"/></g></svg>