<svg width="26" height="25" xmlns="http://www.w3.org/2000/svg"><path d="M12.972 2.316c3.217.001 5.896 2.68 5.9 5.904.001.755.024 1.45.067 2.09a.736.736 0 0 0 .901.67l1.008-.237a.561.561 0 0 1 .677.419.741.741 0 0 1-.478.86l-1.53.618a.822.822 0 0 0-.485.978c1.227 4.537 4.655 4.065 4.655 4.656 0 .742-2.584.847-2.817 1.08-.233.234-.01 1.367-.532 1.586a1.11 1.11 0 0 1-.408.056c-.393 0-.948-.077-1.534-.077-.508 0-1.038.058-1.504.273-1.238.572-2.43 1.64-3.909 1.64-1.478 0-2.671-1.068-3.908-1.64-.467-.215-.997-.273-1.505-.273-.586 0-1.141.077-1.534.077-.17 0-.31-.015-.408-.056-.522-.22-.298-1.352-.532-1.586-.233-.233-2.817-.338-2.817-1.08 0-.591 3.428-.12 4.655-4.656a.822.822 0 0 0-.485-.978l-1.53-.618a.741.741 0 0 1-.478-.86.561.561 0 0 1 .678-.419l1.007.236a.736.736 0 0 0 .9-.669c.044-.64.067-1.335.068-2.09.004-3.225 2.662-5.903 5.878-5.904zm0-1.279c-.96 0-1.895.193-2.78.573a7.204 7.204 0 0 0-2.27 1.547 7.242 7.242 0 0 0-1.537 2.279 7.085 7.085 0 0 0-.57 2.782c-.001.472-.01.93-.03 1.368l-.375-.088a1.847 1.847 0 0 0-1.553.34 1.832 1.832 0 0 0-.665 1.047 2.022 2.022 0 0 0 1.27 2.332l1.122.453c-.743 2.282-2.114 2.719-3.037 3.013a4.614 4.614 0 0 0-.658.246C1.087 17.327 1 18.002 1 18.274c0 .52.246.995.693 1.337.223.17.499.31.844.429.47.162 1.014.264 1.457.347.021.164.052.34.105.517.22.738.683 1.068 1.033 1.215.332.14.675.156.904.156.224 0 .461-.018.712-.036.27-.02.547-.04.822-.04.425 0 .742.05.968.154.31.144.64.337.988.542.97.57 2.07 1.215 3.457 1.215s2.487-.645 3.457-1.215c.349-.205.678-.398.988-.542.226-.104.543-.155.968-.155.275 0 .553.02.822.04.251.02.488.037.712.037.23 0 .572-.016.904-.156.35-.147.813-.477 1.033-1.215.053-.177.084-.353.105-.517.443-.083.988-.185 1.458-.347.344-.119.62-.26.843-.43.447-.341.693-.816.693-1.336 0-.272-.086-.947-.89-1.345a4.614 4.614 0 0 0-.657-.246c-.923-.294-2.294-.731-3.037-3.013l1.123-.453a2.022 2.022 0 0 0 1.269-2.332 1.832 1.832 0 0 0-.665-1.048 1.858 1.858 0 0 0-1.553-.34l-.375.088a32.852 32.852 0 0 1-.03-1.367 7.052 7.052 0 0 0-.574-2.785 7.25 7.25 0 0 0-1.545-2.278 7.242 7.242 0 0 0-2.277-1.545 7.03 7.03 0 0 0-2.782-.573z" stroke="#000" stroke-width=".5" fill="#050505" fill-rule="evenodd"/></svg>