<svg width="24" height="18" xmlns="http://www.w3.org/2000/svg"><path d="M23.961 15.008c0 .525-.148 1.012-.384 1.44L16.01 7.984l7.484-6.548c.29.462.466 1.005.466 1.591v11.98zM11.981 9.52L22.394.41a2.958 2.958 0 0 0-1.428-.378H2.996c-.52 0-1.002.144-1.428.378l10.413 9.11zm2.903-.552l-2.41 2.11a.748.748 0 0 1-.986 0L9.077 8.97l-7.661 8.573c.459.288.997.46 1.58.46h17.97c.582 0 1.12-.172 1.58-.46L14.883 8.97zM.467 1.436A2.974 2.974 0 0 0 0 3.027v11.98c0 .526.147 1.013.385 1.441l7.564-8.466L.467 1.436z" fill-rule="evenodd"/></svg>