<svg width="24" height="20" xmlns="http://www.w3.org/2000/svg"><path d="M23.998 2.323a9.792 9.792 0 0 1-2.826.76c1.063-.638 1.783-1.54 2.157-2.704a9.633 9.633 0 0 1-3.114 1.185C19.242.53 18.047.014 16.629.014c-1.357 0-2.514.478-3.472 1.436-.957.957-1.435 2.114-1.435 3.471 0 .365.04.74.121 1.124A13.675 13.675 0 0 1 6.2 4.534 13.913 13.913 0 0 1 1.724.91a4.807 4.807 0 0 0-.668 2.476c0 .841.197 1.621.592 2.34a4.902 4.902 0 0 0 1.596 1.747 4.868 4.868 0 0 1-2.218-.623v.061c0 1.185.372 2.226 1.116 3.122a4.828 4.828 0 0 0 2.819 1.694 5.084 5.084 0 0 1-1.292.167 6.26 6.26 0 0 1-.927-.075c.314.982.892 1.79 1.732 2.423.841.633 1.793.96 2.857.98-1.783 1.398-3.814 2.096-6.093 2.096-.435 0-.83-.02-1.185-.06 2.28 1.468 4.791 2.203 7.536 2.203 1.742 0 3.378-.276 4.907-.828 1.53-.552 2.836-1.292 3.92-2.219a14.844 14.844 0 0 0 2.803-3.198 14.261 14.261 0 0 0 1.755-3.775 13.947 13.947 0 0 0 .562-4.58 10.277 10.277 0 0 0 2.462-2.538z" fill-rule="evenodd"/></svg>