<svg width="24" height="24" xmlns="http://www.w3.org/2000/svg"><g fill-rule="evenodd"><path d="M21.199 6.277l-.261.261c-.489.489-.844.63-1.585.63-1.498 0-2.585-1.087-2.585-2.584 0-.741.142-1.097.63-1.585l.262-.262L14.922 0 0 14.922l2.737 2.738.262-.261c.488-.49.844-.63 1.585-.63 1.497 0 2.584 1.086 2.584 2.584 0 .74-.141 1.096-.63 1.585l-.261.261 2.737 2.737L23.936 9.014 21.2 6.277zM7.311 21.188c.44-.524.596-1.03.596-1.835 0-1.895-1.429-3.323-3.323-3.323-.806 0-1.311.156-1.836.596l-1.704-1.704 8.709-8.709 1.216 1.216.522-.522-1.216-1.216 4.647-4.647 1.704 1.704c-.44.525-.596 1.03-.596 1.836 0 1.894 1.428 3.323 3.323 3.323.805 0 1.31-.156 1.836-.596l1.703 1.703-4.647 4.648-1.216-1.216-.522.522 1.216 1.216-8.709 8.708-1.703-1.704z"/><path d="M13.184 9.645l-1.477-1.477.522-.522 1.477 1.477zm2.585 2.585l-1.477-1.477.522-.522 1.477 1.477z"/></g></svg>