<svg width="12" height="16" xmlns="http://www.w3.org/2000/svg"><path d="M11.132 6.29h-.303V4.87c0-2.628-2.085-4.822-4.691-4.87a10.55 10.55 0 0 0-.285 0c-2.605.047-4.69 2.241-4.69 4.869v1.42H.859c-.467 0-.849.483-.849 1.079v7.124c0 .595.382 1.082.85 1.082h10.272c.468 0 .85-.487.85-1.082V7.369c0-.596-.382-1.079-.85-1.079zm-4.174 4.634v2.152a.46.46 0 0 1-.453.455H5.486a.46.46 0 0 1-.453-.455v-2.152a1.281 1.281 0 0 1-.378-.922c0-.683.527-1.27 1.198-1.296a4.69 4.69 0 0 1 .285 0c.671.027 1.199.613 1.199 1.296 0 .36-.14.686-.379.922zm1.87-4.634H3.163V4.87c0-1.565 1.272-2.86 2.833-2.86 1.56 0 2.832 1.295 2.832 2.86v1.42z" fill="#fff" fill-rule="evenodd"/></svg>