<svg width="24" height="24" xmlns="http://www.w3.org/2000/svg"><path d="M11.6 5.6a.4.4 0 0 0 .4-.4V.8h2.634l-.517.517a.4.4 0 0 0 0 .566l.517.517H13.2a.4.4 0 0 0 0 .8h2.4a.4.4 0 0 0 .283-.683l-.917-.917.917-.917A.4.4 0 0 0 15.6 0h-4a.4.4 0 0 0-.4.4v4.8c0 .22.18.4.4.4zm12.396 17.943c-.006-.042-.628-4.299-2.377-8.497-1.45-3.482-3.27-5.95-5.372-7.335a.388.388 0 0 0-.092-.065C14.868 6.821 13.477 6.4 12 6.4c-1.477 0-2.868.421-4.154 1.246a.398.398 0 0 0-.094.066c-2.102 1.386-3.92 3.853-5.371 7.334C.63 19.244.01 23.501.004 23.543A.4.4 0 0 0 .4 24h4a.4.4 0 0 0 0-.8H.872c.062-.358.168-.914.32-1.6h4.505c-.043.483-.07.97-.081 1.458-.01.184-.016.365-.016.542a.4.4 0 0 0 .8 0c0-3.663 2.234-9.2 5.6-9.2 3.366 0 5.6 5.537 5.6 9.2a.4.4 0 0 0 .8 0c0-.177-.006-.358-.016-.542a22.725 22.725 0 0 0-.08-1.458h4.503c.153.686.259 1.242.321 1.6H19.6a.4.4 0 0 0 0 .8h4a.4.4 0 0 0 .396-.457zM12 7.2c1.066 0 2.036.248 2.922.674A11.317 11.317 0 0 0 12 9.271a11.317 11.317 0 0 0-2.922-1.397A6.663 6.663 0 0 1 12 7.2zM5.775 20.8H1.38c.883-3.638 2.882-9.762 6.72-12.367 1.2.285 2.267.742 3.212 1.334-1.33 1.04-2.467 2.397-3.37 4.04-1.111 2.018-1.85 4.435-2.166 6.993zM12 13.6c-1.86 0-3.398 1.343-4.5 3.19.878-2.574 2.328-4.943 4.5-6.556 2.172 1.613 3.622 3.982 4.5 6.556-1.102-1.847-2.64-3.19-4.5-3.19zm6.225 7.2c-.316-2.558-1.055-4.975-2.165-6.993-.904-1.643-2.04-3-3.37-4.04a10.664 10.664 0 0 1 3.21-1.334c3.84 2.605 5.838 8.729 6.721 12.367h-4.396z" fill-rule="evenodd"/></svg>