<svg width="24" height="22" xmlns="http://www.w3.org/2000/svg"><path d="M23.994 7.303a.402.402 0 0 0-.021-.212c-.004-.01-.005-.02-.009-.029-.003-.007-.009-.012-.012-.019l-.01-.02-4-6.402a.41.41 0 0 0-.065-.079h-.001a.393.393 0 0 0-.119-.075c-.006-.002-.01-.007-.015-.01l-.014-.001a.392.392 0 0 0-.125-.023H4.399a.39.39 0 0 0-.124.022c-.004.001-.009 0-.013.002-.006.002-.01.007-.015.01a.399.399 0 0 0-.115.07L4.125.54a.402.402 0 0 0-.065.08l-4 6.401c-.005.006-.006.014-.01.02-.004.008-.01.013-.012.02-.005.009-.006.019-.01.028a.395.395 0 0 0 .01.316c.004.007.005.015.01.023.006.011.015.02.022.03l.016.026 11.598 14.398.003.003.002.003.004.003a.393.393 0 0 0 .154.111c.048.02.1.035.153.035a.404.404 0 0 0 .137-.024c.007-.003.011-.008.018-.011.02-.009.037-.022.055-.034.03-.02.059-.04.082-.065.006-.006.014-.009.02-.015L23.914 7.485c.007-.008.01-.017.016-.025.008-.011.017-.02.023-.031.004-.008.005-.016.009-.023a.378.378 0 0 0 .018-.046.365.365 0 0 0 .014-.057zm-11.153-6.07h6.185l-1.944 5.22-4.241-5.22zm3.52 5.602H7.64L12 1.468l4.36 5.367zm-9.47-.348L4.97 1.233h6.188L6.89 6.487zm9.75 1.148L11.93 20.28 7.31 7.635h9.331zm3.052-5.9l3.188 5.1h-5.088l1.9-5.1zm-15.39.005l1.862 5.095H1.12L4.303 1.74zm2.155 5.895l4.336 11.868-9.56-11.868h5.224zm6.501 12.175l4.536-12.175h5.272L12.959 19.81z" fill-rule="evenodd"/></svg>