<svg width="24" height="24" xmlns="http://www.w3.org/2000/svg"><g fill-rule="evenodd"><path d="M12.557 5.644c-.846-.283-1.834 0-2.54.564-.705.564-1.128 1.41-1.128 2.399 0 .423.282.705.705.705s.706-.282.706-.705c0-.424.14-.988.564-1.27.423-.282.847-.424 1.41-.282.706.14 1.13.705 1.27 1.27.142.705 0 1.27-.564 1.692a4.208 4.208 0 0 0-1.693 3.387c0 .423.282.705.706.705.423 0 .705-.282.564-.705 0-.847.564-1.693 1.27-2.258.988-.846 1.41-1.975 1.129-3.104-.283-1.27-1.27-2.116-2.399-2.398zm-1.129 11.428c-.14.141-.14.423-.14.564 0 .141 0 .283.14.424.141.14.424.282.565.282.14 0 .423-.141.423-.282.141 0 .282-.283.282-.424 0-.282-.141-.423-.282-.564a.682.682 0 0 0-.988 0z"/><path d="M11.993 0A11.983 11.983 0 0 0 0 11.993a11.983 11.983 0 0 0 11.993 11.992 11.983 11.983 0 0 0 11.992-11.992A11.983 11.983 0 0 0 11.993 0zm0 22.575c-5.785 0-10.582-4.798-10.582-10.582C1.41 6.208 6.208 1.41 11.993 1.41c5.784 0 10.582 4.797 10.582 10.582 0 5.784-4.798 10.582-10.582 10.582z"/></g></svg>