<svg version="1" xmlns="http://www.w3.org/2000/svg" width="1024" height="1024" viewBox="0 0 768 768"><path d="M191.5 29.1c-13.9 1.3-17.7 2-30.9 5.4-25.1 6.3-54.7 21.1-72.6 36.3-8.3 6.9-12.5 10.7-18.5 16.7-7.2 7.3-9.2 9.6-16 18-2.1 2.8-4.2 5.2-4.5 5.5-.3.3-3 4.3-6 9s-5.7 8.7-6 9c-.5.5-1.3 1.9-7.4 13.5-9.4 17.7-18.3 42.5-23 64.5-2.2 10-2.8 13-3.2 16.5-.3 2.2-.7 5.3-.9 7C.9 242.3.6 247.5.6 263c0 15.4.6 25.2 1.9 30 .2.8.6 3.5.9 6 .3 2.5.7 5.4 1 6.5 2.7 12.9 3.8 17.9 5.1 23 2.2 8.6 2.3 9 2.5 9 .1 0 .3.8.5 1.7.4 2.2 2.4 8.7 3.4 11.3.5 1.1 2.3 6 4.1 11 1.7 4.9 4.2 11.4 5.6 14.3 1.3 2.9 2.4 5.5 2.4 5.8 0 .7 11 22.4 14.2 28.1 5.6 10 9.1 15.7 10.2 16.8.6.6 2 2.8 3.1 4.8s2.3 3.7 2.7 3.7c.5 0 .8.5.8 1 0 .6.5 1.6 1 2.3.6.7 3.5 4.6 6.6 8.7 3 4.1 5.9 7.6 6.4 7.8.6.2 1 .9 1 1.6 0 .6.8 1.9 1.8 2.8.9.9 3.5 3.8 5.7 6.4 8.3 10.2 22.3 24.5 35.9 36.8 4.4 3.9 9.1 8.2 10.6 9.6 3.4 3.1 19.7 18 22 20 3.5 3.1 17.3 15.6 20.4 18.5 1.8 1.6 6.6 5.9 10.5 9.5 4 3.6 8.7 7.8 10.5 9.5 1.8 1.6 7 6.4 11.6 10.5s9.8 8.8 11.5 10.5c4.7 4.4 20.4 18.7 22.9 20.8 4.4 3.9 17.2 15.4 22.3 20.2 2.9 2.7 7.4 6.8 9.9 9s7.1 6.4 10.3 9.3c3.1 2.9 8.4 7.8 11.9 10.9 3.5 3.1 7.6 6.8 9.1 8.2 1.6 1.4 6.3 5.7 10.6 9.6 4.3 3.8 9.7 8.8 12.1 11 2.3 2.2 5.8 5.3 7.6 7 4.5 3.9 20.2 18.2 24.3 22 5.2 4.8 19.5 17.8 22.9 20.7 1.7 1.5 3.6 2.4 4.2 2 1-.6 6.6-5.5 18.4-16.2 4.6-4.2 17.2-15.4 19.4-17.3 2.1-1.8 13.7-12.2 18.3-16.4 1.4-1.2 4.9-4.4 7.9-7 3-2.6 7-6.2 8.8-7.8 3.8-3.5 16.1-14.5 19.2-17.2 1.8-1.5 10.7-9.5 18.8-16.8 1.3-1.1 5.8-5.2 10.1-9 4.3-3.9 8.3-7.5 8.9-8 .6-.6 4.7-4.2 9.1-8 4.4-3.9 8.2-7.2 8.5-7.5.3-.3 2.8-2.5 5.5-5 17.7-15.8 22-19.7 23.9-21.3 1.8-1.5 10.1-9 19.1-17.2 1.3-1.1 4.6-4 7.4-6.4 2.8-2.4 6.8-6 9-8 4.5-4.2 7.5-6.9 19.1-17.1 4.6-4.1 9.4-8.4 10.6-9.5 1.2-1.1 5.2-4.7 8.9-8 3.8-3.3 8.1-7.2 9.7-8.8 1.6-1.5 3.1-2.7 3.3-2.7.2 0 1.9-1.5 3.8-3.3 1.8-1.7 7.4-7.1 12.3-11.8 12.5-12.1 23-23.5 29.9-32.3 1.7-2.1 3.6-4.5 4.3-5.2.6-.7 1.2-1.5 1.2-1.8 0-.5 1.7-2.8 4.5-6 .6-.6 2.3-3.1 4-5.6 1.6-2.5 3.3-4.7 3.6-5 .3-.3 1.2-1.6 1.9-2.9.7-1.4 1.7-3 2.1-3.5 2.4-2.9 7.7-11.5 12.5-20.6 1.1-1.9 2.2-3.7 2.7-3.8.4-.2.7-1.2.7-2.3 0-1 .4-1.9.9-1.9s1.1-.8 1.4-1.8c.3-.9 3.5-8.1 7.1-15.9 7-15.1 14.9-37.6 19-53.8 2.7-10.9 5.7-24.5 6.1-28.5.1-1.4.5-3.9.8-5.5 2-9.8 2.9-43.4 1.5-53.5-.4-2.5-1-7.2-1.4-10.5-.7-6.1-1.1-9-1.4-9-.1 0-.3-1.4-.5-3-.9-7.2-1.6-10.3-4-19.9-5.9-22.7-15.9-48-25.5-64.2-3-5.2-14.3-22.8-15-23.4-.3-.3-3.7-4.3-7.5-9-12.3-15.1-31.7-32.6-46-41.6-1.6-1-3.2-2.1-3.5-2.4-1.5-1.6-25-13.5-31.7-16.1-1.3-.5-3.3-1.3-4.5-1.8-2.1-.9-9-3.2-11.3-3.7-13.3-3.4-22-5.4-26-5.9-2.7-.3-7.8-.9-11.1-1.3-6.1-.8-32.7-.6-39.4.2-1.9.2-5.7.7-8.5 1-2.7.4-5.7.8-6.5 1.1-.8.2-3.3.7-5.4 1.1-2.2.3-5 1-6.3 1.5-1.3.5-2.3.7-2.3.4 0-.2-1.9.3-4.2 1.1-2.4.9-5.2 1.7-6.3 1.9-3.4.5-22.5 8.4-31.9 13.2-22.9 11.5-47.1 30.6-63.1 49.8-2.7 3.3-5.6 6.4-6.2 6.8-.7.4-1.3 1.5-1.3 2.2 0 .8-.3 1.5-.7 1.5-.5 0-2.4 2.5-4.3 5.5s-3.8 5.4-4.2 5.5c-.5 0-.8.6-.8 1.2 0 .7-1.1 2.6-2.5 4.3-1.8 2.2-2.4 2.5-2.5 1.3 0-.9-.4-1.8-.8-2-.4-.2-1.9-2.1-3.2-4.3-6.3-10.5-22.3-30.3-30.5-37.6-1.6-1.5-5-4.6-7.4-6.9-2.4-2.3-6-5.3-8-6.8s-3.8-3-4.1-3.3c-.3-.3-3.6-2.7-7.5-5.3-3.8-2.5-7.4-5-8-5.4C309 55.2 293 47 291.6 47c-.8 0-1.6-.4-1.8-.8-.6-1.5-24.6-10.4-31.8-11.8-1.4-.3-4.5-1-7-1.5-2.5-.6-5.6-1.3-7-1.5-1.4-.2-3.8-.7-5.5-1.1-7.4-1.5-36.5-2.3-47-1.2z"/></svg>